<ttFont>
    <TTGlyph name=".notdef" xMin="32" yMin="0" xMax="440" yMax="780">
      <contour>
        <pt x="32" y="0" on="1"/>
        <pt x="32" y="780" on="1"/>
        <pt x="440" y="780" on="1"/>
        <pt x="440" y="0" on="1"/>
      </contour>
      <contour>
        <pt x="132" y="100" on="1"/>
        <pt x="340" y="100" on="1"/>
        <pt x="340" y="680" on="1"/>
        <pt x="132" y="680" on="1"/>
      </contour>
    </TTGlyph>
    <TTGlyph name="A" xMin="-35" yMin="0" xMax="588" yMax="698">
      <contour>
        <pt x="441" y="0" on="1"/>
        <pt x="425" y="170" on="1"/>
        <pt x="202" y="170" on="1"/>
        <pt x="120" y="0" on="1"/>
        <pt x="-35" y="0" on="1"/>
        <pt x="324" y="698" on="1"/>
        <pt x="509" y="698" on="1"/>
        <pt x="588" y="0" on="1"/>
      </contour>
      <contour>
        <pt x="394" y="567" on="1"/>
        <pt x="386" y="567" on="1"/>
        <pt x="259" y="291" on="1"/>
        <pt x="415" y="291" on="1"/>
      </contour>
    </TTGlyph>
    <TTGlyph name="AE" xMin="-56" yMin="0" xMax="953" yMax="698">
      <contour>
        <pt x="398" y="169" on="1"/>
        <pt x="201" y="169" on="1"/>
        <pt x="100" y="0" on="1"/>
        <pt x="-56" y="0" on="1"/>
        <pt x="388" y="698" on="1"/>
        <pt x="953" y="698" on="1"/>
        <pt x="927" y="570" on="1"/>
        <pt x="624" y="570" on="1"/>
        <pt x="593" y="417" on="1"/>
        <pt x="861" y="417" on="1"/>
        <pt x="835" y="289" on="1"/>
        <pt x="567" y="289" on="1"/>
        <pt x="535" y="128" on="1"/>
        <pt x="849" y="128" on="1"/>
        <pt x="823" y="0" on="1"/>
        <pt x="364" y="0" on="1"/>
      </contour>
      <contour>
        <pt x="449" y="570" on="1"/>
        <pt x="278" y="291" on="1"/>
        <pt x="422" y="291" on="1"/>
        <pt x="478" y="570" on="1"/>
      </contour>
    </TTGlyph>
    <TTGlyph name="AEacute" xMin="-56" yMin="0" xMax="953" yMax="975">
      <component glyphName="AE" x="0" y="0" flags="0x204"/>
      <component glyphName="acute.case" x="397" y="0" flags="0x4"/>
    </TTGlyph>
    <TTGlyph name="Aacute" xMin="-35" yMin="0" xMax="588" yMax="975">
      <component glyphName="A" x="0" y="0" flags="0x204"/>
      <component glyphName="acute.case" x="118" y="0" flags="0x4"/>
    </TTGlyph>
    <TTGlyph name="Abreve" xMin="-35" yMin="0" xMax="640" yMax="951">
      <component glyphName="A" x="0" y="0" flags="0x204"/>
      <component glyphName="breve.case" x="118" y="0" flags="0x4"/>
    </TTGlyph>
    <TTGlyph name="Acircumflex" xMin="-35" yMin="0" xMax="614" yMax="954">
      <component glyphName="A" x="0" y="0" flags="0x204"/>
      <component glyphName="circumflex.case" x="118" y="0" flags="0x4"/>
    </TTGlyph>
    <TTGlyph name="Adieresis" xMin="-35" yMin="0" xMax="616" yMax="911">
      <component glyphName="A" x="0" y="0" flags="0x204"/>
      <component glyphName="dieresis.case" x="118" y="0" flags="0x4"/>
    </TTGlyph>
    <TTGlyph name="Agrave" xMin="-35" yMin="0" xMax="588" yMax="975">
      <component glyphName="A" x="0" y="0" flags="0x204"/>
      <component glyphName="grave.case" x="118" y="0" flags="0x4"/>
    </TTGlyph>
    <TTGlyph name="Alpha" xMin="-35" yMin="0" xMax="588" yMax="698">
      <component glyphName="A" x="0" y="0" flags="0x204"/>
    </TTGlyph>
    <TTGlyph name="Alphatonos" xMin="-35" yMin="0" xMax="588" yMax="815">
      <component glyphName="A" x="0" y="0" flags="0x204"/>
      <component glyphName="tonos.case" x="-223" y="0" flags="0x4"/>
    </TTGlyph>
    <TTGlyph name="Amacron" xMin="-35" yMin="0" xMax="588" yMax="887">
      <component glyphName="A" x="0" y="0" flags="0x204"/>
      <component glyphName="macron.case" x="118" y="0" flags="0x4"/>
    </TTGlyph>
    <TTGlyph name="Aogonek" xMin="-35" yMin="-212" xMax="610" yMax="698">
      <contour>
        <pt x="324" y="698" on="1"/>
        <pt x="509" y="698" on="1"/>
        <pt x="588" y="0" on="1"/>
        <pt x="547" y="-25" on="0"/>
        <pt x="499" y="-60" on="0"/>
        <pt x="475" y="-86" on="0"/>
        <pt x="469" y="-104" on="0"/>
        <pt x="469" y="-111" on="1"/>
        <pt x="469" y="-123" on="0"/>
        <pt x="484" y="-140" on="0"/>
        <pt x="504" y="-140" on="1"/>
        <pt x="520" y="-140" on="0"/>
        <pt x="548" y="-129" on="0"/>
        <pt x="558" y="-113" on="1"/>
        <pt x="610" y="-162" on="1"/>
        <pt x="591" y="-185" on="0"/>
        <pt x="533" y="-212" on="0"/>
        <pt x="485" y="-212" on="1"/>
        <pt x="435" y="-212" on="0"/>
        <pt x="366" y="-170" on="0"/>
        <pt x="366" y="-129" on="1"/>
        <pt x="366" y="-91" on="0"/>
        <pt x="431" y="-24" on="0"/>
        <pt x="504" y="-4" on="1"/>
        <pt x="503" y="0" on="1"/>
        <pt x="441" y="0" on="1"/>
        <pt x="425" y="170" on="1"/>
        <pt x="202" y="170" on="1"/>
        <pt x="120" y="0" on="1"/>
        <pt x="-35" y="0" on="1"/>
      </contour>
      <contour>
        <pt x="394" y="567" on="1"/>
        <pt x="386" y="567" on="1"/>
        <pt x="259" y="291" on="1"/>
        <pt x="415" y="291" on="1"/>
      </contour>
    </TTGlyph>
    <TTGlyph name="Aring" xMin="-35" yMin="0" xMax="588" yMax="1005">
      <component glyphName="A" x="0" y="0" flags="0x204"/>
      <component glyphName="ring.case" x="118" y="0" flags="0x4"/>
    </TTGlyph>
    <TTGlyph name="Aringacute" xMin="-35" yMin="0" xMax="626" yMax="1148">
      <component glyphName="A" x="0" y="0" flags="0x204"/>
      <component glyphName="ringacute.case" x="118" y="0" flags="0x4"/>
    </TTGlyph>
    <TTGlyph name="Atilde" xMin="-35" yMin="0" xMax="620" yMax="910">
      <component glyphName="A" x="0" y="0" flags="0x204"/>
      <component glyphName="tilde.case" x="118" y="0" flags="0x4"/>
    </TTGlyph>
    <TTGlyph name="B" xMin="22" yMin="0" xMax="634" yMax="698">
      <contour>
        <pt x="162" y="698" on="1"/>
        <pt x="460" y="698" on="1"/>
        <pt x="498" y="698" on="0"/>
        <pt x="562" y="681" on="0"/>
        <pt x="608" y="645" on="0"/>
        <pt x="634" y="591" on="0"/>
        <pt x="634" y="555" on="1"/>
        <pt x="634" y="486" on="0"/>
        <pt x="567" y="381" on="0"/>
        <pt x="498" y="362" on="1"/>
        <pt x="497" y="357" on="1"/>
        <pt x="552" y="342" on="0"/>
        <pt x="601" y="271" on="0"/>
        <pt x="601" y="222" on="1"/>
        <pt x="601" y="172" on="0"/>
        <pt x="571" y="91" on="0"/>
        <pt x="510" y="32" on="0"/>
        <pt x="420" y="0" on="0"/>
        <pt x="360" y="0" on="1"/>
        <pt x="22" y="0" on="1"/>
      </contour>
      <contour>
        <pt x="360" y="124" on="1"/>
        <pt x="430" y="124" on="0"/>
        <pt x="443" y="189" on="1"/>
        <pt x="448" y="215" on="0"/>
        <pt x="452" y="239" on="0"/>
        <pt x="452" y="246" on="1"/>
        <pt x="452" y="266" on="0"/>
        <pt x="426" y="291" on="0"/>
        <pt x="397" y="291" on="1"/>
        <pt x="226" y="291" on="1"/>
        <pt x="193" y="124" on="1"/>
      </contour>
      <contour>
        <pt x="391" y="410" on="1"/>
        <pt x="426" y="410" on="0"/>
        <pt x="467" y="438" on="0"/>
        <pt x="474" y="472" on="1"/>
        <pt x="479" y="498" on="0"/>
        <pt x="483" y="520" on="0"/>
        <pt x="483" y="527" on="1"/>
        <pt x="483" y="548" on="0"/>
        <pt x="457" y="574" on="0"/>
        <pt x="429" y="574" on="1"/>
        <pt x="283" y="574" on="1"/>
        <pt x="250" y="410" on="1"/>
      </contour>
    </TTGlyph>
    <TTGlyph name="Beta" xMin="22" yMin="0" xMax="634" yMax="698">
      <component glyphName="B" x="0" y="0" flags="0x204"/>
    </TTGlyph>
    <TTGlyph name="C" xMin="57" yMin="-12" xMax="651" yMax="710">
      <contour>
        <pt x="306" y="-12" on="1"/>
        <pt x="250" y="-12" on="0"/>
        <pt x="159" y="24" on="0"/>
        <pt x="93" y="95" on="0"/>
        <pt x="57" y="201" on="0"/>
        <pt x="57" y="272" on="1"/>
        <pt x="57" y="364" on="0"/>
        <pt x="112" y="524" on="0"/>
        <pt x="208" y="642" on="0"/>
        <pt x="339" y="710" on="0"/>
        <pt x="415" y="710" on="1"/>
        <pt x="509" y="710" on="0"/>
        <pt x="626" y="621" on="0"/>
        <pt x="651" y="540" on="1"/>
        <pt x="522" y="486" on="1"/>
        <pt x="516" y="506" on="0"/>
        <pt x="498" y="541" on="0"/>
        <pt x="471" y="566" on="0"/>
        <pt x="432" y="581" on="0"/>
        <pt x="404" y="581" on="1"/>
        <pt x="334" y="581" on="0"/>
        <pt x="247" y="485" on="0"/>
        <pt x="231" y="406" on="1"/>
        <pt x="209" y="296" on="1"/>
        <pt x="206" y="281" on="0"/>
        <pt x="204" y="256" on="0"/>
        <pt x="204" y="246" on="1"/>
        <pt x="204" y="117" on="0"/>
        <pt x="319" y="117" on="1"/>
        <pt x="378" y="117" on="0"/>
        <pt x="449" y="175" on="0"/>
        <pt x="472" y="221" on="1"/>
        <pt x="593" y="166" on="1"/>
        <pt x="546" y="75" on="0"/>
        <pt x="397" y="-12" on="0"/>
      </contour>
    </TTGlyph>
    <TTGlyph name="Cacute" xMin="57" yMin="-12" xMax="651" yMax="975">
      <component glyphName="C" x="0" y="0" flags="0x204"/>
      <component glyphName="acute.case" x="126" y="0" flags="0x4"/>
    </TTGlyph>
    <TTGlyph name="Ccaron" xMin="57" yMin="-12" xMax="651" yMax="963">
      <component glyphName="C" x="0" y="0" flags="0x204"/>
      <component glyphName="caron.case" x="126" y="0" flags="0x4"/>
    </TTGlyph>
    <TTGlyph name="Ccedilla" xMin="57" yMin="-212" xMax="651" yMax="710">
      <contour>
        <pt x="404" y="581" on="1"/>
        <pt x="334" y="581" on="0"/>
        <pt x="247" y="484" on="0"/>
        <pt x="231" y="406" on="1"/>
        <pt x="209" y="296" on="1"/>
        <pt x="206" y="281" on="0"/>
        <pt x="204" y="256" on="0"/>
        <pt x="204" y="246" on="1"/>
        <pt x="204" y="117" on="0"/>
        <pt x="320" y="117" on="1"/>
        <pt x="378" y="117" on="0"/>
        <pt x="449" y="175" on="0"/>
        <pt x="472" y="221" on="1"/>
        <pt x="593" y="166" on="1"/>
        <pt x="548" y="78" on="0"/>
        <pt x="408" y="-9" on="0"/>
        <pt x="321" y="-12" on="1"/>
        <pt x="304" y="-55" on="1"/>
        <pt x="306" y="-59" on="1"/>
        <pt x="328" y="-52" on="0"/>
        <pt x="349" y="-52" on="1"/>
        <pt x="375" y="-52" on="0"/>
        <pt x="411" y="-82" on="0"/>
        <pt x="411" y="-108" on="1"/>
        <pt x="411" y="-134" on="0"/>
        <pt x="388" y="-173" on="0"/>
        <pt x="349" y="-199" on="0"/>
        <pt x="297" y="-212" on="0"/>
        <pt x="267" y="-212" on="1"/>
        <pt x="225" y="-212" on="0"/>
        <pt x="169" y="-185" on="0"/>
        <pt x="156" y="-166" on="1"/>
        <pt x="208" y="-114" on="1"/>
        <pt x="214" y="-123" on="0"/>
        <pt x="244" y="-142" on="0"/>
        <pt x="266" y="-142" on="1"/>
        <pt x="287" y="-142" on="0"/>
        <pt x="316" y="-128" on="0"/>
        <pt x="316" y="-111" on="1"/>
        <pt x="316" y="-99" on="0"/>
        <pt x="288" y="-79" on="0"/>
        <pt x="250" y="-75" on="1"/>
        <pt x="228" y="-73" on="1"/>
        <pt x="256" y="-8" on="1"/>
        <pt x="166" y="7" on="0"/>
        <pt x="57" y="147" on="0"/>
        <pt x="57" y="272" on="1"/>
        <pt x="57" y="364" on="0"/>
        <pt x="112" y="524" on="0"/>
        <pt x="209" y="642" on="0"/>
        <pt x="340" y="710" on="0"/>
        <pt x="416" y="710" on="1"/>
        <pt x="510" y="710" on="0"/>
        <pt x="626" y="621" on="0"/>
        <pt x="651" y="540" on="1"/>
        <pt x="522" y="486" on="1"/>
        <pt x="516" y="505" on="0"/>
        <pt x="498" y="540" on="0"/>
        <pt x="471" y="566" on="0"/>
        <pt x="432" y="581" on="0"/>
      </contour>
    </TTGlyph>
    <TTGlyph name="Ccircumflex" xMin="57" yMin="-12" xMax="651" yMax="954">
      <component glyphName="C" x="0" y="0" flags="0x204"/>
      <component glyphName="circumflex.case" x="126" y="0" flags="0x4"/>
    </TTGlyph>
    <TTGlyph name="Cdotaccent" xMin="57" yMin="-12" xMax="651" yMax="919">
      <component glyphName="C" x="0" y="0" flags="0x204"/>
      <component glyphName="dotaccent.case" x="126" y="0" flags="0x4"/>
    </TTGlyph>
    <TTGlyph name="Chi" xMin="-40" yMin="0" xMax="706" yMax="698">
      <component glyphName="X" x="0" y="0" flags="0x204"/>
    </TTGlyph>
    <TTGlyph name="D" xMin="22" yMin="0" xMax="654" yMax="698">
      <contour>
        <pt x="162" y="698" on="1"/>
        <pt x="386" y="698" on="1"/>
        <pt x="511" y="698" on="0"/>
        <pt x="654" y="566" on="0"/>
        <pt x="654" y="437" on="1"/>
        <pt x="654" y="344" on="0"/>
        <pt x="606" y="184" on="0"/>
        <pt x="513" y="67" on="0"/>
        <pt x="376" y="0" on="0"/>
        <pt x="288" y="0" on="1"/>
        <pt x="22" y="0" on="1"/>
      </contour>
      <contour>
        <pt x="300" y="128" on="1"/>
        <pt x="368" y="128" on="0"/>
        <pt x="464" y="210" on="0"/>
        <pt x="481" y="296" on="1"/>
        <pt x="500" y="390" on="1"/>
        <pt x="504" y="409" on="0"/>
        <pt x="507" y="443" on="0"/>
        <pt x="507" y="452" on="1"/>
        <pt x="507" y="515" on="0"/>
        <pt x="446" y="570" on="0"/>
        <pt x="395" y="570" on="1"/>
        <pt x="282" y="570" on="1"/>
        <pt x="193" y="128" on="1"/>
      </contour>
    </TTGlyph>
    <TTGlyph name="Dcaron" xMin="22" yMin="0" xMax="654" yMax="963">
      <component glyphName="D" x="0" y="0" flags="0x204"/>
      <component glyphName="caron.case" x="100" y="0" flags="0x4"/>
    </TTGlyph>
    <TTGlyph name="Dcroat" xMin="10" yMin="0" xMax="659" yMax="698">
      <contour>
        <pt x="88" y="298" on="1"/>
        <pt x="10" y="298" on="1"/>
        <pt x="33" y="410" on="1"/>
        <pt x="109" y="410" on="1"/>
        <pt x="167" y="698" on="1"/>
        <pt x="391" y="698" on="1"/>
        <pt x="516" y="698" on="0"/>
        <pt x="659" y="566" on="0"/>
        <pt x="659" y="437" on="1"/>
        <pt x="659" y="344" on="0"/>
        <pt x="611" y="184" on="0"/>
        <pt x="518" y="67" on="0"/>
        <pt x="381" y="0" on="0"/>
        <pt x="293" y="0" on="1"/>
        <pt x="27" y="0" on="1"/>
      </contour>
      <contour>
        <pt x="305" y="128" on="1"/>
        <pt x="374" y="128" on="0"/>
        <pt x="469" y="211" on="0"/>
        <pt x="486" y="296" on="1"/>
        <pt x="505" y="390" on="1"/>
        <pt x="509" y="408" on="0"/>
        <pt x="512" y="443" on="0"/>
        <pt x="512" y="452" on="1"/>
        <pt x="512" y="515" on="0"/>
        <pt x="451" y="570" on="0"/>
        <pt x="400" y="570" on="1"/>
        <pt x="286" y="570" on="1"/>
        <pt x="254" y="410" on="1"/>
        <pt x="367" y="410" on="1"/>
        <pt x="344" y="298" on="1"/>
        <pt x="231" y="298" on="1"/>
        <pt x="198" y="128" on="1"/>
      </contour>
    </TTGlyph>
    <TTGlyph name="Delta" xMin="-6" yMin="0" xMax="598" yMax="698">
      <contour>
        <pt x="17" y="119" on="1"/>
        <pt x="331" y="698" on="1"/>
        <pt x="516" y="698" on="1"/>
        <pt x="598" y="119" on="1"/>
        <pt x="574" y="0" on="1"/>
        <pt x="-6" y="0" on="1"/>
      </contour>
      <contour>
        <pt x="401" y="567" on="1"/>
        <pt x="393" y="567" on="1"/>
        <pt x="172" y="128" on="1"/>
        <pt x="453" y="128" on="1"/>
      </contour>
    </TTGlyph>
    <TTGlyph name="E" xMin="22" yMin="0" xMax="611" yMax="698">
      <contour>
        <pt x="22" y="0" on="1"/>
        <pt x="162" y="698" on="1"/>
        <pt x="611" y="698" on="1"/>
        <pt x="585" y="570" on="1"/>
        <pt x="282" y="570" on="1"/>
        <pt x="251" y="417" on="1"/>
        <pt x="519" y="417" on="1"/>
        <pt x="493" y="289" on="1"/>
        <pt x="225" y="289" on="1"/>
        <pt x="193" y="128" on="1"/>
        <pt x="507" y="128" on="1"/>
        <pt x="481" y="0" on="1"/>
      </contour>
    </TTGlyph>
    <TTGlyph name="Eacute" xMin="22" yMin="0" xMax="611" yMax="975">
      <component glyphName="E" x="0" y="0" flags="0x204"/>
      <component glyphName="acute.case" x="93" y="0" flags="0x4"/>
    </TTGlyph>
    <TTGlyph name="Ebreve" xMin="22" yMin="0" xMax="615" yMax="951">
      <component glyphName="E" x="0" y="0" flags="0x204"/>
      <component glyphName="breve.case" x="93" y="0" flags="0x4"/>
    </TTGlyph>
    <TTGlyph name="Ecaron" xMin="22" yMin="0" xMax="612" yMax="963">
      <component glyphName="E" x="0" y="0" flags="0x204"/>
      <component glyphName="caron.case" x="93" y="0" flags="0x4"/>
    </TTGlyph>
    <TTGlyph name="Ecircumflex" xMin="22" yMin="0" xMax="611" yMax="954">
      <component glyphName="E" x="0" y="0" flags="0x204"/>
      <component glyphName="circumflex.case" x="93" y="0" flags="0x4"/>
    </TTGlyph>
    <TTGlyph name="Edieresis" xMin="22" yMin="0" xMax="611" yMax="911">
      <component glyphName="E" x="0" y="0" flags="0x204"/>
      <component glyphName="dieresis.case" x="93" y="0" flags="0x4"/>
    </TTGlyph>
    <TTGlyph name="Edotaccent" xMin="22" yMin="0" xMax="611" yMax="919">
      <component glyphName="E" x="0" y="0" flags="0x204"/>
      <component glyphName="dotaccent.case" x="93" y="0" flags="0x4"/>
    </TTGlyph>
    <TTGlyph name="Egrave" xMin="22" yMin="0" xMax="611" yMax="975">
      <component glyphName="E" x="0" y="0" flags="0x204"/>
      <component glyphName="grave.case" x="93" y="0" flags="0x4"/>
    </TTGlyph>
    <TTGlyph name="Emacron" xMin="22" yMin="0" xMax="611" yMax="887">
      <component glyphName="E" x="0" y="0" flags="0x204"/>
      <component glyphName="macron.case" x="93" y="0" flags="0x4"/>
    </TTGlyph>
    <TTGlyph name="Eng" xMin="22" yMin="-200" xMax="712" yMax="698">
      <contour>
        <pt x="22" y="0" on="1"/>
        <pt x="162" y="698" on="1"/>
        <pt x="319" y="698" on="1"/>
        <pt x="432" y="362" on="1"/>
        <pt x="474" y="223" on="1"/>
        <pt x="480" y="223" on="1"/>
        <pt x="575" y="698" on="1"/>
        <pt x="712" y="698" on="1"/>
        <pt x="561" y="-55" on="1"/>
        <pt x="546" y="-130" on="0"/>
        <pt x="463" y="-200" on="0"/>
        <pt x="394" y="-200" on="1"/>
        <pt x="318" y="-200" on="1"/>
        <pt x="340" y="-89" on="1"/>
        <pt x="421" y="-89" on="1"/>
        <pt x="439" y="0" on="1"/>
        <pt x="415" y="0" on="1"/>
        <pt x="302" y="336" on="1"/>
        <pt x="260" y="475" on="1"/>
        <pt x="254" y="475" on="1"/>
        <pt x="159" y="0" on="1"/>
      </contour>
    </TTGlyph>
    <TTGlyph name="Eogonek" xMin="22" yMin="-212" xMax="611" yMax="698">
      <contour>
        <pt x="162" y="698" on="1"/>
        <pt x="611" y="698" on="1"/>
        <pt x="585" y="570" on="1"/>
        <pt x="282" y="570" on="1"/>
        <pt x="251" y="417" on="1"/>
        <pt x="519" y="417" on="1"/>
        <pt x="493" y="289" on="1"/>
        <pt x="225" y="289" on="1"/>
        <pt x="193" y="128" on="1"/>
        <pt x="507" y="128" on="1"/>
        <pt x="481" y="0" on="1"/>
        <pt x="440" y="-25" on="0"/>
        <pt x="392" y="-60" on="0"/>
        <pt x="368" y="-86" on="0"/>
        <pt x="362" y="-104" on="0"/>
        <pt x="362" y="-111" on="1"/>
        <pt x="362" y="-123" on="0"/>
        <pt x="377" y="-140" on="0"/>
        <pt x="397" y="-140" on="1"/>
        <pt x="413" y="-140" on="0"/>
        <pt x="441" y="-129" on="0"/>
        <pt x="451" y="-113" on="1"/>
        <pt x="503" y="-162" on="1"/>
        <pt x="484" y="-185" on="0"/>
        <pt x="426" y="-212" on="0"/>
        <pt x="378" y="-212" on="1"/>
        <pt x="328" y="-212" on="0"/>
        <pt x="259" y="-170" on="0"/>
        <pt x="259" y="-129" on="1"/>
        <pt x="259" y="-91" on="0"/>
        <pt x="324" y="-24" on="0"/>
        <pt x="397" y="-4" on="1"/>
        <pt x="396" y="0" on="1"/>
        <pt x="22" y="0" on="1"/>
      </contour>
    </TTGlyph>
    <TTGlyph name="Epsilon" xMin="22" yMin="0" xMax="611" yMax="698">
      <component glyphName="E" x="0" y="0" flags="0x204"/>
    </TTGlyph>
    <TTGlyph name="Epsilontonos" xMin="49" yMin="0" xMax="699" yMax="815">
      <component glyphName="E" x="88" y="0" flags="0x4"/>
      <component glyphName="tonos.case" x="-279" y="0" flags="0x4"/>
    </TTGlyph>
    <TTGlyph name="Eta" xMin="22" yMin="0" xMax="712" yMax="698">
      <component glyphName="H" x="0" y="0" flags="0x204"/>
    </TTGlyph>
    <TTGlyph name="Etatonos" xMin="49" yMin="0" xMax="801" yMax="815">
      <component glyphName="H" x="89" y="0" flags="0x4"/>
      <component glyphName="tonos.case" x="-279" y="0" flags="0x4"/>
    </TTGlyph>
    <TTGlyph name="Eth" xMin="10" yMin="0" xMax="659" yMax="698">
      <component glyphName="Dcroat" x="0" y="0" flags="0x204"/>
    </TTGlyph>
    <TTGlyph name="Euro" xMin="56" yMin="-12" xMax="633" yMax="710">
      <contour>
        <pt x="301" y="-12" on="1"/>
        <pt x="250" y="-12" on="0"/>
        <pt x="160" y="24" on="0"/>
        <pt x="94" y="97" on="0"/>
        <pt x="56" y="206" on="0"/>
        <pt x="56" y="280" on="1"/>
        <pt x="56" y="378" on="0"/>
        <pt x="118" y="537" on="0"/>
        <pt x="219" y="649" on="0"/>
        <pt x="346" y="710" on="0"/>
        <pt x="412" y="710" on="1"/>
        <pt x="495" y="710" on="0"/>
        <pt x="609" y="646" on="0"/>
        <pt x="633" y="586" on="1"/>
        <pt x="521" y="516" on="1"/>
        <pt x="508" y="551" on="0"/>
        <pt x="455" y="591" on="0"/>
        <pt x="404" y="591" on="1"/>
        <pt x="353" y="591" on="0"/>
        <pt x="272" y="531" on="0"/>
        <pt x="249" y="472" on="1"/>
        <pt x="474" y="472" on="1"/>
        <pt x="456" y="384" on="1"/>
        <pt x="225" y="384" on="1"/>
        <pt x="211" y="314" on="1"/>
        <pt x="442" y="314" on="1"/>
        <pt x="424" y="226" on="1"/>
        <pt x="201" y="226" on="1"/>
        <pt x="204" y="170" on="0"/>
        <pt x="266" y="107" on="0"/>
        <pt x="314" y="107" on="1"/>
        <pt x="342" y="107" on="0"/>
        <pt x="387" y="123" on="0"/>
        <pt x="423" y="148" on="0"/>
        <pt x="450" y="179" on="0"/>
        <pt x="460" y="194" on="1"/>
        <pt x="549" y="116" on="1"/>
        <pt x="509" y="62" on="0"/>
        <pt x="385" y="-12" on="0"/>
      </contour>
    </TTGlyph>
    <TTGlyph name="F" xMin="22" yMin="0" xMax="599" yMax="698">
      <contour>
        <pt x="22" y="0" on="1"/>
        <pt x="162" y="698" on="1"/>
        <pt x="599" y="698" on="1"/>
        <pt x="573" y="570" on="1"/>
        <pt x="281" y="570" on="1"/>
        <pt x="250" y="417" on="1"/>
        <pt x="507" y="417" on="1"/>
        <pt x="481" y="289" on="1"/>
        <pt x="224" y="289" on="1"/>
        <pt x="167" y="0" on="1"/>
      </contour>
    </TTGlyph>
    <TTGlyph name="G" xMin="57" yMin="-12" xMax="677" yMax="710">
      <contour>
        <pt x="482" y="111" on="1"/>
        <pt x="474" y="111" on="1"/>
        <pt x="448" y="60" on="0"/>
        <pt x="354" y="-12" on="0"/>
        <pt x="283" y="-12" on="1"/>
        <pt x="233" y="-12" on="0"/>
        <pt x="150" y="23" on="0"/>
        <pt x="90" y="93" on="0"/>
        <pt x="57" y="198" on="0"/>
        <pt x="57" y="268" on="1"/>
        <pt x="57" y="362" on="0"/>
        <pt x="110" y="524" on="0"/>
        <pt x="207" y="643" on="0"/>
        <pt x="342" y="710" on="0"/>
        <pt x="425" y="710" on="1"/>
        <pt x="471" y="710" on="0"/>
        <pt x="553" y="689" on="0"/>
        <pt x="618" y="647" on="0"/>
        <pt x="665" y="585" on="0"/>
        <pt x="677" y="545" on="1"/>
        <pt x="556" y="481" on="1"/>
        <pt x="544" y="530" on="0"/>
        <pt x="471" y="581" on="0"/>
        <pt x="417" y="581" on="1"/>
        <pt x="336" y="581" on="0"/>
        <pt x="247" y="488" on="0"/>
        <pt x="231" y="407" on="1"/>
        <pt x="209" y="297" on="1"/>
        <pt x="203" y="267" on="0"/>
        <pt x="203" y="241" on="1"/>
        <pt x="203" y="208" on="0"/>
        <pt x="221" y="161" on="0"/>
        <pt x="253" y="131" on="0"/>
        <pt x="295" y="117" on="0"/>
        <pt x="318" y="117" on="1"/>
        <pt x="350" y="117" on="0"/>
        <pt x="407" y="134" on="0"/>
        <pt x="452" y="165" on="0"/>
        <pt x="482" y="206" on="0"/>
        <pt x="487" y="230" on="1"/>
        <pt x="494" y="264" on="1"/>
        <pt x="368" y="264" on="1"/>
        <pt x="392" y="386" on="1"/>
        <pt x="656" y="386" on="1"/>
        <pt x="579" y="0" on="1"/>
        <pt x="460" y="0" on="1"/>
      </contour>
    </TTGlyph>
    <TTGlyph name="Gamma" xMin="22" yMin="0" xMax="559" yMax="698">
      <component glyphName="uni0413" x="0" y="0" flags="0x204"/>
    </TTGlyph>
    <TTGlyph name="Gbreve" xMin="57" yMin="-12" xMax="677" yMax="951">
      <component glyphName="G" x="0" y="0" flags="0x204"/>
      <component glyphName="breve.case" x="137" y="0" flags="0x4"/>
    </TTGlyph>
    <TTGlyph name="Gcircumflex" xMin="57" yMin="-12" xMax="677" yMax="954">
      <component glyphName="G" x="0" y="0" flags="0x204"/>
      <component glyphName="circumflex.case" x="137" y="0" flags="0x4"/>
    </TTGlyph>
    <TTGlyph name="Gcommaaccent" xMin="57" yMin="-275" xMax="677" yMax="710">
      <component glyphName="G" x="0" y="0" flags="0x204"/>
      <component glyphName="uni0326" x="289" y="0" flags="0x4"/>
    </TTGlyph>
    <TTGlyph name="Gdotaccent" xMin="57" yMin="-12" xMax="677" yMax="919">
      <component glyphName="G" x="0" y="0" flags="0x204"/>
      <component glyphName="dotaccent.case" x="137" y="0" flags="0x4"/>
    </TTGlyph>
    <TTGlyph name="H" xMin="22" yMin="0" xMax="712" yMax="698">
      <contour>
        <pt x="485" y="289" on="1"/>
        <pt x="225" y="289" on="1"/>
        <pt x="167" y="0" on="1"/>
        <pt x="22" y="0" on="1"/>
        <pt x="162" y="698" on="1"/>
        <pt x="307" y="698" on="1"/>
        <pt x="251" y="417" on="1"/>
        <pt x="511" y="417" on="1"/>
        <pt x="567" y="698" on="1"/>
        <pt x="712" y="698" on="1"/>
        <pt x="572" y="0" on="1"/>
        <pt x="427" y="0" on="1"/>
      </contour>
    </TTGlyph>
    <TTGlyph name="Hbar" xMin="27" yMin="0" xMax="773" yMax="698">
      <contour>
        <pt x="490" y="289" on="1"/>
        <pt x="230" y="289" on="1"/>
        <pt x="172" y="0" on="1"/>
        <pt x="27" y="0" on="1"/>
        <pt x="130" y="513" on="1"/>
        <pt x="58" y="513" on="1"/>
        <pt x="79" y="620" on="1"/>
        <pt x="151" y="620" on="1"/>
        <pt x="167" y="698" on="1"/>
        <pt x="312" y="698" on="1"/>
        <pt x="296" y="620" on="1"/>
        <pt x="556" y="620" on="1"/>
        <pt x="572" y="698" on="1"/>
        <pt x="717" y="698" on="1"/>
        <pt x="701" y="620" on="1"/>
        <pt x="773" y="620" on="1"/>
        <pt x="752" y="513" on="1"/>
        <pt x="680" y="513" on="1"/>
        <pt x="577" y="0" on="1"/>
        <pt x="432" y="0" on="1"/>
      </contour>
      <contour>
        <pt x="516" y="417" on="1"/>
        <pt x="535" y="513" on="1"/>
        <pt x="275" y="513" on="1"/>
        <pt x="256" y="417" on="1"/>
      </contour>
    </TTGlyph>
    <TTGlyph name="Hcircumflex" xMin="22" yMin="0" xMax="712" yMax="954">
      <component glyphName="H" x="0" y="0" flags="0x204"/>
      <component glyphName="circumflex.case" x="132" y="0" flags="0x4"/>
    </TTGlyph>
    <TTGlyph name="I" xMin="-4" yMin="0" xMax="454" yMax="698">
      <contour>
        <pt x="-4" y="0" on="1"/>
        <pt x="20" y="118" on="1"/>
        <pt x="106" y="118" on="1"/>
        <pt x="199" y="580" on="1"/>
        <pt x="113" y="580" on="1"/>
        <pt x="136" y="698" on="1"/>
        <pt x="454" y="698" on="1"/>
        <pt x="430" y="580" on="1"/>
        <pt x="344" y="580" on="1"/>
        <pt x="251" y="118" on="1"/>
        <pt x="337" y="118" on="1"/>
        <pt x="314" y="0" on="1"/>
      </contour>
    </TTGlyph>
    <TTGlyph name="IJ" xMin="64" yMin="-11" xMax="654" yMax="698">
      <contour>
        <pt x="654" y="698" on="1"/>
        <pt x="557" y="212" on="1"/>
        <pt x="536" y="108" on="0"/>
        <pt x="395" y="-11" on="0"/>
        <pt x="284" y="-11" on="1"/>
        <pt x="235" y="-11" on="0"/>
        <pt x="155" y="16" on="0"/>
        <pt x="98" y="67" on="0"/>
        <pt x="65" y="139" on="0"/>
        <pt x="64" y="183" on="1"/>
        <pt x="202" y="211" on="1"/>
        <pt x="201" y="166" on="0"/>
        <pt x="250" y="119" on="0"/>
        <pt x="293" y="119" on="1"/>
        <pt x="340" y="119" on="0"/>
        <pt x="403" y="167" on="0"/>
        <pt x="414" y="221" on="1"/>
        <pt x="486" y="581" on="1"/>
        <pt x="397" y="581" on="1"/>
        <pt x="421" y="698" on="1"/>
      </contour>
      <contour>
        <pt x="161" y="698" on="1"/>
        <pt x="305" y="698" on="1"/>
        <pt x="227" y="308" on="1"/>
        <pt x="82" y="308" on="1"/>
      </contour>
    </TTGlyph>
    <TTGlyph name="IJacute" xMin="64" yMin="-11" xMax="714" yMax="975">
      <component glyphName="IJ" x="0" y="0" flags="0x204"/>
      <component glyphName="acute.case" x="-57" y="0" flags="0x4"/>
      <component glyphName="acute.case" x="246" y="0" flags="0x4"/>
    </TTGlyph>
    <TTGlyph name="Iacute" xMin="-4" yMin="0" xMax="470" yMax="975">
      <component glyphName="I" x="0" y="0" flags="0x204"/>
      <component glyphName="acute.case" x="2" y="0" flags="0x4"/>
    </TTGlyph>
    <TTGlyph name="Ibreve" xMin="-4" yMin="0" xMax="524" yMax="951">
      <component glyphName="I" x="0" y="0" flags="0x204"/>
      <component glyphName="breve.case" x="2" y="0" flags="0x4"/>
    </TTGlyph>
    <TTGlyph name="Icircumflex" xMin="-4" yMin="0" xMax="498" yMax="954">
      <component glyphName="I" x="0" y="0" flags="0x204"/>
      <component glyphName="circumflex.case" x="2" y="0" flags="0x4"/>
    </TTGlyph>
    <TTGlyph name="Idieresis" xMin="-4" yMin="0" xMax="500" yMax="911">
      <component glyphName="I" x="0" y="0" flags="0x204"/>
      <component glyphName="dieresis.case" x="2" y="0" flags="0x4"/>
    </TTGlyph>
    <TTGlyph name="Idotaccent" xMin="-4" yMin="0" xMax="454" yMax="919">
      <component glyphName="I" x="0" y="0" flags="0x204"/>
      <component glyphName="dotaccent.case" x="2" y="0" flags="0x4"/>
    </TTGlyph>
    <TTGlyph name="Igrave" xMin="-4" yMin="0" xMax="454" yMax="975">
      <component glyphName="I" x="0" y="0" flags="0x204"/>
      <component glyphName="grave.case" x="2" y="0" flags="0x4"/>
    </TTGlyph>
    <TTGlyph name="Imacron" xMin="-4" yMin="0" xMax="471" yMax="887">
      <component glyphName="I" x="0" y="0" flags="0x204"/>
      <component glyphName="macron.case" x="2" y="0" flags="0x4"/>
    </TTGlyph>
    <TTGlyph name="Iogonek" xMin="-4" yMin="-212" xMax="454" yMax="698">
      <contour>
        <pt x="20" y="118" on="1"/>
        <pt x="106" y="118" on="1"/>
        <pt x="199" y="580" on="1"/>
        <pt x="113" y="580" on="1"/>
        <pt x="136" y="698" on="1"/>
        <pt x="454" y="698" on="1"/>
        <pt x="430" y="580" on="1"/>
        <pt x="344" y="580" on="1"/>
        <pt x="251" y="118" on="1"/>
        <pt x="337" y="118" on="1"/>
        <pt x="314" y="0" on="1"/>
        <pt x="273" y="-25" on="0"/>
        <pt x="225" y="-60" on="0"/>
        <pt x="201" y="-86" on="0"/>
        <pt x="195" y="-104" on="0"/>
        <pt x="195" y="-111" on="1"/>
        <pt x="195" y="-123" on="0"/>
        <pt x="210" y="-140" on="0"/>
        <pt x="230" y="-140" on="1"/>
        <pt x="246" y="-140" on="0"/>
        <pt x="274" y="-129" on="0"/>
        <pt x="284" y="-113" on="1"/>
        <pt x="336" y="-162" on="1"/>
        <pt x="317" y="-185" on="0"/>
        <pt x="259" y="-212" on="0"/>
        <pt x="211" y="-212" on="1"/>
        <pt x="161" y="-212" on="0"/>
        <pt x="92" y="-170" on="0"/>
        <pt x="92" y="-129" on="1"/>
        <pt x="92" y="-91" on="0"/>
        <pt x="157" y="-24" on="0"/>
        <pt x="230" y="-4" on="1"/>
        <pt x="229" y="0" on="1"/>
        <pt x="-4" y="0" on="1"/>
      </contour>
    </TTGlyph>
    <TTGlyph name="Iota" xMin="-4" yMin="0" xMax="454" yMax="698">
      <component glyphName="I" x="0" y="0" flags="0x204"/>
    </TTGlyph>
    <TTGlyph name="Iotadieresis" xMin="-4" yMin="0" xMax="500" yMax="911">
      <component glyphName="I" x="0" y="0" flags="0x204"/>
      <component glyphName="dieresis.case" x="2" y="0" flags="0x4"/>
    </TTGlyph>
    <TTGlyph name="Iotatonos" xMin="49" yMin="0" xMax="569" yMax="815">
      <component glyphName="I" x="115" y="0" flags="0x4"/>
      <component glyphName="tonos.case" x="-279" y="0" flags="0x4"/>
    </TTGlyph>
    <TTGlyph name="Itilde" xMin="-4" yMin="0" xMax="504" yMax="910">
      <component glyphName="I" x="0" y="0" flags="0x204"/>
      <component glyphName="tilde.case" x="2" y="0" flags="0x4"/>
    </TTGlyph>
    <TTGlyph name="J" xMin="5" yMin="-11" xMax="549" yMax="698">
      <contour>
        <pt x="549" y="698" on="1"/>
        <pt x="447" y="190" on="1"/>
        <pt x="429" y="99" on="0"/>
        <pt x="314" y="-11" on="0"/>
        <pt x="215" y="-11" on="1"/>
        <pt x="164" y="-11" on="0"/>
        <pt x="89" y="19" on="0"/>
        <pt x="37" y="71" on="0"/>
        <pt x="9" y="140" on="0"/>
        <pt x="5" y="180" on="1"/>
        <pt x="144" y="208" on="1"/>
        <pt x="148" y="166" on="0"/>
        <pt x="177" y="115" on="0"/>
        <pt x="215" y="115" on="1"/>
        <pt x="246" y="115" on="0"/>
        <pt x="295" y="157" on="0"/>
        <pt x="305" y="205" on="1"/>
        <pt x="380" y="580" on="1"/>
        <pt x="177" y="580" on="1"/>
        <pt x="201" y="698" on="1"/>
      </contour>
    </TTGlyph>
    <TTGlyph name="Jacute" xMin="5" yMin="-11" xMax="557" yMax="975">
      <component glyphName="J" x="0" y="0" flags="0x204"/>
      <component glyphName="acute.case" x="89" y="0" flags="0x4"/>
    </TTGlyph>
    <TTGlyph name="Jcircumflex" xMin="5" yMin="-11" xMax="585" yMax="954">
      <component glyphName="J" x="0" y="0" flags="0x204"/>
      <component glyphName="circumflex.case" x="89" y="0" flags="0x4"/>
    </TTGlyph>
    <TTGlyph name="K" xMin="22" yMin="0" xMax="721" yMax="698">
      <contour>
        <pt x="319" y="299" on="1"/>
        <pt x="203" y="179" on="1"/>
        <pt x="167" y="0" on="1"/>
        <pt x="22" y="0" on="1"/>
        <pt x="162" y="698" on="1"/>
        <pt x="307" y="698" on="1"/>
        <pt x="240" y="364" on="1"/>
        <pt x="247" y="364" on="1"/>
        <pt x="357" y="495" on="1"/>
        <pt x="545" y="698" on="1"/>
        <pt x="721" y="698" on="1"/>
        <pt x="433" y="398" on="1"/>
        <pt x="596" y="0" on="1"/>
        <pt x="436" y="0" on="1"/>
      </contour>
    </TTGlyph>
    <TTGlyph name="Kappa" xMin="22" yMin="0" xMax="721" yMax="698">
      <component glyphName="K" x="0" y="0" flags="0x204"/>
    </TTGlyph>
    <TTGlyph name="Kcommaaccent" xMin="22" yMin="-275" xMax="721" yMax="698">
      <component glyphName="K" x="0" y="0" flags="0x204"/>
      <component glyphName="uni0326" x="297" y="0" flags="0x4"/>
    </TTGlyph>
    <TTGlyph name="L" xMin="22" yMin="0" xMax="449" yMax="698">
      <contour>
        <pt x="22" y="0" on="1"/>
        <pt x="162" y="698" on="1"/>
        <pt x="307" y="698" on="1"/>
        <pt x="193" y="128" on="1"/>
        <pt x="449" y="128" on="1"/>
        <pt x="423" y="0" on="1"/>
      </contour>
    </TTGlyph>
    <TTGlyph name="Lacute" xMin="22" yMin="0" xMax="449" yMax="975">
      <component glyphName="L" x="0" y="0" flags="0x204"/>
      <component glyphName="acute.case" x="-58" y="0" flags="0x4"/>
    </TTGlyph>
    <TTGlyph name="Lambda" xMin="-36" yMin="0" xMax="570" yMax="698">
      <contour>
        <pt x="488" y="698" on="1"/>
        <pt x="570" y="0" on="1"/>
        <pt x="424" y="0" on="1"/>
        <pt x="399" y="269" on="1"/>
        <pt x="381" y="544" on="1"/>
        <pt x="374" y="544" on="1"/>
        <pt x="261" y="293" on="1"/>
        <pt x="118" y="0" on="1"/>
        <pt x="-36" y="0" on="1"/>
        <pt x="325" y="698" on="1"/>
      </contour>
    </TTGlyph>
    <TTGlyph name="Lcaron" xMin="22" yMin="0" xMax="543" yMax="740">
      <component glyphName="L" x="0" y="0" flags="0x204"/>
      <component glyphName="uni02BC" x="86" y="0" flags="0x4"/>
    </TTGlyph>
    <TTGlyph name="Lcommaaccent" xMin="22" yMin="-275" xMax="449" yMax="698">
      <component glyphName="L" x="0" y="0" flags="0x204"/>
      <component glyphName="uni0326" x="222" y="0" flags="0x4"/>
    </TTGlyph>
    <TTGlyph name="Ldot" xMin="22" yMin="0" xMax="519" yMax="698">
      <component glyphName="L" x="0" y="0" flags="0x4"/>
      <component glyphName="dotaccent" x="111" y="-281" flags="0x4"/>
    </TTGlyph>
    <TTGlyph name="Lslash" xMin="-3" yMin="0" xMax="455" yMax="698">
      <contour>
        <pt x="429" y="0" on="1"/>
        <pt x="28" y="0" on="1"/>
        <pt x="77" y="246" on="1"/>
        <pt x="-3" y="223" on="1"/>
        <pt x="21" y="334" on="1"/>
        <pt x="99" y="357" on="1"/>
        <pt x="168" y="698" on="1"/>
        <pt x="313" y="698" on="1"/>
        <pt x="254" y="403" on="1"/>
        <pt x="424" y="454" on="1"/>
        <pt x="402" y="341" on="1"/>
        <pt x="231" y="291" on="1"/>
        <pt x="199" y="128" on="1"/>
        <pt x="455" y="128" on="1"/>
      </contour>
    </TTGlyph>
    <TTGlyph name="M" xMin="22" yMin="0" xMax="813" yMax="698">
      <contour>
        <pt x="628" y="461" on="1"/>
        <pt x="622" y="461" on="1"/>
        <pt x="526" y="327" on="1"/>
        <pt x="371" y="115" on="1"/>
        <pt x="297" y="342" on="1"/>
        <pt x="258" y="463" on="1"/>
        <pt x="253" y="463" on="1"/>
        <pt x="160" y="0" on="1"/>
        <pt x="22" y="0" on="1"/>
        <pt x="162" y="698" on="1"/>
        <pt x="314" y="698" on="1"/>
        <pt x="415" y="366" on="1"/>
        <pt x="419" y="366" on="1"/>
        <pt x="652" y="698" on="1"/>
        <pt x="813" y="698" on="1"/>
        <pt x="673" y="0" on="1"/>
        <pt x="535" y="0" on="1"/>
      </contour>
    </TTGlyph>
    <TTGlyph name="Mu" xMin="22" yMin="0" xMax="813" yMax="698">
      <component glyphName="M" x="0" y="0" flags="0x204"/>
    </TTGlyph>
    <TTGlyph name="N" xMin="22" yMin="0" xMax="712" yMax="698">
      <contour>
        <pt x="302" y="336" on="1"/>
        <pt x="260" y="475" on="1"/>
        <pt x="254" y="475" on="1"/>
        <pt x="159" y="0" on="1"/>
        <pt x="22" y="0" on="1"/>
        <pt x="162" y="698" on="1"/>
        <pt x="319" y="698" on="1"/>
        <pt x="432" y="362" on="1"/>
        <pt x="474" y="223" on="1"/>
        <pt x="480" y="223" on="1"/>
        <pt x="575" y="698" on="1"/>
        <pt x="712" y="698" on="1"/>
        <pt x="572" y="0" on="1"/>
        <pt x="415" y="0" on="1"/>
      </contour>
    </TTGlyph>
    <TTGlyph name="Nacute" xMin="22" yMin="0" xMax="712" yMax="975">
      <component glyphName="N" x="0" y="0" flags="0x204"/>
      <component glyphName="acute.case" x="143" y="0" flags="0x4"/>
    </TTGlyph>
    <TTGlyph name="Ncaron" xMin="22" yMin="0" xMax="712" yMax="963">
      <component glyphName="N" x="0" y="0" flags="0x204"/>
      <component glyphName="caron.case" x="143" y="0" flags="0x4"/>
    </TTGlyph>
    <TTGlyph name="Ncommaaccent" xMin="22" yMin="-275" xMax="712" yMax="698">
      <component glyphName="N" x="0" y="0" flags="0x204"/>
      <component glyphName="uni0326" x="297" y="0" flags="0x4"/>
    </TTGlyph>
    <TTGlyph name="Ntilde" xMin="22" yMin="0" xMax="712" yMax="910">
      <component glyphName="N" x="0" y="0" flags="0x204"/>
      <component glyphName="tilde.case" x="143" y="0" flags="0x4"/>
    </TTGlyph>
    <TTGlyph name="Nu" xMin="22" yMin="0" xMax="712" yMax="698">
      <component glyphName="N" x="0" y="0" flags="0x204"/>
    </TTGlyph>
    <TTGlyph name="O" xMin="57" yMin="-12" xMax="668" yMax="710">
      <contour>
        <pt x="308" y="-12" on="1"/>
        <pt x="258" y="-12" on="0"/>
        <pt x="167" y="21" on="0"/>
        <pt x="98" y="90" on="0"/>
        <pt x="57" y="197" on="0"/>
        <pt x="57" y="271" on="1"/>
        <pt x="57" y="361" on="0"/>
        <pt x="111" y="521" on="0"/>
        <pt x="207" y="641" on="0"/>
        <pt x="339" y="710" on="0"/>
        <pt x="417" y="710" on="1"/>
        <pt x="467" y="710" on="0"/>
        <pt x="558" y="677" on="0"/>
        <pt x="627" y="608" on="0"/>
        <pt x="668" y="501" on="0"/>
        <pt x="668" y="427" on="1"/>
        <pt x="668" y="337" on="0"/>
        <pt x="614" y="177" on="0"/>
        <pt x="518" y="57" on="0"/>
        <pt x="386" y="-12" on="0"/>
      </contour>
      <contour>
        <pt x="318" y="117" on="1"/>
        <pt x="388" y="117" on="0"/>
        <pt x="478" y="211" on="0"/>
        <pt x="495" y="296" on="1"/>
        <pt x="516" y="401" on="1"/>
        <pt x="519" y="417" on="0"/>
        <pt x="521" y="442" on="0"/>
        <pt x="521" y="453" on="1"/>
        <pt x="521" y="581" on="0"/>
        <pt x="407" y="581" on="1"/>
        <pt x="337" y="581" on="0"/>
        <pt x="247" y="487" on="0"/>
        <pt x="230" y="402" on="1"/>
        <pt x="209" y="297" on="1"/>
        <pt x="206" y="282" on="0"/>
        <pt x="204" y="256" on="0"/>
        <pt x="204" y="245" on="1"/>
        <pt x="204" y="117" on="0"/>
      </contour>
    </TTGlyph>
    <TTGlyph name="OE" xMin="57" yMin="-12" xMax="990" yMax="710">
      <contour>
        <pt x="405" y="0" on="1"/>
        <pt x="379" y="-6" on="0"/>
        <pt x="326" y="-12" on="0"/>
        <pt x="302" y="-12" on="1"/>
        <pt x="250" y="-12" on="0"/>
        <pt x="160" y="23" on="0"/>
        <pt x="94" y="96" on="0"/>
        <pt x="57" y="208" on="0"/>
        <pt x="57" y="285" on="1"/>
        <pt x="57" y="376" on="0"/>
        <pt x="112" y="532" on="0"/>
        <pt x="210" y="646" on="0"/>
        <pt x="342" y="710" on="0"/>
        <pt x="419" y="710" on="1"/>
        <pt x="448" y="710" on="0"/>
        <pt x="517" y="704" on="0"/>
        <pt x="547" y="698" on="1"/>
        <pt x="990" y="698" on="1"/>
        <pt x="964" y="570" on="1"/>
        <pt x="661" y="570" on="1"/>
        <pt x="630" y="417" on="1"/>
        <pt x="898" y="417" on="1"/>
        <pt x="872" y="289" on="1"/>
        <pt x="604" y="289" on="1"/>
        <pt x="572" y="128" on="1"/>
        <pt x="886" y="128" on="1"/>
        <pt x="860" y="0" on="1"/>
      </contour>
      <contour>
        <pt x="334" y="117" on="1"/>
        <pt x="353" y="117" on="0"/>
        <pt x="404" y="123" on="0"/>
        <pt x="427" y="130" on="1"/>
        <pt x="515" y="567" on="1"/>
        <pt x="495" y="573" on="0"/>
        <pt x="437" y="581" on="0"/>
        <pt x="414" y="581" on="1"/>
        <pt x="334" y="581" on="0"/>
        <pt x="247" y="484" on="0"/>
        <pt x="231" y="402" on="1"/>
        <pt x="210" y="297" on="1"/>
        <pt x="208" y="284" on="0"/>
        <pt x="205" y="262" on="0"/>
        <pt x="205" y="248" on="1"/>
        <pt x="205" y="188" on="0"/>
        <pt x="267" y="117" on="0"/>
      </contour>
    </TTGlyph>
    <TTGlyph name="Oacute" xMin="57" yMin="-12" xMax="668" yMax="975">
      <component glyphName="O" x="0" y="0" flags="0x204"/>
      <component glyphName="acute.case" x="146" y="0" flags="0x4"/>
    </TTGlyph>
    <TTGlyph name="Obreve" xMin="57" yMin="-12" xMax="668" yMax="951">
      <component glyphName="O" x="0" y="0" flags="0x204"/>
      <component glyphName="breve.case" x="146" y="0" flags="0x4"/>
    </TTGlyph>
    <TTGlyph name="Ocircumflex" xMin="57" yMin="-12" xMax="668" yMax="954">
      <component glyphName="O" x="0" y="0" flags="0x204"/>
      <component glyphName="circumflex.case" x="146" y="0" flags="0x4"/>
    </TTGlyph>
    <TTGlyph name="Odieresis" xMin="57" yMin="-12" xMax="668" yMax="911">
      <component glyphName="O" x="0" y="0" flags="0x204"/>
      <component glyphName="dieresis.case" x="146" y="0" flags="0x4"/>
    </TTGlyph>
    <TTGlyph name="Ograve" xMin="57" yMin="-12" xMax="668" yMax="975">
      <component glyphName="O" x="0" y="0" flags="0x204"/>
      <component glyphName="grave.case" x="146" y="0" flags="0x4"/>
    </TTGlyph>
    <TTGlyph name="Ohorn" xMin="57" yMin="-12" xMax="769" yMax="804">
      <contour>
        <pt x="769" y="804" on="1"/>
        <pt x="750" y="709" on="1"/>
        <pt x="744" y="680" on="0"/>
        <pt x="727" y="642" on="0"/>
        <pt x="699" y="620" on="0"/>
        <pt x="658" y="610" on="0"/>
        <pt x="628" y="610" on="1"/>
        <pt x="617" y="610" on="1"/>
        <pt x="640" y="576" on="0"/>
        <pt x="668" y="487" on="0"/>
        <pt x="668" y="427" on="1"/>
        <pt x="668" y="337" on="0"/>
        <pt x="614" y="177" on="0"/>
        <pt x="518" y="57" on="0"/>
        <pt x="386" y="-12" on="0"/>
        <pt x="308" y="-12" on="1"/>
        <pt x="258" y="-12" on="0"/>
        <pt x="167" y="21" on="0"/>
        <pt x="98" y="90" on="0"/>
        <pt x="57" y="197" on="0"/>
        <pt x="57" y="271" on="1"/>
        <pt x="57" y="361" on="0"/>
        <pt x="111" y="521" on="0"/>
        <pt x="207" y="641" on="0"/>
        <pt x="339" y="710" on="0"/>
        <pt x="417" y="710" on="1"/>
        <pt x="461" y="710" on="0"/>
        <pt x="500" y="698" on="1"/>
        <pt x="623" y="698" on="1"/>
        <pt x="644" y="804" on="1"/>
      </contour>
      <contour>
        <pt x="318" y="117" on="1"/>
        <pt x="388" y="117" on="0"/>
        <pt x="478" y="211" on="0"/>
        <pt x="495" y="296" on="1"/>
        <pt x="516" y="401" on="1"/>
        <pt x="519" y="417" on="0"/>
        <pt x="521" y="442" on="0"/>
        <pt x="521" y="453" on="1"/>
        <pt x="521" y="581" on="0"/>
        <pt x="407" y="581" on="1"/>
        <pt x="337" y="581" on="0"/>
        <pt x="247" y="487" on="0"/>
        <pt x="230" y="402" on="1"/>
        <pt x="209" y="297" on="1"/>
        <pt x="206" y="281" on="0"/>
        <pt x="204" y="256" on="0"/>
        <pt x="204" y="245" on="1"/>
        <pt x="204" y="117" on="0"/>
      </contour>
    </TTGlyph>
    <TTGlyph name="Ohungarumlaut" xMin="57" yMin="-12" xMax="703" yMax="971">
      <component glyphName="O" x="0" y="0" flags="0x204"/>
      <component glyphName="hungarumlaut.case" x="146" y="0" flags="0x4"/>
    </TTGlyph>
    <TTGlyph name="Omacron" xMin="57" yMin="-12" xMax="668" yMax="887">
      <component glyphName="O" x="0" y="0" flags="0x204"/>
      <component glyphName="macron.case" x="146" y="0" flags="0x4"/>
    </TTGlyph>
    <TTGlyph name="Omega" xMin="-8" yMin="0" xMax="677" yMax="710">
      <contour>
        <pt x="18" y="128" on="1"/>
        <pt x="175" y="128" on="1"/>
        <pt x="177" y="138" on="1"/>
        <pt x="126" y="169" on="0"/>
        <pt x="74" y="280" on="0"/>
        <pt x="74" y="361" on="1"/>
        <pt x="74" y="432" on="0"/>
        <pt x="123" y="559" on="0"/>
        <pt x="214" y="654" on="0"/>
        <pt x="341" y="710" on="0"/>
        <pt x="419" y="710" on="1"/>
        <pt x="480" y="710" on="0"/>
        <pt x="576" y="671" on="0"/>
        <pt x="642" y="602" on="0"/>
        <pt x="677" y="508" on="0"/>
        <pt x="677" y="453" on="1"/>
        <pt x="677" y="400" on="0"/>
        <pt x="651" y="302" on="0"/>
        <pt x="598" y="220" on="0"/>
        <pt x="521" y="157" on="0"/>
        <pt x="470" y="138" on="1"/>
        <pt x="468" y="128" on="1"/>
        <pt x="623" y="128" on="1"/>
        <pt x="597" y="0" on="1"/>
        <pt x="337" y="0" on="1"/>
        <pt x="377" y="190" on="1"/>
        <pt x="432" y="207" on="0"/>
        <pt x="498" y="294" on="0"/>
        <pt x="508" y="345" on="1"/>
        <pt x="524" y="432" on="1"/>
        <pt x="526" y="440" on="0"/>
        <pt x="527" y="458" on="0"/>
        <pt x="527" y="466" on="1"/>
        <pt x="527" y="488" on="0"/>
        <pt x="512" y="529" on="0"/>
        <pt x="482" y="560" on="0"/>
        <pt x="436" y="578" on="0"/>
        <pt x="404" y="578" on="1"/>
        <pt x="367" y="578" on="0"/>
        <pt x="308" y="553" on="0"/>
        <pt x="266" y="512" on="0"/>
        <pt x="240" y="459" on="0"/>
        <pt x="235" y="432" on="1"/>
        <pt x="223" y="365" on="1"/>
        <pt x="220" y="349" on="0"/>
        <pt x="217" y="321" on="0"/>
        <pt x="217" y="305" on="1"/>
        <pt x="217" y="271" on="0"/>
        <pt x="257" y="203" on="0"/>
        <pt x="292" y="190" on="1"/>
        <pt x="252" y="0" on="1"/>
        <pt x="-8" y="0" on="1"/>
      </contour>
    </TTGlyph>
    <TTGlyph name="Omegatonos" xMin="49" yMin="0" xMax="734" yMax="815">
      <component glyphName="Omega" x="57" y="0" flags="0x4"/>
      <component glyphName="tonos.case" x="-279" y="0" flags="0x4"/>
    </TTGlyph>
    <TTGlyph name="Omicron" xMin="57" yMin="-12" xMax="668" yMax="710">
      <component glyphName="O" x="0" y="0" flags="0x204"/>
    </TTGlyph>
    <TTGlyph name="Omicrontonos" xMin="49" yMin="-12" xMax="713" yMax="815">
      <component glyphName="O" x="45" y="0" flags="0x4"/>
      <component glyphName="tonos.case" x="-279" y="0" flags="0x4"/>
    </TTGlyph>
    <TTGlyph name="Oslash" xMin="2" yMin="-60" xMax="723" yMax="758">
      <contour>
        <pt x="308" y="-12" on="1"/>
        <pt x="266" y="-12" on="0"/>
        <pt x="190" y="10" on="0"/>
        <pt x="158" y="33" on="1"/>
        <pt x="79" y="-60" on="1"/>
        <pt x="2" y="7" on="1"/>
        <pt x="91" y="111" on="1"/>
        <pt x="75" y="143" on="0"/>
        <pt x="57" y="222" on="0"/>
        <pt x="57" y="271" on="1"/>
        <pt x="57" y="361" on="0"/>
        <pt x="111" y="521" on="0"/>
        <pt x="207" y="641" on="0"/>
        <pt x="339" y="710" on="0"/>
        <pt x="417" y="710" on="1"/>
        <pt x="459" y="710" on="0"/>
        <pt x="535" y="688" on="0"/>
        <pt x="567" y="665" on="1"/>
        <pt x="646" y="758" on="1"/>
        <pt x="723" y="691" on="1"/>
        <pt x="634" y="587" on="1"/>
        <pt x="650" y="555" on="0"/>
        <pt x="668" y="476" on="0"/>
        <pt x="668" y="427" on="1"/>
        <pt x="668" y="337" on="0"/>
        <pt x="614" y="177" on="0"/>
        <pt x="518" y="57" on="0"/>
        <pt x="386" y="-12" on="0"/>
      </contour>
      <contour>
        <pt x="205" y="296" on="1"/>
        <pt x="202" y="281" on="0"/>
        <pt x="198" y="252" on="0"/>
        <pt x="198" y="240" on="1"/>
        <pt x="198" y="236" on="0"/>
        <pt x="198" y="226" on="0"/>
        <pt x="199" y="221" on="1"/>
        <pt x="488" y="558" on="1"/>
        <pt x="456" y="587" on="0"/>
        <pt x="408" y="587" on="1"/>
        <pt x="336" y="587" on="0"/>
        <pt x="244" y="493" on="0"/>
        <pt x="227" y="405" on="1"/>
      </contour>
      <contour>
        <pt x="317" y="111" on="1"/>
        <pt x="389" y="111" on="0"/>
        <pt x="481" y="205" on="0"/>
        <pt x="498" y="293" on="1"/>
        <pt x="520" y="402" on="1"/>
        <pt x="523" y="417" on="0"/>
        <pt x="527" y="446" on="0"/>
        <pt x="527" y="458" on="1"/>
        <pt x="527" y="462" on="0"/>
        <pt x="527" y="472" on="0"/>
        <pt x="526" y="477" on="1"/>
        <pt x="237" y="140" on="1"/>
        <pt x="269" y="111" on="0"/>
      </contour>
    </TTGlyph>
    <TTGlyph name="Oslashacute" xMin="2" yMin="-60" xMax="723" yMax="975">
      <component glyphName="Oslash" x="0" y="0" flags="0x204"/>
      <component glyphName="acute.case" x="144" y="0" flags="0x4"/>
    </TTGlyph>
    <TTGlyph name="Otilde" xMin="57" yMin="-12" xMax="668" yMax="910">
      <component glyphName="O" x="0" y="0" flags="0x204"/>
      <component glyphName="tilde.case" x="146" y="0" flags="0x4"/>
    </TTGlyph>
    <TTGlyph name="P" xMin="22" yMin="0" xMax="645" yMax="698">
      <contour>
        <pt x="22" y="0" on="1"/>
        <pt x="162" y="698" on="1"/>
        <pt x="425" y="698" on="1"/>
        <pt x="530" y="698" on="0"/>
        <pt x="645" y="600" on="0"/>
        <pt x="645" y="511" on="1"/>
        <pt x="645" y="454" on="0"/>
        <pt x="605" y="359" on="0"/>
        <pt x="533" y="292" on="0"/>
        <pt x="433" y="255" on="0"/>
        <pt x="374" y="255" on="1"/>
        <pt x="218" y="255" on="1"/>
        <pt x="167" y="0" on="1"/>
      </contour>
      <contour>
        <pt x="244" y="383" on="1"/>
        <pt x="393" y="383" on="1"/>
        <pt x="427" y="383" on="0"/>
        <pt x="476" y="419" on="0"/>
        <pt x="484" y="456" on="1"/>
        <pt x="489" y="479" on="0"/>
        <pt x="495" y="508" on="0"/>
        <pt x="495" y="516" on="1"/>
        <pt x="495" y="539" on="0"/>
        <pt x="464" y="570" on="0"/>
        <pt x="431" y="570" on="1"/>
        <pt x="281" y="570" on="1"/>
      </contour>
    </TTGlyph>
    <TTGlyph name="Phi" xMin="47" yMin="-44" xMax="808" yMax="740">
      <contour>
        <pt x="290" y="32" on="1"/>
        <pt x="289" y="32" on="1"/>
        <pt x="237" y="32" on="0"/>
        <pt x="148" y="65" on="0"/>
        <pt x="84" y="128" on="0"/>
        <pt x="47" y="219" on="0"/>
        <pt x="47" y="277" on="1"/>
        <pt x="47" y="369" on="0"/>
        <pt x="97" y="517" on="0"/>
        <pt x="192" y="620" on="0"/>
        <pt x="330" y="676" on="0"/>
        <pt x="419" y="676" on="1"/>
        <pt x="420" y="676" on="1"/>
        <pt x="433" y="740" on="1"/>
        <pt x="578" y="740" on="1"/>
        <pt x="565" y="676" on="1"/>
        <pt x="566" y="676" on="1"/>
        <pt x="618" y="676" on="0"/>
        <pt x="707" y="643" on="0"/>
        <pt x="772" y="580" on="0"/>
        <pt x="808" y="489" on="0"/>
        <pt x="808" y="431" on="1"/>
        <pt x="808" y="339" on="0"/>
        <pt x="758" y="191" on="0"/>
        <pt x="663" y="87" on="0"/>
        <pt x="525" y="32" on="0"/>
        <pt x="436" y="32" on="1"/>
        <pt x="435" y="32" on="1"/>
        <pt x="420" y="-44" on="1"/>
        <pt x="275" y="-44" on="1"/>
      </contour>
      <contour>
        <pt x="398" y="557" on="1"/>
        <pt x="397" y="557" on="1"/>
        <pt x="325" y="557" on="0"/>
        <pt x="229" y="476" on="0"/>
        <pt x="209" y="382" on="1"/>
        <pt x="200" y="338" on="1"/>
        <pt x="194" y="308" on="0"/>
        <pt x="194" y="277" on="1"/>
        <pt x="194" y="209" on="0"/>
        <pt x="256" y="151" on="0"/>
        <pt x="316" y="151" on="1"/>
        <pt x="317" y="151" on="1"/>
      </contour>
      <contour>
        <pt x="458" y="151" on="1"/>
        <pt x="530" y="151" on="0"/>
        <pt x="626" y="231" on="0"/>
        <pt x="646" y="326" on="1"/>
        <pt x="655" y="370" on="1"/>
        <pt x="661" y="400" on="0"/>
        <pt x="661" y="431" on="1"/>
        <pt x="661" y="499" on="0"/>
        <pt x="599" y="557" on="0"/>
        <pt x="539" y="557" on="1"/>
        <pt x="538" y="557" on="1"/>
        <pt x="457" y="151" on="1"/>
      </contour>
    </TTGlyph>
    <TTGlyph name="Pi" xMin="22" yMin="0" xMax="697" yMax="698">
      <component glyphName="uni041F" x="0" y="0" flags="0x204"/>
    </TTGlyph>
    <TTGlyph name="Psi" xMin="100" yMin="0" xMax="830" yMax="698">
      <contour>
        <pt x="314" y="176" on="1"/>
        <pt x="267" y="176" on="0"/>
        <pt x="188" y="207" on="0"/>
        <pt x="131" y="263" on="0"/>
        <pt x="100" y="340" on="0"/>
        <pt x="100" y="387" on="1"/>
        <pt x="100" y="408" on="0"/>
        <pt x="105" y="458" on="0"/>
        <pt x="111" y="488" on="1"/>
        <pt x="153" y="698" on="1"/>
        <pt x="298" y="698" on="1"/>
        <pt x="254" y="478" on="1"/>
        <pt x="246" y="442" on="0"/>
        <pt x="243" y="402" on="0"/>
        <pt x="243" y="387" on="1"/>
        <pt x="243" y="342" on="0"/>
        <pt x="292" y="295" on="0"/>
        <pt x="338" y="295" on="1"/>
        <pt x="419" y="698" on="1"/>
        <pt x="564" y="698" on="1"/>
        <pt x="483" y="295" on="1"/>
        <pt x="513" y="295" on="0"/>
        <pt x="561" y="310" on="0"/>
        <pt x="599" y="349" on="0"/>
        <pt x="627" y="415" on="0"/>
        <pt x="638" y="466" on="1"/>
        <pt x="685" y="698" on="1"/>
        <pt x="830" y="698" on="1"/>
        <pt x="783" y="465" on="1"/>
        <pt x="768" y="391" on="0"/>
        <pt x="716" y="282" on="0"/>
        <pt x="638" y="211" on="0"/>
        <pt x="530" y="176" on="0"/>
        <pt x="459" y="176" on="1"/>
        <pt x="424" y="0" on="1"/>
        <pt x="279" y="0" on="1"/>
      </contour>
    </TTGlyph>
    <TTGlyph name="Q" xMin="57" yMin="-183" xMax="668" yMax="710">
      <contour>
        <pt x="438" y="-183" on="1"/>
        <pt x="328" y="-183" on="1"/>
        <pt x="268" y="-183" on="0"/>
        <pt x="220" y="-136" on="0"/>
        <pt x="220" y="-93" on="1"/>
        <pt x="220" y="-80" on="0"/>
        <pt x="224" y="-54" on="0"/>
        <pt x="227" y="-40" on="1"/>
        <pt x="235" y="-2" on="1"/>
        <pt x="197" y="8" on="0"/>
        <pt x="132" y="50" on="0"/>
        <pt x="84" y="118" on="0"/>
        <pt x="57" y="211" on="0"/>
        <pt x="57" y="271" on="1"/>
        <pt x="57" y="361" on="0"/>
        <pt x="111" y="521" on="0"/>
        <pt x="207" y="641" on="0"/>
        <pt x="339" y="710" on="0"/>
        <pt x="417" y="710" on="1"/>
        <pt x="467" y="710" on="0"/>
        <pt x="558" y="677" on="0"/>
        <pt x="627" y="608" on="0"/>
        <pt x="668" y="501" on="0"/>
        <pt x="668" y="427" on="1"/>
        <pt x="668" y="344" on="0"/>
        <pt x="623" y="196" on="0"/>
        <pt x="542" y="80" on="0"/>
        <pt x="428" y="4" on="0"/>
        <pt x="360" y="-7" on="1"/>
        <pt x="349" y="-65" on="1"/>
        <pt x="460" y="-65" on="1"/>
      </contour>
      <contour>
        <pt x="318" y="117" on="1"/>
        <pt x="388" y="117" on="0"/>
        <pt x="478" y="211" on="0"/>
        <pt x="495" y="296" on="1"/>
        <pt x="516" y="401" on="1"/>
        <pt x="519" y="417" on="0"/>
        <pt x="521" y="442" on="0"/>
        <pt x="521" y="453" on="1"/>
        <pt x="521" y="581" on="0"/>
        <pt x="407" y="581" on="1"/>
        <pt x="337" y="581" on="0"/>
        <pt x="247" y="487" on="0"/>
        <pt x="230" y="402" on="1"/>
        <pt x="209" y="297" on="1"/>
        <pt x="206" y="281" on="0"/>
        <pt x="204" y="256" on="0"/>
        <pt x="204" y="245" on="1"/>
        <pt x="204" y="117" on="0"/>
      </contour>
    </TTGlyph>
    <TTGlyph name="R" xMin="22" yMin="0" xMax="645" yMax="698">
      <contour>
        <pt x="167" y="0" on="1"/>
        <pt x="22" y="0" on="1"/>
        <pt x="162" y="698" on="1"/>
        <pt x="434" y="698" on="1"/>
        <pt x="534" y="698" on="0"/>
        <pt x="645" y="604" on="0"/>
        <pt x="645" y="518" on="1"/>
        <pt x="645" y="479" on="0"/>
        <pt x="623" y="404" on="0"/>
        <pt x="579" y="339" on="0"/>
        <pt x="516" y="290" on="0"/>
        <pt x="474" y="276" on="1"/>
        <pt x="558" y="0" on="1"/>
        <pt x="403" y="0" on="1"/>
        <pt x="334" y="259" on="1"/>
        <pt x="219" y="259" on="1"/>
      </contour>
      <contour>
        <pt x="393" y="383" on="1"/>
        <pt x="427" y="383" on="0"/>
        <pt x="476" y="419" on="0"/>
        <pt x="484" y="456" on="1"/>
        <pt x="489" y="479" on="0"/>
        <pt x="495" y="508" on="0"/>
        <pt x="495" y="516" on="1"/>
        <pt x="495" y="539" on="0"/>
        <pt x="464" y="570" on="0"/>
        <pt x="431" y="570" on="1"/>
        <pt x="281" y="570" on="1"/>
        <pt x="244" y="383" on="1"/>
      </contour>
    </TTGlyph>
    <TTGlyph name="Racute" xMin="22" yMin="0" xMax="645" yMax="975">
      <component glyphName="R" x="0" y="0" flags="0x204"/>
      <component glyphName="acute.case" x="94" y="0" flags="0x4"/>
    </TTGlyph>
    <TTGlyph name="Rcaron" xMin="22" yMin="0" xMax="645" yMax="963">
      <component glyphName="R" x="0" y="0" flags="0x204"/>
      <component glyphName="caron.case" x="94" y="0" flags="0x4"/>
    </TTGlyph>
    <TTGlyph name="Rcommaaccent" xMin="22" yMin="-275" xMax="645" yMax="698">
      <component glyphName="R" x="0" y="0" flags="0x204"/>
      <component glyphName="uni0326" x="284" y="0" flags="0x4"/>
    </TTGlyph>
    <TTGlyph name="Rho" xMin="22" yMin="0" xMax="645" yMax="698">
      <component glyphName="P" x="0" y="0" flags="0x204"/>
    </TTGlyph>
    <TTGlyph name="S" xMin="-5" yMin="-12" xMax="603" yMax="710">
      <contour>
        <pt x="255" y="-12" on="1"/>
        <pt x="168" y="-12" on="0"/>
        <pt x="33" y="44" on="0"/>
        <pt x="-5" y="112" on="1"/>
        <pt x="106" y="199" on="1"/>
        <pt x="132" y="157" on="0"/>
        <pt x="201" y="117" on="0"/>
        <pt x="255" y="117" on="1"/>
        <pt x="318" y="117" on="0"/>
        <pt x="388" y="173" on="0"/>
        <pt x="388" y="217" on="1"/>
        <pt x="388" y="249" on="0"/>
        <pt x="342" y="281" on="0"/>
        <pt x="308" y="289" on="1"/>
        <pt x="262" y="299" on="1"/>
        <pt x="224" y="307" on="0"/>
        <pt x="162" y="336" on="0"/>
        <pt x="118" y="381" on="0"/>
        <pt x="95" y="443" on="0"/>
        <pt x="95" y="485" on="1"/>
        <pt x="95" y="533" on="0"/>
        <pt x="134" y="615" on="0"/>
        <pt x="204" y="675" on="0"/>
        <pt x="304" y="710" on="0"/>
        <pt x="364" y="710" on="1"/>
        <pt x="442" y="710" on="0"/>
        <pt x="567" y="661" on="0"/>
        <pt x="603" y="613" on="1"/>
        <pt x="498" y="519" on="1"/>
        <pt x="474" y="552" on="0"/>
        <pt x="411" y="581" on="0"/>
        <pt x="358" y="581" on="1"/>
        <pt x="304" y="581" on="0"/>
        <pt x="241" y="535" on="0"/>
        <pt x="241" y="498" on="1"/>
        <pt x="241" y="468" on="0"/>
        <pt x="280" y="438" on="0"/>
        <pt x="316" y="430" on="1"/>
        <pt x="360" y="420" on="1"/>
        <pt x="400" y="411" on="0"/>
        <pt x="466" y="381" on="0"/>
        <pt x="512" y="336" on="0"/>
        <pt x="538" y="274" on="0"/>
        <pt x="538" y="233" on="1"/>
        <pt x="538" y="188" on="0"/>
        <pt x="499" y="100" on="0"/>
        <pt x="426" y="31" on="0"/>
        <pt x="321" y="-12" on="0"/>
      </contour>
    </TTGlyph>
    <TTGlyph name="Sacute" xMin="-5" yMin="-12" xMax="603" yMax="975">
      <component glyphName="S" x="0" y="0" flags="0x204"/>
      <component glyphName="acute.case" x="62" y="0" flags="0x4"/>
    </TTGlyph>
    <TTGlyph name="Scaron" xMin="-5" yMin="-12" xMax="603" yMax="963">
      <component glyphName="S" x="0" y="0" flags="0x204"/>
      <component glyphName="caron.case" x="62" y="0" flags="0x4"/>
    </TTGlyph>
    <TTGlyph name="Scedilla" xMin="-5" yMin="-212" xMax="603" yMax="710">
      <contour>
        <pt x="358" y="581" on="1"/>
        <pt x="304" y="581" on="0"/>
        <pt x="241" y="535" on="0"/>
        <pt x="241" y="498" on="1"/>
        <pt x="241" y="468" on="0"/>
        <pt x="280" y="438" on="0"/>
        <pt x="316" y="430" on="1"/>
        <pt x="360" y="420" on="1"/>
        <pt x="400" y="411" on="0"/>
        <pt x="466" y="381" on="0"/>
        <pt x="512" y="336" on="0"/>
        <pt x="538" y="274" on="0"/>
        <pt x="538" y="233" on="1"/>
        <pt x="538" y="190" on="0"/>
        <pt x="503" y="106" on="0"/>
        <pt x="436" y="38" on="0"/>
        <pt x="339" y="-7" on="0"/>
        <pt x="278" y="-11" on="1"/>
        <pt x="260" y="-55" on="1"/>
        <pt x="262" y="-59" on="1"/>
        <pt x="284" y="-52" on="0"/>
        <pt x="305" y="-52" on="1"/>
        <pt x="331" y="-52" on="0"/>
        <pt x="367" y="-82" on="0"/>
        <pt x="367" y="-108" on="1"/>
        <pt x="367" y="-134" on="0"/>
        <pt x="344" y="-173" on="0"/>
        <pt x="305" y="-199" on="0"/>
        <pt x="253" y="-212" on="0"/>
        <pt x="223" y="-212" on="1"/>
        <pt x="181" y="-212" on="0"/>
        <pt x="125" y="-185" on="0"/>
        <pt x="112" y="-166" on="1"/>
        <pt x="164" y="-114" on="1"/>
        <pt x="170" y="-123" on="0"/>
        <pt x="200" y="-142" on="0"/>
        <pt x="222" y="-142" on="1"/>
        <pt x="243" y="-142" on="0"/>
        <pt x="272" y="-128" on="0"/>
        <pt x="272" y="-111" on="1"/>
        <pt x="272" y="-99" on="0"/>
        <pt x="244" y="-79" on="0"/>
        <pt x="206" y="-75" on="1"/>
        <pt x="184" y="-73" on="1"/>
        <pt x="211" y="-10" on="1"/>
        <pt x="139" y="-4" on="0"/>
        <pt x="28" y="52" on="0"/>
        <pt x="-5" y="112" on="1"/>
        <pt x="106" y="199" on="1"/>
        <pt x="132" y="157" on="0"/>
        <pt x="201" y="117" on="0"/>
        <pt x="255" y="117" on="1"/>
        <pt x="318" y="117" on="0"/>
        <pt x="388" y="173" on="0"/>
        <pt x="388" y="217" on="1"/>
        <pt x="388" y="249" on="0"/>
        <pt x="342" y="281" on="0"/>
        <pt x="308" y="289" on="1"/>
        <pt x="262" y="299" on="1"/>
        <pt x="224" y="307" on="0"/>
        <pt x="162" y="336" on="0"/>
        <pt x="118" y="381" on="0"/>
        <pt x="95" y="443" on="0"/>
        <pt x="95" y="485" on="1"/>
        <pt x="95" y="533" on="0"/>
        <pt x="134" y="615" on="0"/>
        <pt x="204" y="675" on="0"/>
        <pt x="304" y="710" on="0"/>
        <pt x="364" y="710" on="1"/>
        <pt x="442" y="710" on="0"/>
        <pt x="567" y="661" on="0"/>
        <pt x="603" y="613" on="1"/>
        <pt x="498" y="519" on="1"/>
        <pt x="474" y="552" on="0"/>
        <pt x="411" y="581" on="0"/>
      </contour>
    </TTGlyph>
    <TTGlyph name="Scircumflex" xMin="-5" yMin="-12" xMax="603" yMax="954">
      <component glyphName="S" x="0" y="0" flags="0x204"/>
      <component glyphName="circumflex.case" x="62" y="0" flags="0x4"/>
    </TTGlyph>
    <TTGlyph name="Scommaaccent" xMin="-5" yMin="-275" xMax="603" yMax="710">
      <component glyphName="S" x="0" y="0" flags="0x204"/>
      <component glyphName="uni0326" x="247" y="0" flags="0x4"/>
    </TTGlyph>
    <TTGlyph name="Sigma" xMin="-9" yMin="0" xMax="636" yMax="698">
      <contour>
        <pt x="-9" y="0" on="1"/>
        <pt x="17" y="128" on="1"/>
        <pt x="283" y="355" on="1"/>
        <pt x="115" y="570" on="1"/>
        <pt x="141" y="698" on="1"/>
        <pt x="636" y="698" on="1"/>
        <pt x="610" y="570" on="1"/>
        <pt x="276" y="570" on="1"/>
        <pt x="453" y="344" on="1"/>
        <pt x="200" y="128" on="1"/>
        <pt x="522" y="128" on="1"/>
        <pt x="496" y="0" on="1"/>
      </contour>
    </TTGlyph>
    <TTGlyph name="T" xMin="89" yMin="0" xMax="628" yMax="698">
      <contour>
        <pt x="418" y="570" on="1"/>
        <pt x="304" y="0" on="1"/>
        <pt x="159" y="0" on="1"/>
        <pt x="273" y="570" on="1"/>
        <pt x="89" y="570" on="1"/>
        <pt x="115" y="698" on="1"/>
        <pt x="628" y="698" on="1"/>
        <pt x="602" y="570" on="1"/>
      </contour>
    </TTGlyph>
    <TTGlyph name="Tau" xMin="89" yMin="0" xMax="628" yMax="698">
      <component glyphName="T" x="0" y="0" flags="0x204"/>
    </TTGlyph>
    <TTGlyph name="Tbar" xMin="75" yMin="0" xMax="629" yMax="698">
      <contour>
        <pt x="361" y="280" on="1"/>
        <pt x="305" y="0" on="1"/>
        <pt x="160" y="0" on="1"/>
        <pt x="216" y="280" on="1"/>
        <pt x="75" y="280" on="1"/>
        <pt x="97" y="386" on="1"/>
        <pt x="238" y="386" on="1"/>
        <pt x="274" y="570" on="1"/>
        <pt x="90" y="570" on="1"/>
        <pt x="116" y="698" on="1"/>
        <pt x="629" y="698" on="1"/>
        <pt x="603" y="570" on="1"/>
        <pt x="419" y="570" on="1"/>
        <pt x="383" y="386" on="1"/>
        <pt x="525" y="386" on="1"/>
        <pt x="503" y="280" on="1"/>
      </contour>
    </TTGlyph>
    <TTGlyph name="Tcaron" xMin="89" yMin="0" xMax="628" yMax="963">
      <component glyphName="T" x="0" y="0" flags="0x204"/>
      <component glyphName="caron.case" x="78" y="0" flags="0x4"/>
    </TTGlyph>
    <TTGlyph name="Theta" xMin="57" yMin="-12" xMax="678" yMax="710">
      <contour>
        <pt x="313" y="-12" on="1"/>
        <pt x="261" y="-12" on="0"/>
        <pt x="168" y="21" on="0"/>
        <pt x="98" y="90" on="0"/>
        <pt x="57" y="197" on="0"/>
        <pt x="57" y="271" on="1"/>
        <pt x="57" y="361" on="0"/>
        <pt x="111" y="521" on="0"/>
        <pt x="208" y="641" on="0"/>
        <pt x="342" y="710" on="0"/>
        <pt x="422" y="710" on="1"/>
        <pt x="474" y="710" on="0"/>
        <pt x="567" y="677" on="0"/>
        <pt x="637" y="608" on="0"/>
        <pt x="678" y="501" on="0"/>
        <pt x="678" y="427" on="1"/>
        <pt x="678" y="337" on="0"/>
        <pt x="624" y="177" on="0"/>
        <pt x="527" y="57" on="0"/>
        <pt x="393" y="-12" on="0"/>
      </contour>
      <contour>
        <pt x="323" y="117" on="1"/>
        <pt x="397" y="117" on="0"/>
        <pt x="488" y="211" on="0"/>
        <pt x="505" y="296" on="1"/>
        <pt x="526" y="401" on="1"/>
        <pt x="529" y="417" on="0"/>
        <pt x="531" y="442" on="0"/>
        <pt x="531" y="453" on="1"/>
        <pt x="531" y="581" on="0"/>
        <pt x="412" y="581" on="1"/>
        <pt x="338" y="581" on="0"/>
        <pt x="247" y="487" on="0"/>
        <pt x="230" y="402" on="1"/>
        <pt x="209" y="297" on="1"/>
        <pt x="206" y="281" on="0"/>
        <pt x="204" y="256" on="0"/>
        <pt x="204" y="245" on="1"/>
        <pt x="204" y="117" on="0"/>
      </contour>
      <contour>
        <pt x="261" y="289" on="1"/>
        <pt x="287" y="417" on="1"/>
        <pt x="475" y="417" on="1"/>
        <pt x="449" y="289" on="1"/>
      </contour>
    </TTGlyph>
    <TTGlyph name="Thorn" xMin="22" yMin="0" xMax="623" yMax="698">
      <contour>
        <pt x="22" y="0" on="1"/>
        <pt x="162" y="698" on="1"/>
        <pt x="307" y="698" on="1"/>
        <pt x="283" y="577" on="1"/>
        <pt x="403" y="577" on="1"/>
        <pt x="508" y="577" on="0"/>
        <pt x="623" y="479" on="0"/>
        <pt x="623" y="390" on="1"/>
        <pt x="623" y="333" on="0"/>
        <pt x="583" y="238" on="0"/>
        <pt x="511" y="171" on="0"/>
        <pt x="411" y="134" on="0"/>
        <pt x="352" y="134" on="1"/>
        <pt x="193" y="134" on="1"/>
        <pt x="168" y="0" on="1"/>
      </contour>
      <contour>
        <pt x="220" y="262" on="1"/>
        <pt x="370" y="262" on="1"/>
        <pt x="404" y="262" on="0"/>
        <pt x="453" y="297" on="0"/>
        <pt x="461" y="332" on="1"/>
        <pt x="468" y="360" on="0"/>
        <pt x="473" y="387" on="0"/>
        <pt x="473" y="395" on="1"/>
        <pt x="473" y="418" on="0"/>
        <pt x="442" y="449" on="0"/>
        <pt x="408" y="449" on="1"/>
        <pt x="256" y="449" on="1"/>
      </contour>
    </TTGlyph>
    <TTGlyph name="U" xMin="72" yMin="-12" xMax="690" yMax="698">
      <contour>
        <pt x="303" y="698" on="1"/>
        <pt x="219" y="280" on="1"/>
        <pt x="216" y="266" on="0"/>
        <pt x="212" y="231" on="0"/>
        <pt x="212" y="217" on="1"/>
        <pt x="212" y="117" on="0"/>
        <pt x="314" y="117" on="1"/>
        <pt x="374" y="117" on="0"/>
        <pt x="444" y="189" on="0"/>
        <pt x="460" y="267" on="1"/>
        <pt x="547" y="698" on="1"/>
        <pt x="690" y="698" on="1"/>
        <pt x="605" y="275" on="1"/>
        <pt x="590" y="201" on="0"/>
        <pt x="543" y="93" on="0"/>
        <pt x="471" y="23" on="0"/>
        <pt x="373" y="-12" on="0"/>
        <pt x="308" y="-12" on="1"/>
        <pt x="193" y="-12" on="0"/>
        <pt x="72" y="102" on="0"/>
        <pt x="72" y="214" on="1"/>
        <pt x="72" y="234" on="0"/>
        <pt x="76" y="277" on="0"/>
        <pt x="81" y="303" on="1"/>
        <pt x="160" y="698" on="1"/>
      </contour>
    </TTGlyph>
    <TTGlyph name="Uacute" xMin="72" yMin="-12" xMax="690" yMax="975">
      <component glyphName="U" x="0" y="0" flags="0x204"/>
      <component glyphName="acute.case" x="128" y="0" flags="0x4"/>
    </TTGlyph>
    <TTGlyph name="Ubreve" xMin="72" yMin="-12" xMax="690" yMax="951">
      <component glyphName="U" x="0" y="0" flags="0x204"/>
      <component glyphName="breve.case" x="128" y="0" flags="0x4"/>
    </TTGlyph>
    <TTGlyph name="Ucircumflex" xMin="72" yMin="-12" xMax="690" yMax="954">
      <component glyphName="U" x="0" y="0" flags="0x204"/>
      <component glyphName="circumflex.case" x="128" y="0" flags="0x4"/>
    </TTGlyph>
    <TTGlyph name="Udieresis" xMin="72" yMin="-12" xMax="690" yMax="911">
      <component glyphName="U" x="0" y="0" flags="0x204"/>
      <component glyphName="dieresis.case" x="128" y="0" flags="0x4"/>
    </TTGlyph>
    <TTGlyph name="Ugrave" xMin="72" yMin="-12" xMax="690" yMax="975">
      <component glyphName="U" x="0" y="0" flags="0x204"/>
      <component glyphName="grave.case" x="128" y="0" flags="0x4"/>
    </TTGlyph>
    <TTGlyph name="Uhorn" xMin="72" yMin="-12" xMax="776" yMax="804">
      <contour>
        <pt x="303" y="698" on="1"/>
        <pt x="219" y="280" on="1"/>
        <pt x="216" y="266" on="0"/>
        <pt x="212" y="231" on="0"/>
        <pt x="212" y="217" on="1"/>
        <pt x="212" y="117" on="0"/>
        <pt x="314" y="117" on="1"/>
        <pt x="374" y="117" on="0"/>
        <pt x="444" y="189" on="0"/>
        <pt x="460" y="267" on="1"/>
        <pt x="547" y="698" on="1"/>
        <pt x="630" y="698" on="1"/>
        <pt x="651" y="804" on="1"/>
        <pt x="776" y="804" on="1"/>
        <pt x="757" y="708" on="1"/>
        <pt x="748" y="660" on="0"/>
        <pt x="704" y="613" on="0"/>
        <pt x="673" y="613" on="1"/>
        <pt x="605" y="275" on="1"/>
        <pt x="590" y="201" on="0"/>
        <pt x="543" y="93" on="0"/>
        <pt x="471" y="23" on="0"/>
        <pt x="373" y="-12" on="0"/>
        <pt x="308" y="-12" on="1"/>
        <pt x="193" y="-12" on="0"/>
        <pt x="72" y="102" on="0"/>
        <pt x="72" y="214" on="1"/>
        <pt x="72" y="234" on="0"/>
        <pt x="76" y="277" on="0"/>
        <pt x="81" y="303" on="1"/>
        <pt x="160" y="698" on="1"/>
      </contour>
    </TTGlyph>
    <TTGlyph name="Uhungarumlaut" xMin="72" yMin="-12" xMax="690" yMax="971">
      <component glyphName="U" x="0" y="0" flags="0x204"/>
      <component glyphName="hungarumlaut.case" x="128" y="0" flags="0x4"/>
    </TTGlyph>
    <TTGlyph name="Umacron" xMin="72" yMin="-12" xMax="690" yMax="887">
      <component glyphName="U" x="0" y="0" flags="0x204"/>
      <component glyphName="macron.case" x="128" y="0" flags="0x4"/>
    </TTGlyph>
    <TTGlyph name="Uogonek" xMin="72" yMin="-212" xMax="690" yMax="698">
      <contour>
        <pt x="303" y="698" on="1"/>
        <pt x="219" y="280" on="1"/>
        <pt x="216" y="266" on="0"/>
        <pt x="212" y="231" on="0"/>
        <pt x="212" y="217" on="1"/>
        <pt x="212" y="117" on="0"/>
        <pt x="314" y="117" on="1"/>
        <pt x="374" y="117" on="0"/>
        <pt x="444" y="189" on="0"/>
        <pt x="460" y="267" on="1"/>
        <pt x="547" y="698" on="1"/>
        <pt x="690" y="698" on="1"/>
        <pt x="605" y="275" on="1"/>
        <pt x="590" y="201" on="0"/>
        <pt x="552" y="110" on="0"/>
        <pt x="501" y="50" on="0"/>
        <pt x="435" y="11" on="0"/>
        <pt x="393" y="-10" on="1"/>
        <pt x="359" y="-26" on="0"/>
        <pt x="316" y="-56" on="0"/>
        <pt x="292" y="-82" on="0"/>
        <pt x="283" y="-104" on="0"/>
        <pt x="283" y="-111" on="1"/>
        <pt x="283" y="-123" on="0"/>
        <pt x="298" y="-140" on="0"/>
        <pt x="318" y="-140" on="1"/>
        <pt x="334" y="-140" on="0"/>
        <pt x="362" y="-129" on="0"/>
        <pt x="372" y="-113" on="1"/>
        <pt x="424" y="-162" on="1"/>
        <pt x="405" y="-185" on="0"/>
        <pt x="347" y="-212" on="0"/>
        <pt x="299" y="-212" on="1"/>
        <pt x="249" y="-212" on="0"/>
        <pt x="180" y="-170" on="0"/>
        <pt x="180" y="-129" on="1"/>
        <pt x="180" y="-95" on="0"/>
        <pt x="233" y="-33" on="0"/>
        <pt x="293" y="-16" on="1"/>
        <pt x="292" y="-12" on="1"/>
        <pt x="185" y="-8" on="0"/>
        <pt x="72" y="105" on="0"/>
        <pt x="72" y="214" on="1"/>
        <pt x="72" y="234" on="0"/>
        <pt x="76" y="277" on="0"/>
        <pt x="81" y="303" on="1"/>
        <pt x="160" y="698" on="1"/>
      </contour>
    </TTGlyph>
    <TTGlyph name="Upsilon" xMin="91" yMin="0" xMax="701" yMax="698">
      <component glyphName="Y" x="0" y="0" flags="0x204"/>
    </TTGlyph>
    <TTGlyph name="Upsilondieresis" xMin="91" yMin="0" xMax="701" yMax="911">
      <component glyphName="Y" x="0" y="0" flags="0x204"/>
      <component glyphName="dieresis.case" x="89" y="0" flags="0x4"/>
    </TTGlyph>
    <TTGlyph name="Upsilontonos" xMin="49" yMin="0" xMax="842" yMax="815">
      <component glyphName="Y" x="141" y="0" flags="0x4"/>
      <component glyphName="tonos.case" x="-279" y="0" flags="0x4"/>
    </TTGlyph>
    <TTGlyph name="Uring" xMin="72" yMin="-12" xMax="690" yMax="1005">
      <component glyphName="U" x="0" y="0" flags="0x204"/>
      <component glyphName="ring.case" x="128" y="0" flags="0x4"/>
    </TTGlyph>
    <TTGlyph name="Utilde" xMin="72" yMin="-12" xMax="690" yMax="910">
      <component glyphName="U" x="0" y="0" flags="0x204"/>
      <component glyphName="tilde.case" x="128" y="0" flags="0x4"/>
    </TTGlyph>
    <TTGlyph name="V" xMin="99" yMin="0" xMax="705" yMax="698">
      <contour>
        <pt x="181" y="0" on="1"/>
        <pt x="99" y="698" on="1"/>
        <pt x="245" y="698" on="1"/>
        <pt x="270" y="429" on="1"/>
        <pt x="288" y="154" on="1"/>
        <pt x="295" y="154" on="1"/>
        <pt x="408" y="405" on="1"/>
        <pt x="551" y="698" on="1"/>
        <pt x="705" y="698" on="1"/>
        <pt x="344" y="0" on="1"/>
      </contour>
    </TTGlyph>
    <TTGlyph name="W" xMin="116" yMin="0" xMax="997" yMax="698">
      <contour>
        <pt x="130" y="0" on="1"/>
        <pt x="116" y="698" on="1"/>
        <pt x="259" y="698" on="1"/>
        <pt x="255" y="419" on="1"/>
        <pt x="244" y="144" on="1"/>
        <pt x="254" y="144" on="1"/>
        <pt x="351" y="401" on="1"/>
        <pt x="477" y="698" on="1"/>
        <pt x="636" y="698" on="1"/>
        <pt x="643" y="416" on="1"/>
        <pt x="636" y="134" on="1"/>
        <pt x="646" y="134" on="1"/>
        <pt x="733" y="384" on="1"/>
        <pt x="851" y="698" on="1"/>
        <pt x="997" y="698" on="1"/>
        <pt x="706" y="0" on="1"/>
        <pt x="538" y="0" on="1"/>
        <pt x="530" y="291" on="1"/>
        <pt x="530" y="536" on="1"/>
        <pt x="521" y="536" on="1"/>
        <pt x="432" y="312" on="1"/>
        <pt x="302" y="0" on="1"/>
      </contour>
    </TTGlyph>
    <TTGlyph name="Wacute" xMin="116" yMin="0" xMax="997" yMax="975">
      <component glyphName="W" x="0" y="0" flags="0x204"/>
      <component glyphName="acute.case" x="264" y="0" flags="0x4"/>
    </TTGlyph>
    <TTGlyph name="Wcircumflex" xMin="116" yMin="0" xMax="997" yMax="954">
      <component glyphName="W" x="0" y="0" flags="0x204"/>
      <component glyphName="circumflex.case" x="264" y="0" flags="0x4"/>
    </TTGlyph>
    <TTGlyph name="Wdieresis" xMin="116" yMin="0" xMax="997" yMax="911">
      <component glyphName="W" x="0" y="0" flags="0x204"/>
      <component glyphName="dieresis.case" x="264" y="0" flags="0x4"/>
    </TTGlyph>
    <TTGlyph name="Wgrave" xMin="116" yMin="0" xMax="997" yMax="975">
      <component glyphName="W" x="0" y="0" flags="0x204"/>
      <component glyphName="grave.case" x="264" y="0" flags="0x4"/>
    </TTGlyph>
    <TTGlyph name="X" xMin="-40" yMin="0" xMax="706" yMax="698">
      <contour>
        <pt x="571" y="0" on="1"/>
        <pt x="414" y="0" on="1"/>
        <pt x="315" y="243" on="1"/>
        <pt x="307" y="243" on="1"/>
        <pt x="128" y="0" on="1"/>
        <pt x="-40" y="0" on="1"/>
        <pt x="250" y="369" on="1"/>
        <pt x="104" y="698" on="1"/>
        <pt x="260" y="698" on="1"/>
        <pt x="355" y="468" on="1"/>
        <pt x="363" y="468" on="1"/>
        <pt x="538" y="698" on="1"/>
        <pt x="706" y="698" on="1"/>
        <pt x="419" y="347" on="1"/>
      </contour>
    </TTGlyph>
    <TTGlyph name="Xi" xMin="1" yMin="0" xMax="621" yMax="698">
      <contour>
        <pt x="141" y="698" on="1"/>
        <pt x="621" y="698" on="1"/>
        <pt x="595" y="570" on="1"/>
        <pt x="115" y="570" on="1"/>
      </contour>
      <contour>
        <pt x="144" y="417" on="1"/>
        <pt x="506" y="417" on="1"/>
        <pt x="480" y="289" on="1"/>
        <pt x="118" y="289" on="1"/>
      </contour>
      <contour>
        <pt x="27" y="128" on="1"/>
        <pt x="507" y="128" on="1"/>
        <pt x="481" y="0" on="1"/>
        <pt x="1" y="0" on="1"/>
      </contour>
    </TTGlyph>
    <TTGlyph name="Y" xMin="91" yMin="0" xMax="701" yMax="698">
      <contour>
        <pt x="185" y="0" on="1"/>
        <pt x="239" y="271" on="1"/>
        <pt x="91" y="698" on="1"/>
        <pt x="239" y="698" on="1"/>
        <pt x="333" y="404" on="1"/>
        <pt x="340" y="404" on="1"/>
        <pt x="541" y="698" on="1"/>
        <pt x="701" y="698" on="1"/>
        <pt x="382" y="258" on="1"/>
        <pt x="330" y="0" on="1"/>
      </contour>
    </TTGlyph>
    <TTGlyph name="Yacute" xMin="91" yMin="0" xMax="701" yMax="975">
      <component glyphName="Y" x="0" y="0" flags="0x204"/>
      <component glyphName="acute.case" x="89" y="0" flags="0x4"/>
    </TTGlyph>
    <TTGlyph name="Ycircumflex" xMin="91" yMin="0" xMax="701" yMax="954">
      <component glyphName="Y" x="0" y="0" flags="0x204"/>
      <component glyphName="circumflex.case" x="89" y="0" flags="0x4"/>
    </TTGlyph>
    <TTGlyph name="Ydieresis" xMin="91" yMin="0" xMax="701" yMax="911">
      <component glyphName="Y" x="0" y="0" flags="0x204"/>
      <component glyphName="dieresis.case" x="89" y="0" flags="0x4"/>
    </TTGlyph>
    <TTGlyph name="Ygrave" xMin="91" yMin="0" xMax="701" yMax="975">
      <component glyphName="Y" x="0" y="0" flags="0x204"/>
      <component glyphName="grave.case" x="89" y="0" flags="0x4"/>
    </TTGlyph>
    <TTGlyph name="Z" xMin="-11" yMin="0" xMax="623" yMax="698">
      <contour>
        <pt x="486" y="0" on="1"/>
        <pt x="-11" y="0" on="1"/>
        <pt x="15" y="128" on="1"/>
        <pt x="425" y="570" on="1"/>
        <pt x="119" y="570" on="1"/>
        <pt x="145" y="698" on="1"/>
        <pt x="623" y="698" on="1"/>
        <pt x="597" y="570" on="1"/>
        <pt x="187" y="128" on="1"/>
        <pt x="512" y="128" on="1"/>
      </contour>
    </TTGlyph>
    <TTGlyph name="Zacute" xMin="-11" yMin="0" xMax="623" yMax="975">
      <component glyphName="Z" x="0" y="0" flags="0x204"/>
      <component glyphName="acute.case" x="88" y="0" flags="0x4"/>
    </TTGlyph>
    <TTGlyph name="Zcaron" xMin="-11" yMin="0" xMax="623" yMax="963">
      <component glyphName="Z" x="0" y="0" flags="0x204"/>
      <component glyphName="caron.case" x="88" y="0" flags="0x4"/>
    </TTGlyph>
    <TTGlyph name="Zdotaccent" xMin="-11" yMin="0" xMax="623" yMax="919">
      <component glyphName="Z" x="0" y="0" flags="0x204"/>
      <component glyphName="dotaccent.case" x="88" y="0" flags="0x4"/>
    </TTGlyph>
    <TTGlyph name="Zeta" xMin="-11" yMin="0" xMax="623" yMax="698">
      <component glyphName="Z" x="0" y="0" flags="0x204"/>
    </TTGlyph>
    <TTGlyph name="a" xMin="31" yMin="-12" xMax="569" yMax="537">
      <contour>
        <pt x="430" y="0" on="1"/>
        <pt x="392" y="0" on="0"/>
        <pt x="342" y="40" on="0"/>
        <pt x="342" y="77" on="1"/>
        <pt x="342" y="85" on="0"/>
        <pt x="344" y="103" on="0"/>
        <pt x="345" y="107" on="1"/>
        <pt x="348" y="122" on="1"/>
        <pt x="342" y="122" on="1"/>
        <pt x="311" y="58" on="0"/>
        <pt x="233" y="-12" on="0"/>
        <pt x="171" y="-12" on="1"/>
        <pt x="134" y="-12" on="0"/>
        <pt x="81" y="15" on="0"/>
        <pt x="47" y="64" on="0"/>
        <pt x="31" y="131" on="0"/>
        <pt x="31" y="170" on="1"/>
        <pt x="31" y="254" on="0"/>
        <pt x="70" y="389" on="0"/>
        <pt x="136" y="485" on="0"/>
        <pt x="225" y="537" on="0"/>
        <pt x="275" y="537" on="1"/>
        <pt x="330" y="537" on="0"/>
        <pt x="401" y="477" on="0"/>
        <pt x="406" y="434" on="1"/>
        <pt x="411" y="434" on="1"/>
        <pt x="429" y="525" on="1"/>
        <pt x="569" y="525" on="1"/>
        <pt x="486" y="112" on="1"/>
        <pt x="545" y="112" on="1"/>
        <pt x="523" y="0" on="1"/>
      </contour>
      <contour>
        <pt x="240" y="103" on="1"/>
        <pt x="267" y="103" on="0"/>
        <pt x="311" y="131" on="0"/>
        <pt x="327" y="151" on="1"/>
        <pt x="344" y="171" on="0"/>
        <pt x="369" y="226" on="0"/>
        <pt x="375" y="255" on="1"/>
        <pt x="391" y="335" on="1"/>
        <pt x="399" y="372" on="0"/>
        <pt x="353" y="422" on="0"/>
        <pt x="309" y="422" on="1"/>
        <pt x="218" y="422" on="0"/>
        <pt x="194" y="305" on="1"/>
        <pt x="180" y="235" on="1"/>
        <pt x="178" y="224" on="0"/>
        <pt x="174" y="190" on="0"/>
        <pt x="174" y="178" on="1"/>
        <pt x="174" y="143" on="0"/>
        <pt x="209" y="103" on="0"/>
      </contour>
    </TTGlyph>
    <TTGlyph name="a.alt01" xMin="25" yMin="-12" xMax="514" yMax="537">
      <contour>
        <pt x="170" y="-12" on="1"/>
        <pt x="99" y="-12" on="0"/>
        <pt x="25" y="62" on="0"/>
        <pt x="25" y="125" on="1"/>
        <pt x="25" y="210" on="0"/>
        <pt x="154" y="303" on="0"/>
        <pt x="269" y="303" on="1"/>
        <pt x="360" y="303" on="1"/>
        <pt x="364" y="325" on="1"/>
        <pt x="367" y="343" on="0"/>
        <pt x="367" y="355" on="1"/>
        <pt x="367" y="390" on="0"/>
        <pt x="328" y="425" on="0"/>
        <pt x="286" y="425" on="1"/>
        <pt x="263" y="425" on="0"/>
        <pt x="226" y="414" on="0"/>
        <pt x="197" y="396" on="0"/>
        <pt x="174" y="371" on="0"/>
        <pt x="164" y="357" on="1"/>
        <pt x="82" y="436" on="1"/>
        <pt x="119" y="483" on="0"/>
        <pt x="226" y="537" on="0"/>
        <pt x="304" y="537" on="1"/>
        <pt x="403" y="537" on="0"/>
        <pt x="508" y="450" on="0"/>
        <pt x="508" y="370" on="1"/>
        <pt x="508" y="360" on="0"/>
        <pt x="506" y="334" on="0"/>
        <pt x="503" y="319" on="1"/>
        <pt x="462" y="112" on="1"/>
        <pt x="514" y="112" on="1"/>
        <pt x="492" y="0" on="1"/>
        <pt x="418" y="0" on="1"/>
        <pt x="380" y="0" on="0"/>
        <pt x="330" y="40" on="0"/>
        <pt x="330" y="77" on="1"/>
        <pt x="330" y="92" on="1"/>
        <pt x="324" y="92" on="1"/>
        <pt x="301" y="36" on="0"/>
        <pt x="223" y="-12" on="0"/>
      </contour>
      <contour>
        <pt x="230" y="89" on="1"/>
        <pt x="264" y="89" on="0"/>
        <pt x="323" y="123" on="0"/>
        <pt x="331" y="160" on="1"/>
        <pt x="343" y="222" on="1"/>
        <pt x="263" y="222" on="1"/>
        <pt x="224" y="222" on="0"/>
        <pt x="182" y="194" on="0"/>
        <pt x="175" y="165" on="1"/>
        <pt x="172" y="152" on="0"/>
        <pt x="171" y="137" on="0"/>
        <pt x="171" y="134" on="1"/>
        <pt x="171" y="111" on="0"/>
        <pt x="204" y="89" on="0"/>
      </contour>
    </TTGlyph>
    <TTGlyph name="aacute" xMin="31" yMin="-12" xMax="569" yMax="815">
      <component glyphName="a" x="0" y="0" flags="0x204"/>
      <component glyphName="acute" x="40" y="0" flags="0x4"/>
    </TTGlyph>
    <TTGlyph name="aacute.alt01" xMin="25" yMin="-12" xMax="514" yMax="815">
      <component glyphName="a.alt01" x="0" y="0" flags="0x204"/>
      <component glyphName="acute" x="19" y="0" flags="0x4"/>
    </TTGlyph>
    <TTGlyph name="abreve" xMin="31" yMin="-12" xMax="569" yMax="791">
      <component glyphName="a" x="0" y="0" flags="0x204"/>
      <component glyphName="breve" x="40" y="0" flags="0x4"/>
    </TTGlyph>
    <TTGlyph name="abreve.alt01" xMin="25" yMin="-12" xMax="541" yMax="791">
      <component glyphName="a.alt01" x="0" y="0" flags="0x204"/>
      <component glyphName="breve" x="19" y="0" flags="0x4"/>
    </TTGlyph>
    <TTGlyph name="acircumflex" xMin="31" yMin="-12" xMax="569" yMax="794">
      <component glyphName="a" x="0" y="0" flags="0x204"/>
      <component glyphName="circumflex" x="40" y="0" flags="0x4"/>
    </TTGlyph>
    <TTGlyph name="acircumflex.alt01" xMin="25" yMin="-12" xMax="515" yMax="794">
      <component glyphName="a.alt01" x="0" y="0" flags="0x204"/>
      <component glyphName="circumflex" x="19" y="0" flags="0x4"/>
    </TTGlyph>
    <TTGlyph name="acute" xMin="237" yMin="579" xMax="468" yMax="815">
      <contour>
        <pt x="321" y="579" on="1"/>
        <pt x="237" y="625" on="1"/>
        <pt x="356" y="815" on="1"/>
        <pt x="468" y="755" on="1"/>
      </contour>
    </TTGlyph>
    <TTGlyph name="acute.case" xMin="237" yMin="739" xMax="468" yMax="975">
      <contour>
        <pt x="321" y="739" on="1"/>
        <pt x="237" y="785" on="1"/>
        <pt x="356" y="975" on="1"/>
        <pt x="468" y="915" on="1"/>
      </contour>
    </TTGlyph>
    <TTGlyph name="adieresis" xMin="31" yMin="-12" xMax="569" yMax="751">
      <component glyphName="a" x="0" y="0" flags="0x204"/>
      <component glyphName="dieresis" x="40" y="0" flags="0x4"/>
    </TTGlyph>
    <TTGlyph name="adieresis.alt01" xMin="25" yMin="-12" xMax="517" yMax="751">
      <component glyphName="a.alt01" x="0" y="0" flags="0x204"/>
      <component glyphName="dieresis" x="19" y="0" flags="0x4"/>
    </TTGlyph>
    <TTGlyph name="ae" xMin="25" yMin="-12" xMax="816" yMax="537">
      <contour>
        <pt x="231" y="89" on="1"/>
        <pt x="265" y="89" on="0"/>
        <pt x="323" y="124" on="0"/>
        <pt x="331" y="160" on="1"/>
        <pt x="343" y="217" on="1"/>
        <pt x="262" y="213" on="1"/>
        <pt x="231" y="211" on="0"/>
        <pt x="183" y="194" on="0"/>
        <pt x="175" y="165" on="1"/>
        <pt x="172" y="154" on="0"/>
        <pt x="171" y="135" on="0"/>
        <pt x="171" y="134" on="1"/>
        <pt x="171" y="111" on="0"/>
        <pt x="204" y="89" on="0"/>
      </contour>
      <contour>
        <pt x="620" y="430" on="1"/>
        <pt x="575" y="430" on="0"/>
        <pt x="512" y="371" on="0"/>
        <pt x="503" y="320" on="1"/>
        <pt x="499" y="301" on="1"/>
        <pt x="555" y="304" on="0"/>
        <pt x="626" y="318" on="0"/>
        <pt x="666" y="337" on="0"/>
        <pt x="680" y="362" on="0"/>
        <pt x="680" y="377" on="1"/>
        <pt x="680" y="394" on="0"/>
        <pt x="668" y="415" on="0"/>
        <pt x="650" y="426" on="0"/>
        <pt x="629" y="430" on="0"/>
      </contour>
      <contour>
        <pt x="182" y="-12" on="1"/>
        <pt x="104" y="-12" on="0"/>
        <pt x="25" y="62" on="0"/>
        <pt x="25" y="125" on="1"/>
        <pt x="25" y="207" on="0"/>
        <pt x="153" y="289" on="0"/>
        <pt x="268" y="294" on="1"/>
        <pt x="359" y="298" on="1"/>
        <pt x="364" y="325" on="1"/>
        <pt x="367" y="343" on="0"/>
        <pt x="367" y="355" on="1"/>
        <pt x="367" y="425" on="0"/>
        <pt x="286" y="425" on="1"/>
        <pt x="263" y="425" on="0"/>
        <pt x="226" y="414" on="0"/>
        <pt x="197" y="396" on="0"/>
        <pt x="174" y="371" on="0"/>
        <pt x="164" y="357" on="1"/>
        <pt x="82" y="436" on="1"/>
        <pt x="119" y="484" on="0"/>
        <pt x="228" y="537" on="0"/>
        <pt x="297" y="537" on="1"/>
        <pt x="411" y="537" on="0"/>
        <pt x="454" y="461" on="1"/>
        <pt x="461" y="461" on="1"/>
        <pt x="493" y="496" on="0"/>
        <pt x="576" y="537" on="0"/>
        <pt x="630" y="537" on="1"/>
        <pt x="659" y="537" on="0"/>
        <pt x="724" y="523" on="0"/>
        <pt x="780" y="490" on="0"/>
        <pt x="816" y="434" on="0"/>
        <pt x="816" y="392" on="1"/>
        <pt x="816" y="312" on="0"/>
        <pt x="659" y="221" on="0"/>
        <pt x="484" y="216" on="1"/>
        <pt x="482" y="204" on="0"/>
        <pt x="482" y="190" on="0"/>
        <pt x="482" y="185" on="1"/>
        <pt x="482" y="147" on="0"/>
        <pt x="523" y="101" on="0"/>
        <pt x="576" y="101" on="1"/>
        <pt x="610" y="101" on="0"/>
        <pt x="668" y="130" on="0"/>
        <pt x="703" y="174" on="1"/>
        <pt x="789" y="106" on="1"/>
        <pt x="740" y="41" on="0"/>
        <pt x="633" y="-12" on="0"/>
        <pt x="565" y="-12" on="1"/>
        <pt x="490" y="-12" on="0"/>
        <pt x="393" y="42" on="0"/>
        <pt x="368" y="92" on="1"/>
        <pt x="361" y="92" on="1"/>
        <pt x="335" y="36" on="0"/>
        <pt x="241" y="-12" on="0"/>
      </contour>
    </TTGlyph>
    <TTGlyph name="aeacute" xMin="25" yMin="-12" xMax="816" yMax="815">
      <component glyphName="ae" x="0" y="0" flags="0x204"/>
      <component glyphName="acute" x="190" y="0" flags="0x4"/>
    </TTGlyph>
    <TTGlyph name="agrave" xMin="31" yMin="-12" xMax="569" yMax="815">
      <component glyphName="a" x="0" y="0" flags="0x204"/>
      <component glyphName="grave" x="40" y="0" flags="0x4"/>
    </TTGlyph>
    <TTGlyph name="agrave.alt01" xMin="25" yMin="-12" xMax="514" yMax="815">
      <component glyphName="a.alt01" x="0" y="0" flags="0x204"/>
      <component glyphName="grave" x="19" y="0" flags="0x4"/>
    </TTGlyph>
    <TTGlyph name="alpha" xMin="31" yMin="-12" xMax="669" yMax="537">
      <contour>
        <pt x="572" y="0" on="1"/>
        <pt x="498" y="0" on="1"/>
        <pt x="454" y="0" on="0"/>
        <pt x="403" y="51" on="0"/>
        <pt x="403" y="99" on="1"/>
        <pt x="403" y="148" on="1"/>
        <pt x="400" y="148" on="1"/>
        <pt x="376" y="101" on="0"/>
        <pt x="328" y="40" on="0"/>
        <pt x="278" y="3" on="0"/>
        <pt x="224" y="-12" on="0"/>
        <pt x="193" y="-12" on="1"/>
        <pt x="117" y="-12" on="0"/>
        <pt x="31" y="78" on="0"/>
        <pt x="31" y="170" on="1"/>
        <pt x="31" y="255" on="0"/>
        <pt x="69" y="391" on="0"/>
        <pt x="135" y="486" on="0"/>
        <pt x="225" y="537" on="0"/>
        <pt x="278" y="537" on="1"/>
        <pt x="354" y="537" on="0"/>
        <pt x="429" y="462" on="0"/>
        <pt x="438" y="377" on="1"/>
        <pt x="442" y="377" on="1"/>
        <pt x="474" y="447" on="1"/>
        <pt x="514" y="525" on="1"/>
        <pt x="669" y="525" on="1"/>
        <pt x="503" y="266" on="1"/>
        <pt x="535" y="112" on="1"/>
        <pt x="594" y="112" on="1"/>
      </contour>
      <contour>
        <pt x="223" y="103" on="1"/>
        <pt x="233" y="103" on="0"/>
        <pt x="253" y="112" on="0"/>
        <pt x="276" y="133" on="0"/>
        <pt x="302" y="169" on="0"/>
        <pt x="317" y="197" on="1"/>
        <pt x="353" y="263" on="1"/>
        <pt x="344" y="327" on="1"/>
        <pt x="336" y="381" on="0"/>
        <pt x="307" y="422" on="0"/>
        <pt x="285" y="422" on="1"/>
        <pt x="257" y="422" on="0"/>
        <pt x="207" y="368" on="0"/>
        <pt x="194" y="305" on="1"/>
        <pt x="180" y="235" on="1"/>
        <pt x="176" y="215" on="0"/>
        <pt x="174" y="188" on="0"/>
        <pt x="174" y="170" on="1"/>
        <pt x="174" y="134" on="0"/>
        <pt x="201" y="103" on="0"/>
      </contour>
    </TTGlyph>
    <TTGlyph name="alpha.alt01" xMin="31" yMin="-12" xMax="569" yMax="537">
      <component glyphName="a" x="0" y="0" flags="0x204"/>
    </TTGlyph>
    <TTGlyph name="alphatonos" xMin="31" yMin="-12" xMax="669" yMax="815">
      <component glyphName="alpha" x="0" y="0" flags="0x204"/>
      <component glyphName="tonos" x="-36" y="0" flags="0x4"/>
    </TTGlyph>
    <TTGlyph name="alphatonos.alt01" xMin="31" yMin="-12" xMax="569" yMax="815">
      <component glyphName="a" x="0" y="0" flags="0x204"/>
      <component glyphName="tonos" x="-39" y="0" flags="0x4"/>
    </TTGlyph>
    <TTGlyph name="amacron" xMin="31" yMin="-12" xMax="569" yMax="727">
      <component glyphName="a" x="0" y="0" flags="0x204"/>
      <component glyphName="macron" x="40" y="0" flags="0x4"/>
    </TTGlyph>
    <TTGlyph name="amacron.alt01" xMin="25" yMin="-12" xMax="514" yMax="727">
      <component glyphName="a.alt01" x="0" y="0" flags="0x204"/>
      <component glyphName="macron" x="19" y="0" flags="0x4"/>
    </TTGlyph>
    <TTGlyph name="ampersand" xMin="31" yMin="-12" xMax="691" yMax="710">
      <contour>
        <pt x="435" y="57" on="1"/>
        <pt x="400" y="28" on="0"/>
        <pt x="303" y="-12" on="0"/>
        <pt x="236" y="-12" on="1"/>
        <pt x="185" y="-12" on="0"/>
        <pt x="108" y="14" on="0"/>
        <pt x="57" y="59" on="0"/>
        <pt x="31" y="121" on="0"/>
        <pt x="31" y="158" on="1"/>
        <pt x="31" y="201" on="0"/>
        <pt x="57" y="266" on="0"/>
        <pt x="103" y="318" on="0"/>
        <pt x="168" y="360" on="0"/>
        <pt x="206" y="380" on="1"/>
        <pt x="187" y="408" on="0"/>
        <pt x="154" y="478" on="0"/>
        <pt x="154" y="516" on="1"/>
        <pt x="154" y="560" on="0"/>
        <pt x="188" y="631" on="0"/>
        <pt x="250" y="682" on="0"/>
        <pt x="333" y="710" on="0"/>
        <pt x="383" y="710" on="1"/>
        <pt x="423" y="710" on="0"/>
        <pt x="489" y="691" on="0"/>
        <pt x="537" y="653" on="0"/>
        <pt x="564" y="597" on="0"/>
        <pt x="564" y="561" on="1"/>
        <pt x="564" y="525" on="0"/>
        <pt x="535" y="467" on="0"/>
        <pt x="486" y="419" on="0"/>
        <pt x="422" y="379" on="0"/>
        <pt x="387" y="361" on="1"/>
        <pt x="470" y="244" on="1"/>
        <pt x="487" y="275" on="0"/>
        <pt x="510" y="347" on="0"/>
        <pt x="518" y="385" on="1"/>
        <pt x="691" y="385" on="1"/>
        <pt x="667" y="265" on="1"/>
        <pt x="588" y="265" on="1"/>
        <pt x="571" y="203" on="0"/>
        <pt x="537" y="150" on="1"/>
        <pt x="643" y="0" on="1"/>
        <pt x="476" y="0" on="1"/>
      </contour>
      <contour>
        <pt x="363" y="602" on="1"/>
        <pt x="338" y="602" on="0"/>
        <pt x="302" y="574" on="0"/>
        <pt x="297" y="551" on="1"/>
        <pt x="295" y="546" on="0"/>
        <pt x="294" y="529" on="0"/>
        <pt x="294" y="522" on="1"/>
        <pt x="294" y="504" on="0"/>
        <pt x="311" y="467" on="0"/>
        <pt x="330" y="441" on="1"/>
        <pt x="377" y="466" on="0"/>
        <pt x="423" y="512" on="0"/>
        <pt x="423" y="548" on="1"/>
        <pt x="423" y="573" on="0"/>
        <pt x="390" y="602" on="0"/>
      </contour>
      <contour>
        <pt x="272" y="107" on="1"/>
        <pt x="331" y="107" on="0"/>
        <pt x="378" y="138" on="1"/>
        <pt x="262" y="301" on="1"/>
        <pt x="230" y="284" on="0"/>
        <pt x="186" y="242" on="0"/>
        <pt x="179" y="209" on="1"/>
        <pt x="176" y="197" on="0"/>
        <pt x="176" y="182" on="1"/>
        <pt x="176" y="107" on="0"/>
      </contour>
    </TTGlyph>
    <TTGlyph name="anoteleia" xMin="109" yMin="357" xMax="289" yMax="537">
      <component glyphName="period" x="83" y="368" flags="0x4"/>
    </TTGlyph>
    <TTGlyph name="aogonek" xMin="31" yMin="-212" xMax="569" yMax="537">
      <contour>
        <pt x="523" y="0" on="1"/>
        <pt x="482" y="-25" on="0"/>
        <pt x="434" y="-60" on="0"/>
        <pt x="410" y="-86" on="0"/>
        <pt x="404" y="-104" on="0"/>
        <pt x="404" y="-111" on="1"/>
        <pt x="404" y="-123" on="0"/>
        <pt x="419" y="-140" on="0"/>
        <pt x="439" y="-140" on="1"/>
        <pt x="455" y="-140" on="0"/>
        <pt x="483" y="-129" on="0"/>
        <pt x="493" y="-113" on="1"/>
        <pt x="545" y="-162" on="1"/>
        <pt x="526" y="-185" on="0"/>
        <pt x="468" y="-212" on="0"/>
        <pt x="420" y="-212" on="1"/>
        <pt x="370" y="-212" on="0"/>
        <pt x="301" y="-170" on="0"/>
        <pt x="301" y="-129" on="1"/>
        <pt x="301" y="-91" on="0"/>
        <pt x="366" y="-24" on="0"/>
        <pt x="439" y="-4" on="1"/>
        <pt x="438" y="0" on="1"/>
        <pt x="430" y="0" on="1"/>
        <pt x="392" y="0" on="0"/>
        <pt x="342" y="40" on="0"/>
        <pt x="342" y="77" on="1"/>
        <pt x="342" y="85" on="0"/>
        <pt x="344" y="103" on="0"/>
        <pt x="345" y="107" on="1"/>
        <pt x="348" y="122" on="1"/>
        <pt x="342" y="122" on="1"/>
        <pt x="311" y="58" on="0"/>
        <pt x="233" y="-12" on="0"/>
        <pt x="171" y="-12" on="1"/>
        <pt x="134" y="-12" on="0"/>
        <pt x="81" y="15" on="0"/>
        <pt x="47" y="64" on="0"/>
        <pt x="31" y="131" on="0"/>
        <pt x="31" y="170" on="1"/>
        <pt x="31" y="254" on="0"/>
        <pt x="70" y="389" on="0"/>
        <pt x="136" y="485" on="0"/>
        <pt x="225" y="537" on="0"/>
        <pt x="275" y="537" on="1"/>
        <pt x="330" y="537" on="0"/>
        <pt x="401" y="477" on="0"/>
        <pt x="406" y="434" on="1"/>
        <pt x="411" y="434" on="1"/>
        <pt x="429" y="525" on="1"/>
        <pt x="569" y="525" on="1"/>
        <pt x="486" y="112" on="1"/>
        <pt x="545" y="112" on="1"/>
      </contour>
      <contour>
        <pt x="240" y="103" on="1"/>
        <pt x="267" y="103" on="0"/>
        <pt x="311" y="131" on="0"/>
        <pt x="327" y="151" on="1"/>
        <pt x="344" y="171" on="0"/>
        <pt x="369" y="226" on="0"/>
        <pt x="375" y="255" on="1"/>
        <pt x="391" y="335" on="1"/>
        <pt x="399" y="372" on="0"/>
        <pt x="353" y="422" on="0"/>
        <pt x="309" y="422" on="1"/>
        <pt x="218" y="422" on="0"/>
        <pt x="194" y="305" on="1"/>
        <pt x="180" y="235" on="1"/>
        <pt x="178" y="224" on="0"/>
        <pt x="174" y="190" on="0"/>
        <pt x="174" y="178" on="1"/>
        <pt x="174" y="143" on="0"/>
        <pt x="209" y="103" on="0"/>
      </contour>
    </TTGlyph>
    <TTGlyph name="aogonek.alt01" xMin="25" yMin="-212" xMax="514" yMax="537">
      <contour>
        <pt x="170" y="-12" on="1"/>
        <pt x="99" y="-12" on="0"/>
        <pt x="25" y="62" on="0"/>
        <pt x="25" y="125" on="1"/>
        <pt x="25" y="210" on="0"/>
        <pt x="154" y="303" on="0"/>
        <pt x="269" y="303" on="1"/>
        <pt x="360" y="303" on="1"/>
        <pt x="364" y="325" on="1"/>
        <pt x="367" y="343" on="0"/>
        <pt x="367" y="355" on="1"/>
        <pt x="367" y="390" on="0"/>
        <pt x="328" y="425" on="0"/>
        <pt x="286" y="425" on="1"/>
        <pt x="263" y="425" on="0"/>
        <pt x="226" y="414" on="0"/>
        <pt x="197" y="396" on="0"/>
        <pt x="174" y="371" on="0"/>
        <pt x="164" y="357" on="1"/>
        <pt x="82" y="436" on="1"/>
        <pt x="119" y="483" on="0"/>
        <pt x="226" y="537" on="0"/>
        <pt x="304" y="537" on="1"/>
        <pt x="403" y="537" on="0"/>
        <pt x="508" y="450" on="0"/>
        <pt x="508" y="370" on="1"/>
        <pt x="508" y="360" on="0"/>
        <pt x="506" y="334" on="0"/>
        <pt x="503" y="319" on="1"/>
        <pt x="462" y="112" on="1"/>
        <pt x="514" y="112" on="1"/>
        <pt x="492" y="0" on="1"/>
        <pt x="451" y="-25" on="0"/>
        <pt x="402" y="-60" on="0"/>
        <pt x="376" y="-86" on="0"/>
        <pt x="369" y="-104" on="0"/>
        <pt x="369" y="-111" on="1"/>
        <pt x="369" y="-123" on="0"/>
        <pt x="384" y="-140" on="0"/>
        <pt x="404" y="-140" on="1"/>
        <pt x="420" y="-140" on="0"/>
        <pt x="448" y="-129" on="0"/>
        <pt x="458" y="-113" on="1"/>
        <pt x="510" y="-162" on="1"/>
        <pt x="491" y="-185" on="0"/>
        <pt x="433" y="-212" on="0"/>
        <pt x="385" y="-212" on="1"/>
        <pt x="335" y="-212" on="0"/>
        <pt x="266" y="-170" on="0"/>
        <pt x="266" y="-129" on="1"/>
        <pt x="266" y="-91" on="0"/>
        <pt x="335" y="-24" on="0"/>
        <pt x="408" y="-4" on="1"/>
        <pt x="407" y="1" on="1"/>
        <pt x="374" y="3" on="0"/>
        <pt x="330" y="44" on="0"/>
        <pt x="330" y="77" on="1"/>
        <pt x="330" y="92" on="1"/>
        <pt x="324" y="92" on="1"/>
        <pt x="301" y="36" on="0"/>
        <pt x="223" y="-12" on="0"/>
      </contour>
      <contour>
        <pt x="230" y="89" on="1"/>
        <pt x="264" y="89" on="0"/>
        <pt x="323" y="123" on="0"/>
        <pt x="331" y="160" on="1"/>
        <pt x="343" y="222" on="1"/>
        <pt x="263" y="222" on="1"/>
        <pt x="224" y="222" on="0"/>
        <pt x="182" y="194" on="0"/>
        <pt x="175" y="165" on="1"/>
        <pt x="172" y="152" on="0"/>
        <pt x="171" y="137" on="0"/>
        <pt x="171" y="134" on="1"/>
        <pt x="171" y="111" on="0"/>
        <pt x="204" y="89" on="0"/>
      </contour>
    </TTGlyph>
    <TTGlyph name="approxequal" xMin="42" yMin="97" xMax="559" yMax="515">
      <component glyphName="asciitilde" x="18" y="115" flags="0x204"/>
      <component glyphName="asciitilde" x="-17" y="-114" flags="0x4"/>
    </TTGlyph>
    <TTGlyph name="aring" xMin="31" yMin="-12" xMax="569" yMax="844">
      <component glyphName="a" x="0" y="0" flags="0x204"/>
      <component glyphName="ring" x="40" y="0" flags="0x4"/>
    </TTGlyph>
    <TTGlyph name="aring.alt01" xMin="25" yMin="-12" xMax="514" yMax="844">
      <component glyphName="a.alt01" x="0" y="0" flags="0x204"/>
      <component glyphName="ring" x="19" y="0" flags="0x4"/>
    </TTGlyph>
    <TTGlyph name="aringacute" xMin="31" yMin="-12" xMax="569" yMax="988">
      <component glyphName="a" x="0" y="0" flags="0x204"/>
      <component glyphName="ringacute" x="40" y="0" flags="0x4"/>
    </TTGlyph>
    <TTGlyph name="aringacute.alt01" xMin="25" yMin="-12" xMax="527" yMax="988">
      <component glyphName="a.alt01" x="0" y="0" flags="0x204"/>
      <component glyphName="ringacute" x="19" y="0" flags="0x4"/>
    </TTGlyph>
    <TTGlyph name="asciicircum" xMin="49" yMin="280" xMax="584" yMax="698">
      <contour>
        <pt x="466" y="280" on="1"/>
        <pt x="364" y="551" on="1"/>
        <pt x="353" y="551" on="1"/>
        <pt x="154" y="280" on="1"/>
        <pt x="49" y="343" on="1"/>
        <pt x="313" y="698" on="1"/>
        <pt x="444" y="698" on="1"/>
        <pt x="584" y="325" on="1"/>
      </contour>
    </TTGlyph>
    <TTGlyph name="asciitilde" xMin="59" yMin="211" xMax="541" yMax="400">
      <contour>
        <pt x="400" y="211" on="1"/>
        <pt x="359" y="211" on="0"/>
        <pt x="309" y="234" on="0"/>
        <pt x="281" y="250" on="1"/>
        <pt x="256" y="264" on="0"/>
        <pt x="209" y="284" on="0"/>
        <pt x="179" y="284" on="1"/>
        <pt x="156" y="284" on="0"/>
        <pt x="120" y="270" on="0"/>
        <pt x="96" y="255" on="1"/>
        <pt x="59" y="342" on="1"/>
        <pt x="80" y="365" on="0"/>
        <pt x="149" y="400" on="0"/>
        <pt x="200" y="400" on="1"/>
        <pt x="221" y="400" on="0"/>
        <pt x="252" y="394" on="0"/>
        <pt x="279" y="383" on="0"/>
        <pt x="305" y="369" on="0"/>
        <pt x="319" y="361" on="1"/>
        <pt x="344" y="347" on="0"/>
        <pt x="391" y="327" on="0"/>
        <pt x="421" y="327" on="1"/>
        <pt x="444" y="327" on="0"/>
        <pt x="480" y="341" on="0"/>
        <pt x="504" y="356" on="1"/>
        <pt x="541" y="269" on="1"/>
        <pt x="520" y="246" on="0"/>
        <pt x="451" y="211" on="0"/>
      </contour>
    </TTGlyph>
    <TTGlyph name="asterisk" xMin="85" yMin="239" xMax="607" yMax="747">
      <contour>
        <pt x="187" y="239" on="1"/>
        <pt x="95" y="320" on="1"/>
        <pt x="242" y="462" on="1"/>
        <pt x="85" y="516" on="1"/>
        <pt x="136" y="631" on="1"/>
        <pt x="294" y="560" on="1"/>
        <pt x="323" y="747" on="1"/>
        <pt x="453" y="747" on="1"/>
        <pt x="410" y="562" on="1"/>
        <pt x="575" y="628" on="1"/>
        <pt x="607" y="516" on="1"/>
        <pt x="422" y="456" on="1"/>
        <pt x="510" y="305" on="1"/>
        <pt x="402" y="239" on="1"/>
        <pt x="326" y="399" on="1"/>
      </contour>
    </TTGlyph>
    <TTGlyph name="at" xMin="59" yMin="-121" xMax="851" yMax="709">
      <contour>
        <pt x="384" y="-121" on="1"/>
        <pt x="309" y="-121" on="0"/>
        <pt x="188" y="-72" on="0"/>
        <pt x="104" y="15" on="0"/>
        <pt x="59" y="137" on="0"/>
        <pt x="59" y="211" on="1"/>
        <pt x="59" y="237" on="0"/>
        <pt x="64" y="290" on="0"/>
        <pt x="70" y="320" on="1"/>
        <pt x="87" y="406" on="0"/>
        <pt x="168" y="549" on="0"/>
        <pt x="285" y="652" on="0"/>
        <pt x="436" y="709" on="0"/>
        <pt x="523" y="709" on="1"/>
        <pt x="591" y="709" on="0"/>
        <pt x="711" y="665" on="0"/>
        <pt x="800" y="584" on="0"/>
        <pt x="851" y="466" on="0"/>
        <pt x="851" y="393" on="1"/>
        <pt x="851" y="354" on="0"/>
        <pt x="843" y="314" on="1"/>
        <pt x="833" y="265" on="0"/>
        <pt x="790" y="181" on="0"/>
        <pt x="731" y="118" on="0"/>
        <pt x="658" y="82" on="0"/>
        <pt x="618" y="82" on="1"/>
        <pt x="564" y="82" on="0"/>
        <pt x="506" y="127" on="0"/>
        <pt x="506" y="164" on="1"/>
        <pt x="506" y="175" on="1"/>
        <pt x="501" y="175" on="1"/>
        <pt x="495" y="157" on="0"/>
        <pt x="473" y="125" on="0"/>
        <pt x="443" y="99" on="0"/>
        <pt x="405" y="84" on="0"/>
        <pt x="383" y="84" on="1"/>
        <pt x="321" y="84" on="0"/>
        <pt x="252" y="159" on="0"/>
        <pt x="252" y="233" on="1"/>
        <pt x="252" y="265" on="0"/>
        <pt x="259" y="299" on="1"/>
        <pt x="269" y="348" on="0"/>
        <pt x="306" y="423" on="0"/>
        <pt x="356" y="473" on="0"/>
        <pt x="414" y="498" on="0"/>
        <pt x="444" y="498" on="1"/>
        <pt x="489" y="498" on="0"/>
        <pt x="533" y="460" on="0"/>
        <pt x="541" y="431" on="1"/>
        <pt x="545" y="431" on="1"/>
        <pt x="557" y="489" on="1"/>
        <pt x="667" y="489" on="1"/>
        <pt x="615" y="227" on="1"/>
        <pt x="612" y="210" on="0"/>
        <pt x="612" y="201" on="1"/>
        <pt x="612" y="168" on="0"/>
        <pt x="643" y="168" on="1"/>
        <pt x="675" y="168" on="0"/>
        <pt x="731" y="237" on="0"/>
        <pt x="747" y="316" on="1"/>
        <pt x="753" y="346" on="1"/>
        <pt x="756" y="361" on="0"/>
        <pt x="759" y="394" on="0"/>
        <pt x="759" y="408" on="1"/>
        <pt x="759" y="459" on="0"/>
        <pt x="721" y="540" on="0"/>
        <pt x="654" y="595" on="0"/>
        <pt x="562" y="624" on="0"/>
        <pt x="509" y="624" on="1"/>
        <pt x="446" y="624" on="0"/>
        <pt x="334" y="582" on="0"/>
        <pt x="246" y="505" on="0"/>
        <pt x="185" y="398" on="0"/>
        <pt x="172" y="332" on="1"/>
        <pt x="164" y="292" on="1"/>
        <pt x="159" y="269" on="0"/>
        <pt x="154" y="229" on="0"/>
        <pt x="154" y="209" on="1"/>
        <pt x="154" y="152" on="0"/>
        <pt x="189" y="62" on="0"/>
        <pt x="253" y="-2" on="0"/>
        <pt x="344" y="-36" on="0"/>
        <pt x="401" y="-36" on="1"/>
        <pt x="590" y="-36" on="1"/>
        <pt x="573" y="-121" on="1"/>
      </contour>
      <contour>
        <pt x="424" y="174" on="1"/>
        <pt x="440" y="174" on="0"/>
        <pt x="468" y="188" on="0"/>
        <pt x="491" y="209" on="0"/>
        <pt x="506" y="234" on="0"/>
        <pt x="508" y="245" on="1"/>
        <pt x="528" y="345" on="1"/>
        <pt x="533" y="372" on="0"/>
        <pt x="496" y="408" on="0"/>
        <pt x="464" y="408" on="1"/>
        <pt x="429" y="408" on="0"/>
        <pt x="389" y="362" on="0"/>
        <pt x="381" y="324" on="1"/>
        <pt x="367" y="254" on="1"/>
        <pt x="365" y="246" on="0"/>
        <pt x="365" y="238" on="0"/>
        <pt x="365" y="233" on="1"/>
        <pt x="365" y="174" on="0"/>
      </contour>
    </TTGlyph>
    <TTGlyph name="atilde" xMin="31" yMin="-12" xMax="569" yMax="750">
      <component glyphName="a" x="0" y="0" flags="0x204"/>
      <component glyphName="tilde" x="40" y="0" flags="0x4"/>
    </TTGlyph>
    <TTGlyph name="atilde.alt01" xMin="25" yMin="-12" xMax="521" yMax="750">
      <component glyphName="a.alt01" x="0" y="0" flags="0x204"/>
      <component glyphName="tilde" x="19" y="0" flags="0x4"/>
    </TTGlyph>
    <TTGlyph name="b" xMin="14" yMin="-12" xMax="552" yMax="740">
      <contour>
        <pt x="162" y="740" on="1"/>
        <pt x="302" y="740" on="1"/>
        <pt x="235" y="403" on="1"/>
        <pt x="241" y="403" on="1"/>
        <pt x="272" y="467" on="0"/>
        <pt x="350" y="537" on="0"/>
        <pt x="412" y="537" on="1"/>
        <pt x="449" y="537" on="0"/>
        <pt x="502" y="510" on="0"/>
        <pt x="536" y="461" on="0"/>
        <pt x="552" y="394" on="0"/>
        <pt x="552" y="355" on="1"/>
        <pt x="552" y="271" on="0"/>
        <pt x="513" y="136" on="0"/>
        <pt x="447" y="40" on="0"/>
        <pt x="358" y="-12" on="0"/>
        <pt x="308" y="-12" on="1"/>
        <pt x="253" y="-12" on="0"/>
        <pt x="182" y="48" on="0"/>
        <pt x="177" y="91" on="1"/>
        <pt x="172" y="91" on="1"/>
        <pt x="154" y="0" on="1"/>
        <pt x="14" y="0" on="1"/>
      </contour>
      <contour>
        <pt x="274" y="103" on="1"/>
        <pt x="365" y="103" on="0"/>
        <pt x="389" y="220" on="1"/>
        <pt x="403" y="290" on="1"/>
        <pt x="405" y="301" on="0"/>
        <pt x="409" y="335" on="0"/>
        <pt x="409" y="347" on="1"/>
        <pt x="409" y="382" on="0"/>
        <pt x="374" y="422" on="0"/>
        <pt x="343" y="422" on="1"/>
        <pt x="316" y="422" on="0"/>
        <pt x="272" y="394" on="0"/>
        <pt x="256" y="374" on="1"/>
        <pt x="239" y="354" on="0"/>
        <pt x="214" y="299" on="0"/>
        <pt x="208" y="270" on="1"/>
        <pt x="192" y="190" on="1"/>
        <pt x="184" y="150" on="0"/>
        <pt x="230" y="103" on="0"/>
      </contour>
    </TTGlyph>
    <TTGlyph name="backslash" xMin="148" yMin="-151" xMax="379" yMax="740">
      <contour>
        <pt x="265" y="-151" on="1"/>
        <pt x="148" y="740" on="1"/>
        <pt x="262" y="740" on="1"/>
        <pt x="379" y="-151" on="1"/>
      </contour>
    </TTGlyph>
    <TTGlyph name="bar" xMin="54" yMin="-138" xMax="360" yMax="760">
      <contour>
        <pt x="54" y="-138" on="1"/>
        <pt x="234" y="760" on="1"/>
        <pt x="360" y="760" on="1"/>
        <pt x="180" y="-138" on="1"/>
      </contour>
    </TTGlyph>
    <TTGlyph name="beta" xMin="-27" yMin="-200" xMax="571" yMax="752">
      <contour>
        <pt x="115" y="506" on="1"/>
        <pt x="128" y="570" on="0"/>
        <pt x="178" y="663" on="0"/>
        <pt x="247" y="723" on="0"/>
        <pt x="333" y="752" on="0"/>
        <pt x="381" y="752" on="1"/>
        <pt x="475" y="752" on="0"/>
        <pt x="571" y="659" on="0"/>
        <pt x="571" y="574" on="1"/>
        <pt x="571" y="497" on="0"/>
        <pt x="490" y="403" on="0"/>
        <pt x="425" y="383" on="1"/>
        <pt x="424" y="378" on="1"/>
        <pt x="478" y="366" on="0"/>
        <pt x="538" y="294" on="0"/>
        <pt x="538" y="231" on="1"/>
        <pt x="538" y="188" on="0"/>
        <pt x="507" y="102" on="0"/>
        <pt x="449" y="32" on="0"/>
        <pt x="367" y="-12" on="0"/>
        <pt x="316" y="-12" on="1"/>
        <pt x="253" y="-12" on="0"/>
        <pt x="181" y="48" on="0"/>
        <pt x="176" y="91" on="1"/>
        <pt x="171" y="91" on="1"/>
        <pt x="113" y="-200" on="1"/>
        <pt x="-27" y="-200" on="1"/>
      </contour>
      <contour>
        <pt x="299" y="434" on="1"/>
        <pt x="338" y="434" on="1"/>
        <pt x="367" y="434" on="0"/>
        <pt x="414" y="475" on="0"/>
        <pt x="423" y="516" on="1"/>
        <pt x="428" y="540" on="0"/>
        <pt x="432" y="566" on="0"/>
        <pt x="432" y="577" on="1"/>
        <pt x="432" y="606" on="0"/>
        <pt x="399" y="639" on="0"/>
        <pt x="370" y="639" on="1"/>
        <pt x="351" y="639" on="0"/>
        <pt x="317" y="627" on="0"/>
        <pt x="287" y="597" on="0"/>
        <pt x="263" y="547" on="0"/>
        <pt x="256" y="510" on="1"/>
        <pt x="194" y="204" on="1"/>
        <pt x="173" y="101" on="0"/>
        <pt x="278" y="101" on="1"/>
        <pt x="326" y="101" on="0"/>
        <pt x="382" y="145" on="0"/>
        <pt x="391" y="193" on="1"/>
        <pt x="396" y="217" on="0"/>
        <pt x="399" y="243" on="0"/>
        <pt x="399" y="254" on="1"/>
        <pt x="399" y="287" on="0"/>
        <pt x="362" y="323" on="0"/>
        <pt x="321" y="323" on="1"/>
        <pt x="276" y="323" on="1"/>
      </contour>
    </TTGlyph>
    <TTGlyph name="braceleft" xMin="23" yMin="-138" xMax="426" yMax="760">
      <contour>
        <pt x="138" y="-138" on="1"/>
        <pt x="102" y="-138" on="0"/>
        <pt x="57" y="-99" on="0"/>
        <pt x="57" y="-63" on="1"/>
        <pt x="57" y="-49" on="0"/>
        <pt x="59" y="-39" on="1"/>
        <pt x="97" y="151" on="1"/>
        <pt x="100" y="166" on="0"/>
        <pt x="100" y="181" on="1"/>
        <pt x="100" y="255" on="0"/>
        <pt x="23" y="255" on="1"/>
        <pt x="46" y="368" on="1"/>
        <pt x="91" y="368" on="0"/>
        <pt x="149" y="411" on="0"/>
        <pt x="158" y="456" on="1"/>
        <pt x="199" y="661" on="1"/>
        <pt x="209" y="710" on="0"/>
        <pt x="267" y="760" on="0"/>
        <pt x="309" y="760" on="1"/>
        <pt x="426" y="760" on="1"/>
        <pt x="405" y="656" on="1"/>
        <pt x="328" y="656" on="1"/>
        <pt x="284" y="436" on="1"/>
        <pt x="279" y="413" on="0"/>
        <pt x="261" y="371" on="0"/>
        <pt x="230" y="336" on="0"/>
        <pt x="186" y="314" on="0"/>
        <pt x="156" y="313" on="1"/>
        <pt x="156" y="309" on="1"/>
        <pt x="190" y="302" on="0"/>
        <pt x="237" y="251" on="0"/>
        <pt x="237" y="211" on="1"/>
        <pt x="237" y="204" on="0"/>
        <pt x="235" y="189" on="0"/>
        <pt x="233" y="181" on="1"/>
        <pt x="190" y="-34" on="1"/>
        <pt x="267" y="-34" on="1"/>
        <pt x="246" y="-138" on="1"/>
      </contour>
    </TTGlyph>
    <TTGlyph name="braceright" xMin="-47" yMin="-138" xMax="356" yMax="760">
      <contour>
        <pt x="-26" y="-34" on="1"/>
        <pt x="51" y="-34" on="1"/>
        <pt x="95" y="186" on="1"/>
        <pt x="99" y="208" on="0"/>
        <pt x="118" y="251" on="0"/>
        <pt x="149" y="286" on="0"/>
        <pt x="193" y="307" on="0"/>
        <pt x="223" y="309" on="1"/>
        <pt x="223" y="313" on="1"/>
        <pt x="189" y="320" on="0"/>
        <pt x="142" y="371" on="0"/>
        <pt x="142" y="411" on="1"/>
        <pt x="142" y="418" on="0"/>
        <pt x="144" y="433" on="0"/>
        <pt x="146" y="441" on="1"/>
        <pt x="189" y="656" on="1"/>
        <pt x="112" y="656" on="1"/>
        <pt x="133" y="760" on="1"/>
        <pt x="241" y="760" on="1"/>
        <pt x="277" y="760" on="0"/>
        <pt x="322" y="721" on="0"/>
        <pt x="322" y="685" on="1"/>
        <pt x="322" y="671" on="0"/>
        <pt x="320" y="661" on="1"/>
        <pt x="282" y="471" on="1"/>
        <pt x="279" y="456" on="0"/>
        <pt x="279" y="441" on="1"/>
        <pt x="279" y="367" on="0"/>
        <pt x="356" y="367" on="1"/>
        <pt x="333" y="254" on="1"/>
        <pt x="288" y="254" on="0"/>
        <pt x="230" y="211" on="0"/>
        <pt x="221" y="166" on="1"/>
        <pt x="180" y="-39" on="1"/>
        <pt x="170" y="-88" on="0"/>
        <pt x="112" y="-138" on="0"/>
        <pt x="70" y="-138" on="1"/>
        <pt x="-47" y="-138" on="1"/>
      </contour>
    </TTGlyph>
    <TTGlyph name="bracketleft" xMin="-5" yMin="-138" xMax="392" yMax="760">
      <contour>
        <pt x="-5" y="-138" on="1"/>
        <pt x="175" y="760" on="1"/>
        <pt x="392" y="760" on="1"/>
        <pt x="373" y="663" on="1"/>
        <pt x="283" y="663" on="1"/>
        <pt x="141" y="-41" on="1"/>
        <pt x="232" y="-41" on="1"/>
        <pt x="213" y="-138" on="1"/>
      </contour>
    </TTGlyph>
    <TTGlyph name="bracketright" xMin="-50" yMin="-138" xMax="347" yMax="760">
      <contour>
        <pt x="347" y="760" on="1"/>
        <pt x="167" y="-138" on="1"/>
        <pt x="-50" y="-138" on="1"/>
        <pt x="-31" y="-41" on="1"/>
        <pt x="59" y="-41" on="1"/>
        <pt x="201" y="663" on="1"/>
        <pt x="110" y="663" on="1"/>
        <pt x="129" y="760" on="1"/>
      </contour>
    </TTGlyph>
    <TTGlyph name="breve" xMin="135" yMin="579" xMax="522" yMax="791">
      <contour>
        <pt x="305" y="579" on="1"/>
        <pt x="263" y="579" on="0"/>
        <pt x="204" y="609" on="0"/>
        <pt x="164" y="657" on="0"/>
        <pt x="141" y="718" on="0"/>
        <pt x="135" y="749" on="1"/>
        <pt x="215" y="791" on="1"/>
        <pt x="233" y="752" on="1"/>
        <pt x="249" y="718" on="0"/>
        <pt x="281" y="680" on="0"/>
        <pt x="313" y="680" on="1"/>
        <pt x="340" y="680" on="0"/>
        <pt x="383" y="717" on="0"/>
        <pt x="411" y="754" on="1"/>
        <pt x="439" y="791" on="1"/>
        <pt x="522" y="745" on="1"/>
        <pt x="504" y="713" on="0"/>
        <pt x="462" y="653" on="0"/>
        <pt x="410" y="607" on="0"/>
        <pt x="346" y="579" on="0"/>
      </contour>
    </TTGlyph>
    <TTGlyph name="breve.case" xMin="135" yMin="739" xMax="522" yMax="951">
      <contour>
        <pt x="305" y="739" on="1"/>
        <pt x="263" y="739" on="0"/>
        <pt x="204" y="769" on="0"/>
        <pt x="164" y="817" on="0"/>
        <pt x="141" y="878" on="0"/>
        <pt x="135" y="909" on="1"/>
        <pt x="215" y="951" on="1"/>
        <pt x="233" y="912" on="1"/>
        <pt x="249" y="878" on="0"/>
        <pt x="281" y="840" on="0"/>
        <pt x="313" y="840" on="1"/>
        <pt x="340" y="840" on="0"/>
        <pt x="383" y="877" on="0"/>
        <pt x="411" y="914" on="1"/>
        <pt x="439" y="951" on="1"/>
        <pt x="522" y="905" on="1"/>
        <pt x="504" y="873" on="0"/>
        <pt x="462" y="813" on="0"/>
        <pt x="410" y="767" on="0"/>
        <pt x="346" y="739" on="0"/>
      </contour>
    </TTGlyph>
    <TTGlyph name="breve.cyrl" xMin="146" yMin="579" xMax="522" yMax="785">
      <contour>
        <pt x="309" y="579" on="1"/>
        <pt x="257" y="579" on="0"/>
        <pt x="183" y="631" on="0"/>
        <pt x="163" y="691" on="1"/>
        <pt x="146" y="742" on="1"/>
        <pt x="261" y="785" on="1"/>
        <pt x="277" y="684" on="1"/>
        <pt x="285" y="681" on="0"/>
        <pt x="310" y="677" on="0"/>
        <pt x="322" y="677" on="1"/>
        <pt x="351" y="677" on="0"/>
        <pt x="365" y="684" on="1"/>
        <pt x="411" y="785" on="1"/>
        <pt x="522" y="742" on="1"/>
        <pt x="492" y="691" on="1"/>
        <pt x="459" y="634" on="0"/>
        <pt x="369" y="579" on="0"/>
      </contour>
    </TTGlyph>
    <TTGlyph name="breve.cyrl_case" xMin="147" yMin="740" xMax="523" yMax="946">
      <contour>
        <pt x="310" y="740" on="1"/>
        <pt x="258" y="740" on="0"/>
        <pt x="184" y="792" on="0"/>
        <pt x="164" y="852" on="1"/>
        <pt x="147" y="903" on="1"/>
        <pt x="262" y="946" on="1"/>
        <pt x="278" y="845" on="1"/>
        <pt x="286" y="842" on="0"/>
        <pt x="311" y="838" on="0"/>
        <pt x="323" y="838" on="1"/>
        <pt x="352" y="838" on="0"/>
        <pt x="366" y="845" on="1"/>
        <pt x="412" y="946" on="1"/>
        <pt x="523" y="903" on="1"/>
        <pt x="493" y="852" on="1"/>
        <pt x="460" y="795" on="0"/>
        <pt x="370" y="740" on="0"/>
      </contour>
    </TTGlyph>
    <TTGlyph name="breveacute" xMin="-168" yMin="572" xMax="235" yMax="967">
      <contour>
        <pt x="15" y="572" on="1"/>
        <pt x="-30" y="572" on="0"/>
        <pt x="-94" y="598" on="0"/>
        <pt x="-137" y="640" on="0"/>
        <pt x="-162" y="694" on="0"/>
        <pt x="-168" y="723" on="1"/>
        <pt x="-93" y="768" on="1"/>
        <pt x="-77" y="739" on="1"/>
        <pt x="-66" y="720" on="0"/>
        <pt x="-47" y="694" on="0"/>
        <pt x="-26" y="678" on="0"/>
        <pt x="1" y="671" on="0"/>
        <pt x="19" y="671" on="1"/>
        <pt x="34" y="671" on="0"/>
        <pt x="60" y="678" on="0"/>
        <pt x="87" y="693" on="0"/>
        <pt x="117" y="719" on="0"/>
        <pt x="135" y="739" on="1"/>
        <pt x="162" y="768" on="1"/>
        <pt x="235" y="719" on="1"/>
        <pt x="215" y="687" on="0"/>
        <pt x="173" y="634" on="0"/>
        <pt x="121" y="594" on="0"/>
        <pt x="56" y="572" on="0"/>
      </contour>
      <contour>
        <pt x="51" y="733" on="1"/>
        <pt x="-25" y="773" on="1"/>
        <pt x="82" y="967" on="1"/>
        <pt x="189" y="909" on="1"/>
      </contour>
    </TTGlyph>
    <TTGlyph name="breveacute.case" xMin="-168" yMin="732" xMax="235" yMax="1127">
      <contour>
        <pt x="15" y="732" on="1"/>
        <pt x="-30" y="732" on="0"/>
        <pt x="-94" y="757" on="0"/>
        <pt x="-137" y="799" on="0"/>
        <pt x="-162" y="852" on="0"/>
        <pt x="-168" y="881" on="1"/>
        <pt x="-91" y="928" on="1"/>
        <pt x="-75" y="899" on="1"/>
        <pt x="-64" y="880" on="0"/>
        <pt x="-45" y="854" on="0"/>
        <pt x="-24" y="838" on="0"/>
        <pt x="3" y="831" on="0"/>
        <pt x="21" y="831" on="1"/>
        <pt x="36" y="831" on="0"/>
        <pt x="62" y="838" on="0"/>
        <pt x="89" y="853" on="0"/>
        <pt x="119" y="879" on="0"/>
        <pt x="137" y="899" on="1"/>
        <pt x="164" y="928" on="1"/>
        <pt x="235" y="881" on="1"/>
        <pt x="215" y="849" on="0"/>
        <pt x="173" y="795" on="0"/>
        <pt x="121" y="755" on="0"/>
        <pt x="56" y="732" on="0"/>
      </contour>
      <contour>
        <pt x="51" y="893" on="1"/>
        <pt x="-24" y="933" on="1"/>
        <pt x="82" y="1127" on="1"/>
        <pt x="189" y="1069" on="1"/>
      </contour>
    </TTGlyph>
    <TTGlyph name="brevegrave" xMin="-168" yMin="572" xMax="235" yMax="965">
      <contour>
        <pt x="15" y="572" on="1"/>
        <pt x="-30" y="572" on="0"/>
        <pt x="-94" y="598" on="0"/>
        <pt x="-137" y="640" on="0"/>
        <pt x="-162" y="694" on="0"/>
        <pt x="-168" y="723" on="1"/>
        <pt x="-93" y="768" on="1"/>
        <pt x="-77" y="739" on="1"/>
        <pt x="-66" y="720" on="0"/>
        <pt x="-47" y="694" on="0"/>
        <pt x="-26" y="678" on="0"/>
        <pt x="1" y="671" on="0"/>
        <pt x="19" y="671" on="1"/>
        <pt x="34" y="671" on="0"/>
        <pt x="60" y="678" on="0"/>
        <pt x="87" y="693" on="0"/>
        <pt x="117" y="719" on="0"/>
        <pt x="135" y="739" on="1"/>
        <pt x="162" y="768" on="1"/>
        <pt x="235" y="719" on="1"/>
        <pt x="215" y="687" on="0"/>
        <pt x="173" y="634" on="0"/>
        <pt x="121" y="594" on="0"/>
        <pt x="56" y="572" on="0"/>
      </contour>
      <contour>
        <pt x="-85" y="910" on="1"/>
        <pt x="35" y="965" on="1"/>
        <pt x="95" y="772" on="1"/>
        <pt x="12" y="734" on="1"/>
      </contour>
    </TTGlyph>
    <TTGlyph name="brevegrave.case" xMin="-168" yMin="732" xMax="235" yMax="1125">
      <contour>
        <pt x="15" y="732" on="1"/>
        <pt x="-30" y="732" on="0"/>
        <pt x="-94" y="757" on="0"/>
        <pt x="-137" y="799" on="0"/>
        <pt x="-162" y="852" on="0"/>
        <pt x="-168" y="881" on="1"/>
        <pt x="-91" y="928" on="1"/>
        <pt x="-75" y="899" on="1"/>
        <pt x="-64" y="880" on="0"/>
        <pt x="-45" y="854" on="0"/>
        <pt x="-24" y="838" on="0"/>
        <pt x="3" y="831" on="0"/>
        <pt x="21" y="831" on="1"/>
        <pt x="36" y="831" on="0"/>
        <pt x="62" y="838" on="0"/>
        <pt x="89" y="853" on="0"/>
        <pt x="119" y="879" on="0"/>
        <pt x="137" y="899" on="1"/>
        <pt x="164" y="928" on="1"/>
        <pt x="235" y="881" on="1"/>
        <pt x="215" y="849" on="0"/>
        <pt x="173" y="795" on="0"/>
        <pt x="121" y="755" on="0"/>
        <pt x="56" y="732" on="0"/>
      </contour>
      <contour>
        <pt x="-85" y="1070" on="1"/>
        <pt x="35" y="1125" on="1"/>
        <pt x="95" y="932" on="1"/>
        <pt x="12" y="894" on="1"/>
      </contour>
    </TTGlyph>
    <TTGlyph name="brevehook" xMin="-168" yMin="572" xMax="235" yMax="952">
      <contour>
        <pt x="15" y="572" on="1"/>
        <pt x="-30" y="572" on="0"/>
        <pt x="-94" y="598" on="0"/>
        <pt x="-137" y="640" on="0"/>
        <pt x="-162" y="694" on="0"/>
        <pt x="-168" y="723" on="1"/>
        <pt x="-93" y="768" on="1"/>
        <pt x="-77" y="739" on="1"/>
        <pt x="-66" y="720" on="0"/>
        <pt x="-47" y="694" on="0"/>
        <pt x="-26" y="678" on="0"/>
        <pt x="1" y="671" on="0"/>
        <pt x="19" y="671" on="1"/>
        <pt x="34" y="671" on="0"/>
        <pt x="60" y="678" on="0"/>
        <pt x="87" y="693" on="0"/>
        <pt x="117" y="719" on="0"/>
        <pt x="135" y="739" on="1"/>
        <pt x="162" y="768" on="1"/>
        <pt x="235" y="719" on="1"/>
        <pt x="215" y="687" on="0"/>
        <pt x="173" y="634" on="0"/>
        <pt x="121" y="594" on="0"/>
        <pt x="56" y="572" on="0"/>
      </contour>
      <contour>
        <pt x="-55" y="952" on="1"/>
        <pt x="79" y="952" on="1"/>
        <pt x="118" y="952" on="0"/>
        <pt x="156" y="919" on="0"/>
        <pt x="156" y="895" on="1"/>
        <pt x="156" y="863" on="0"/>
        <pt x="127" y="814" on="0"/>
        <pt x="106" y="787" on="1"/>
        <pt x="49" y="721" on="1"/>
        <pt x="-19" y="755" on="1"/>
        <pt x="32" y="851" on="1"/>
        <pt x="-75" y="851" on="1"/>
      </contour>
    </TTGlyph>
    <TTGlyph name="brevehook.case" xMin="-168" yMin="732" xMax="235" yMax="1112">
      <contour>
        <pt x="-55" y="1112" on="1"/>
        <pt x="79" y="1112" on="1"/>
        <pt x="118" y="1112" on="0"/>
        <pt x="156" y="1079" on="0"/>
        <pt x="156" y="1055" on="1"/>
        <pt x="156" y="1023" on="0"/>
        <pt x="127" y="974" on="0"/>
        <pt x="106" y="947" on="1"/>
        <pt x="49" y="881" on="1"/>
        <pt x="-19" y="915" on="1"/>
        <pt x="32" y="1011" on="1"/>
        <pt x="-75" y="1011" on="1"/>
      </contour>
      <contour>
        <pt x="15" y="732" on="1"/>
        <pt x="-30" y="732" on="0"/>
        <pt x="-94" y="757" on="0"/>
        <pt x="-137" y="799" on="0"/>
        <pt x="-162" y="852" on="0"/>
        <pt x="-168" y="881" on="1"/>
        <pt x="-91" y="928" on="1"/>
        <pt x="-75" y="899" on="1"/>
        <pt x="-64" y="880" on="0"/>
        <pt x="-45" y="854" on="0"/>
        <pt x="-24" y="838" on="0"/>
        <pt x="3" y="831" on="0"/>
        <pt x="21" y="831" on="1"/>
        <pt x="36" y="831" on="0"/>
        <pt x="62" y="838" on="0"/>
        <pt x="89" y="853" on="0"/>
        <pt x="119" y="879" on="0"/>
        <pt x="137" y="899" on="1"/>
        <pt x="164" y="928" on="1"/>
        <pt x="235" y="881" on="1"/>
        <pt x="215" y="849" on="0"/>
        <pt x="173" y="795" on="0"/>
        <pt x="121" y="755" on="0"/>
        <pt x="56" y="732" on="0"/>
      </contour>
    </TTGlyph>
    <TTGlyph name="brevetilde" xMin="-168" yMin="572" xMax="235" yMax="931">
      <contour>
        <pt x="15" y="572" on="1"/>
        <pt x="-30" y="572" on="0"/>
        <pt x="-94" y="598" on="0"/>
        <pt x="-137" y="640" on="0"/>
        <pt x="-162" y="694" on="0"/>
        <pt x="-168" y="723" on="1"/>
        <pt x="-93" y="768" on="1"/>
        <pt x="-77" y="739" on="1"/>
        <pt x="-66" y="720" on="0"/>
        <pt x="-47" y="694" on="0"/>
        <pt x="-26" y="678" on="0"/>
        <pt x="1" y="671" on="0"/>
        <pt x="19" y="671" on="1"/>
        <pt x="34" y="671" on="0"/>
        <pt x="60" y="678" on="0"/>
        <pt x="87" y="693" on="0"/>
        <pt x="117" y="719" on="0"/>
        <pt x="135" y="739" on="1"/>
        <pt x="162" y="768" on="1"/>
        <pt x="235" y="719" on="1"/>
        <pt x="215" y="687" on="0"/>
        <pt x="173" y="634" on="0"/>
        <pt x="121" y="594" on="0"/>
        <pt x="56" y="572" on="0"/>
      </contour>
      <contour>
        <pt x="101" y="787" on="1"/>
        <pt x="81" y="787" on="0"/>
        <pt x="50" y="799" on="0"/>
        <pt x="33" y="807" on="1"/>
        <pt x="14" y="817" on="0"/>
        <pt x="-16" y="829" on="0"/>
        <pt x="-35" y="829" on="1"/>
        <pt x="-51" y="829" on="0"/>
        <pt x="-79" y="817" on="0"/>
        <pt x="-97" y="804" on="1"/>
        <pt x="-131" y="869" on="1"/>
        <pt x="-110" y="895" on="0"/>
        <pt x="-48" y="931" on="0"/>
        <pt x="-10" y="931" on="1"/>
        <pt x="10" y="931" on="0"/>
        <pt x="41" y="919" on="0"/>
        <pt x="58" y="911" on="1"/>
        <pt x="77" y="901" on="0"/>
        <pt x="107" y="889" on="0"/>
        <pt x="126" y="889" on="1"/>
        <pt x="142" y="889" on="0"/>
        <pt x="170" y="901" on="0"/>
        <pt x="188" y="914" on="1"/>
        <pt x="222" y="849" on="1"/>
        <pt x="201" y="823" on="0"/>
        <pt x="139" y="787" on="0"/>
      </contour>
    </TTGlyph>
    <TTGlyph name="brevetilde.case" xMin="-168" yMin="732" xMax="235" yMax="1091">
      <contour>
        <pt x="101" y="947" on="1"/>
        <pt x="81" y="947" on="0"/>
        <pt x="50" y="959" on="0"/>
        <pt x="33" y="967" on="1"/>
        <pt x="14" y="977" on="0"/>
        <pt x="-16" y="989" on="0"/>
        <pt x="-35" y="989" on="1"/>
        <pt x="-51" y="989" on="0"/>
        <pt x="-79" y="977" on="0"/>
        <pt x="-97" y="964" on="1"/>
        <pt x="-131" y="1029" on="1"/>
        <pt x="-110" y="1055" on="0"/>
        <pt x="-48" y="1091" on="0"/>
        <pt x="-10" y="1091" on="1"/>
        <pt x="10" y="1091" on="0"/>
        <pt x="41" y="1079" on="0"/>
        <pt x="58" y="1071" on="1"/>
        <pt x="77" y="1061" on="0"/>
        <pt x="107" y="1049" on="0"/>
        <pt x="126" y="1049" on="1"/>
        <pt x="142" y="1049" on="0"/>
        <pt x="170" y="1061" on="0"/>
        <pt x="188" y="1074" on="1"/>
        <pt x="222" y="1009" on="1"/>
        <pt x="201" y="983" on="0"/>
        <pt x="139" y="947" on="0"/>
      </contour>
      <contour>
        <pt x="15" y="732" on="1"/>
        <pt x="-30" y="732" on="0"/>
        <pt x="-94" y="757" on="0"/>
        <pt x="-137" y="799" on="0"/>
        <pt x="-162" y="852" on="0"/>
        <pt x="-168" y="881" on="1"/>
        <pt x="-91" y="928" on="1"/>
        <pt x="-75" y="899" on="1"/>
        <pt x="-64" y="880" on="0"/>
        <pt x="-45" y="854" on="0"/>
        <pt x="-24" y="838" on="0"/>
        <pt x="3" y="831" on="0"/>
        <pt x="21" y="831" on="1"/>
        <pt x="36" y="831" on="0"/>
        <pt x="62" y="838" on="0"/>
        <pt x="89" y="853" on="0"/>
        <pt x="119" y="879" on="0"/>
        <pt x="137" y="899" on="1"/>
        <pt x="164" y="928" on="1"/>
        <pt x="235" y="881" on="1"/>
        <pt x="215" y="849" on="0"/>
        <pt x="173" y="795" on="0"/>
        <pt x="121" y="755" on="0"/>
        <pt x="56" y="732" on="0"/>
      </contour>
    </TTGlyph>
    <TTGlyph name="brokenbar" xMin="54" yMin="-138" xMax="360" yMax="760">
      <contour>
        <pt x="162" y="401" on="1"/>
        <pt x="234" y="760" on="1"/>
        <pt x="360" y="760" on="1"/>
        <pt x="288" y="401" on="1"/>
      </contour>
      <contour>
        <pt x="54" y="-138" on="1"/>
        <pt x="126" y="221" on="1"/>
        <pt x="252" y="221" on="1"/>
        <pt x="180" y="-138" on="1"/>
      </contour>
    </TTGlyph>
    <TTGlyph name="bullet" xMin="60" yMin="150" xMax="377" yMax="448">
      <contour>
        <pt x="198" y="150" on="1"/>
        <pt x="121" y="150" on="0"/>
        <pt x="60" y="206" on="0"/>
        <pt x="60" y="250" on="1"/>
        <pt x="60" y="254" on="0"/>
        <pt x="63" y="285" on="0"/>
        <pt x="69" y="317" on="1"/>
        <pt x="74" y="344" on="0"/>
        <pt x="98" y="392" on="0"/>
        <pt x="139" y="428" on="0"/>
        <pt x="198" y="448" on="0"/>
        <pt x="238" y="448" on="1"/>
        <pt x="315" y="448" on="0"/>
        <pt x="377" y="393" on="0"/>
        <pt x="377" y="349" on="1"/>
        <pt x="377" y="335" on="0"/>
        <pt x="370" y="300" on="0"/>
        <pt x="366" y="281" on="1"/>
        <pt x="355" y="222" on="0"/>
        <pt x="276" y="150" on="0"/>
      </contour>
    </TTGlyph>
    <TTGlyph name="c" xMin="31" yMin="-12" xMax="498" yMax="537">
      <contour>
        <pt x="237" y="-12" on="1"/>
        <pt x="194" y="-12" on="0"/>
        <pt x="119" y="13" on="0"/>
        <pt x="63" y="68" on="0"/>
        <pt x="31" y="154" on="0"/>
        <pt x="31" y="215" on="1"/>
        <pt x="31" y="285" on="0"/>
        <pt x="73" y="403" on="0"/>
        <pt x="148" y="489" on="0"/>
        <pt x="250" y="537" on="0"/>
        <pt x="310" y="537" on="1"/>
        <pt x="347" y="537" on="0"/>
        <pt x="412" y="518" on="0"/>
        <pt x="461" y="482" on="0"/>
        <pt x="493" y="432" on="0"/>
        <pt x="498" y="401" on="1"/>
        <pt x="380" y="356" on="1"/>
        <pt x="371" y="387" on="0"/>
        <pt x="340" y="424" on="0"/>
        <pt x="302" y="424" on="1"/>
        <pt x="215" y="424" on="0"/>
        <pt x="193" y="314" on="1"/>
        <pt x="175" y="225" on="1"/>
        <pt x="170" y="202" on="0"/>
        <pt x="170" y="183" on="1"/>
        <pt x="170" y="146" on="0"/>
        <pt x="207" y="101" on="0"/>
        <pt x="249" y="101" on="1"/>
        <pt x="269" y="101" on="0"/>
        <pt x="299" y="113" on="0"/>
        <pt x="322" y="135" on="0"/>
        <pt x="342" y="165" on="0"/>
        <pt x="353" y="184" on="1"/>
        <pt x="460" y="134" on="1"/>
        <pt x="425" y="61" on="0"/>
        <pt x="312" y="-12" on="0"/>
      </contour>
    </TTGlyph>
    <TTGlyph name="cacute" xMin="31" yMin="-12" xMax="498" yMax="815">
      <component glyphName="c" x="0" y="0" flags="0x204"/>
      <component glyphName="acute" x="20" y="0" flags="0x4"/>
    </TTGlyph>
    <TTGlyph name="caron" xMin="140" yMin="588" xMax="519" yMax="803">
      <contour>
        <pt x="241" y="588" on="1"/>
        <pt x="140" y="746" on="1"/>
        <pt x="214" y="803" on="1"/>
        <pt x="310" y="688" on="1"/>
        <pt x="447" y="803" on="1"/>
        <pt x="519" y="746" on="1"/>
        <pt x="364" y="588" on="1"/>
      </contour>
    </TTGlyph>
    <TTGlyph name="caron.case" xMin="140" yMin="748" xMax="519" yMax="963">
      <contour>
        <pt x="241" y="748" on="1"/>
        <pt x="140" y="906" on="1"/>
        <pt x="214" y="963" on="1"/>
        <pt x="310" y="848" on="1"/>
        <pt x="447" y="963" on="1"/>
        <pt x="519" y="906" on="1"/>
        <pt x="364" y="748" on="1"/>
      </contour>
    </TTGlyph>
    <TTGlyph name="ccaron" xMin="31" yMin="-12" xMax="539" yMax="803">
      <component glyphName="c" x="0" y="0" flags="0x204"/>
      <component glyphName="caron" x="20" y="0" flags="0x4"/>
    </TTGlyph>
    <TTGlyph name="ccedilla" xMin="31" yMin="-212" xMax="498" yMax="537">
      <contour>
        <pt x="310" y="537" on="1"/>
        <pt x="347" y="537" on="0"/>
        <pt x="412" y="518" on="0"/>
        <pt x="461" y="482" on="0"/>
        <pt x="493" y="432" on="0"/>
        <pt x="498" y="401" on="1"/>
        <pt x="380" y="356" on="1"/>
        <pt x="371" y="387" on="0"/>
        <pt x="340" y="424" on="0"/>
        <pt x="302" y="424" on="1"/>
        <pt x="215" y="424" on="0"/>
        <pt x="193" y="314" on="1"/>
        <pt x="175" y="225" on="1"/>
        <pt x="170" y="202" on="0"/>
        <pt x="170" y="183" on="1"/>
        <pt x="170" y="146" on="0"/>
        <pt x="207" y="101" on="0"/>
        <pt x="249" y="101" on="1"/>
        <pt x="269" y="101" on="0"/>
        <pt x="299" y="113" on="0"/>
        <pt x="322" y="135" on="0"/>
        <pt x="342" y="165" on="0"/>
        <pt x="353" y="184" on="1"/>
        <pt x="460" y="134" on="1"/>
        <pt x="428" y="68" on="0"/>
        <pt x="330" y="-4" on="0"/>
        <pt x="265" y="-10" on="1"/>
        <pt x="247" y="-55" on="1"/>
        <pt x="249" y="-59" on="1"/>
        <pt x="271" y="-52" on="0"/>
        <pt x="292" y="-52" on="1"/>
        <pt x="318" y="-52" on="0"/>
        <pt x="354" y="-82" on="0"/>
        <pt x="354" y="-108" on="1"/>
        <pt x="354" y="-134" on="0"/>
        <pt x="331" y="-173" on="0"/>
        <pt x="292" y="-199" on="0"/>
        <pt x="240" y="-212" on="0"/>
        <pt x="210" y="-212" on="1"/>
        <pt x="168" y="-212" on="0"/>
        <pt x="112" y="-185" on="0"/>
        <pt x="99" y="-166" on="1"/>
        <pt x="151" y="-114" on="1"/>
        <pt x="157" y="-123" on="0"/>
        <pt x="187" y="-142" on="0"/>
        <pt x="209" y="-142" on="1"/>
        <pt x="230" y="-142" on="0"/>
        <pt x="259" y="-128" on="0"/>
        <pt x="259" y="-111" on="1"/>
        <pt x="259" y="-99" on="0"/>
        <pt x="231" y="-79" on="0"/>
        <pt x="193" y="-75" on="1"/>
        <pt x="171" y="-73" on="1"/>
        <pt x="198" y="-9" on="1"/>
        <pt x="162" y="-4" on="0"/>
        <pt x="101" y="27" on="0"/>
        <pt x="56" y="81" on="0"/>
        <pt x="31" y="161" on="0"/>
        <pt x="31" y="215" on="1"/>
        <pt x="31" y="285" on="0"/>
        <pt x="73" y="403" on="0"/>
        <pt x="148" y="489" on="0"/>
        <pt x="250" y="537" on="0"/>
      </contour>
    </TTGlyph>
    <TTGlyph name="ccircumflex" xMin="31" yMin="-12" xMax="516" yMax="794">
      <component glyphName="c" x="0" y="0" flags="0x204"/>
      <component glyphName="circumflex" x="20" y="0" flags="0x4"/>
    </TTGlyph>
    <TTGlyph name="cdotaccent" xMin="31" yMin="-12" xMax="498" yMax="759">
      <component glyphName="c" x="0" y="0" flags="0x204"/>
      <component glyphName="dotaccent" x="20" y="0" flags="0x4"/>
    </TTGlyph>
    <TTGlyph name="cedilla" xMin="158" yMin="-212" xMax="413" yMax="30">
      <contour>
        <pt x="269" y="-212" on="1"/>
        <pt x="227" y="-212" on="0"/>
        <pt x="171" y="-185" on="0"/>
        <pt x="158" y="-166" on="1"/>
        <pt x="210" y="-114" on="1"/>
        <pt x="216" y="-123" on="0"/>
        <pt x="246" y="-142" on="0"/>
        <pt x="268" y="-142" on="1"/>
        <pt x="289" y="-142" on="0"/>
        <pt x="318" y="-128" on="0"/>
        <pt x="318" y="-111" on="1"/>
        <pt x="318" y="-99" on="0"/>
        <pt x="290" y="-79" on="0"/>
        <pt x="252" y="-75" on="1"/>
        <pt x="230" y="-73" on="1"/>
        <pt x="274" y="30" on="1"/>
        <pt x="340" y="30" on="1"/>
        <pt x="306" y="-55" on="1"/>
        <pt x="308" y="-59" on="1"/>
        <pt x="330" y="-52" on="0"/>
        <pt x="351" y="-52" on="1"/>
        <pt x="377" y="-52" on="0"/>
        <pt x="413" y="-82" on="0"/>
        <pt x="413" y="-108" on="1"/>
        <pt x="413" y="-134" on="0"/>
        <pt x="390" y="-173" on="0"/>
        <pt x="351" y="-199" on="0"/>
        <pt x="299" y="-212" on="0"/>
      </contour>
    </TTGlyph>
    <TTGlyph name="cent" xMin="33" yMin="-114" xMax="527" yMax="630">
      <contour>
        <pt x="182" y="-4" on="1"/>
        <pt x="114" y="14" on="0"/>
        <pt x="33" y="131" on="0"/>
        <pt x="33" y="222" on="1"/>
        <pt x="33" y="278" on="0"/>
        <pt x="68" y="381" on="0"/>
        <pt x="134" y="462" on="0"/>
        <pt x="228" y="517" on="0"/>
        <pt x="287" y="525" on="1"/>
        <pt x="308" y="630" on="1"/>
        <pt x="418" y="630" on="1"/>
        <pt x="396" y="521" on="1"/>
        <pt x="447" y="508" on="0"/>
        <pt x="515" y="443" on="0"/>
        <pt x="527" y="399" on="1"/>
        <pt x="419" y="346" on="1"/>
        <pt x="414" y="368" on="0"/>
        <pt x="387" y="403" on="0"/>
        <pt x="365" y="412" on="1"/>
        <pt x="303" y="103" on="1"/>
        <pt x="330" y="112" on="0"/>
        <pt x="374" y="150" on="0"/>
        <pt x="391" y="173" on="1"/>
        <pt x="483" y="114" on="1"/>
        <pt x="450" y="66" on="0"/>
        <pt x="357" y="2" on="0"/>
        <pt x="291" y="-8" on="1"/>
        <pt x="270" y="-114" on="1"/>
        <pt x="160" y="-114" on="1"/>
      </contour>
      <contour>
        <pt x="168" y="186" on="1"/>
        <pt x="168" y="127" on="0"/>
        <pt x="213" y="106" on="1"/>
        <pt x="274" y="410" on="1"/>
        <pt x="241" y="397" on="0"/>
        <pt x="197" y="342" on="0"/>
        <pt x="189" y="303" on="1"/>
        <pt x="171" y="213" on="1"/>
        <pt x="168" y="198" on="0"/>
      </contour>
    </TTGlyph>
    <TTGlyph name="chi" xMin="-77" yMin="-200" xMax="576" yMax="525">
      <contour>
        <pt x="157" y="525" on="1"/>
        <pt x="201" y="525" on="0"/>
        <pt x="247" y="483" on="0"/>
        <pt x="253" y="435" on="1"/>
        <pt x="273" y="269" on="1"/>
        <pt x="277" y="269" on="1"/>
        <pt x="423" y="525" on="1"/>
        <pt x="576" y="525" on="1"/>
        <pt x="343" y="162" on="1"/>
        <pt x="388" y="-88" on="1"/>
        <pt x="457" y="-88" on="1"/>
        <pt x="435" y="-200" on="1"/>
        <pt x="351" y="-200" on="1"/>
        <pt x="309" y="-200" on="0"/>
        <pt x="260" y="-158" on="0"/>
        <pt x="255" y="-110" on="1"/>
        <pt x="234" y="71" on="1"/>
        <pt x="230" y="71" on="1"/>
        <pt x="76" y="-200" on="1"/>
        <pt x="-77" y="-200" on="1"/>
        <pt x="166" y="179" on="1"/>
        <pt x="120" y="413" on="1"/>
        <pt x="51" y="413" on="1"/>
        <pt x="73" y="525" on="1"/>
      </contour>
    </TTGlyph>
    <TTGlyph name="circumflex" xMin="118" yMin="579" xMax="496" yMax="794">
      <contour>
        <pt x="396" y="794" on="1"/>
        <pt x="496" y="636" on="1"/>
        <pt x="421" y="579" on="1"/>
        <pt x="322" y="694" on="1"/>
        <pt x="188" y="579" on="1"/>
        <pt x="118" y="636" on="1"/>
        <pt x="274" y="794" on="1"/>
      </contour>
    </TTGlyph>
    <TTGlyph name="circumflex.case" xMin="118" yMin="739" xMax="496" yMax="954">
      <contour>
        <pt x="396" y="954" on="1"/>
        <pt x="496" y="796" on="1"/>
        <pt x="421" y="739" on="1"/>
        <pt x="322" y="854" on="1"/>
        <pt x="188" y="739" on="1"/>
        <pt x="118" y="796" on="1"/>
        <pt x="274" y="954" on="1"/>
      </contour>
    </TTGlyph>
    <TTGlyph name="circumflexacute" xMin="-168" yMin="569" xMax="349" yMax="965">
      <contour>
        <pt x="213" y="735" on="1"/>
        <pt x="137" y="775" on="1"/>
        <pt x="241" y="965" on="1"/>
        <pt x="349" y="910" on="1"/>
      </contour>
      <contour>
        <pt x="93" y="780" on="1"/>
        <pt x="206" y="632" on="1"/>
        <pt x="135" y="569" on="1"/>
        <pt x="37" y="674" on="1"/>
        <pt x="-105" y="569" on="1"/>
        <pt x="-168" y="632" on="1"/>
        <pt x="3" y="780" on="1"/>
      </contour>
    </TTGlyph>
    <TTGlyph name="circumflexacute.case" xMin="-174" yMin="731" xMax="343" yMax="1125">
      <contour>
        <pt x="207" y="895" on="1"/>
        <pt x="131" y="935" on="1"/>
        <pt x="235" y="1125" on="1"/>
        <pt x="343" y="1070" on="1"/>
      </contour>
      <contour>
        <pt x="87" y="940" on="1"/>
        <pt x="200" y="794" on="1"/>
        <pt x="129" y="731" on="1"/>
        <pt x="26" y="835" on="1"/>
        <pt x="-109" y="731" on="1"/>
        <pt x="-174" y="794" on="1"/>
        <pt x="-3" y="940" on="1"/>
      </contour>
    </TTGlyph>
    <TTGlyph name="circumflexbreve" xMin="-160" yMin="574" xMax="238" yMax="956">
      <contour>
        <pt x="89" y="755" on="1"/>
        <pt x="204" y="638" on="1"/>
        <pt x="136" y="574" on="1"/>
        <pt x="31" y="657" on="1"/>
        <pt x="-106" y="574" on="1"/>
        <pt x="-160" y="638" on="1"/>
        <pt x="-3" y="755" on="1"/>
      </contour>
      <contour>
        <pt x="44" y="778" on="1"/>
        <pt x="6" y="778" on="0"/>
        <pt x="-49" y="802" on="0"/>
        <pt x="-89" y="841" on="0"/>
        <pt x="-115" y="890" on="0"/>
        <pt x="-122" y="914" on="1"/>
        <pt x="-53" y="956" on="1"/>
        <pt x="-38" y="932" on="1"/>
        <pt x="-17" y="898" on="0"/>
        <pt x="22" y="871" on="0"/>
        <pt x="52" y="871" on="1"/>
        <pt x="79" y="871" on="0"/>
        <pt x="123" y="896" on="0"/>
        <pt x="154" y="929" on="1"/>
        <pt x="179" y="956" on="1"/>
        <pt x="238" y="912" on="1"/>
        <pt x="224" y="887" on="0"/>
        <pt x="187" y="839" on="0"/>
        <pt x="138" y="801" on="0"/>
        <pt x="79" y="778" on="0"/>
      </contour>
    </TTGlyph>
    <TTGlyph name="circumflexbreve.case" xMin="-169" yMin="734" xMax="229" yMax="1116">
      <contour>
        <pt x="80" y="915" on="1"/>
        <pt x="195" y="798" on="1"/>
        <pt x="127" y="734" on="1"/>
        <pt x="22" y="817" on="1"/>
        <pt x="-115" y="734" on="1"/>
        <pt x="-169" y="798" on="1"/>
        <pt x="-12" y="915" on="1"/>
      </contour>
      <contour>
        <pt x="35" y="938" on="1"/>
        <pt x="-3" y="938" on="0"/>
        <pt x="-58" y="962" on="0"/>
        <pt x="-98" y="1001" on="0"/>
        <pt x="-124" y="1050" on="0"/>
        <pt x="-131" y="1074" on="1"/>
        <pt x="-62" y="1116" on="1"/>
        <pt x="-47" y="1092" on="1"/>
        <pt x="-26" y="1058" on="0"/>
        <pt x="13" y="1031" on="0"/>
        <pt x="43" y="1031" on="1"/>
        <pt x="70" y="1031" on="0"/>
        <pt x="114" y="1056" on="0"/>
        <pt x="145" y="1089" on="1"/>
        <pt x="170" y="1116" on="1"/>
        <pt x="229" y="1072" on="1"/>
        <pt x="215" y="1047" on="0"/>
        <pt x="178" y="999" on="0"/>
        <pt x="129" y="961" on="0"/>
        <pt x="70" y="938" on="0"/>
      </contour>
    </TTGlyph>
    <TTGlyph name="circumflexgrave" xMin="-239" yMin="569" xMax="206" yMax="965">
      <contour>
        <pt x="-239" y="910" on="1"/>
        <pt x="-127" y="965" on="1"/>
        <pt x="-54" y="772" on="1"/>
        <pt x="-127" y="734" on="1"/>
      </contour>
      <contour>
        <pt x="93" y="780" on="1"/>
        <pt x="206" y="632" on="1"/>
        <pt x="135" y="569" on="1"/>
        <pt x="37" y="674" on="1"/>
        <pt x="-105" y="569" on="1"/>
        <pt x="-168" y="632" on="1"/>
        <pt x="3" y="780" on="1"/>
      </contour>
    </TTGlyph>
    <TTGlyph name="circumflexgrave.case" xMin="-246" yMin="731" xMax="199" yMax="1125">
      <contour>
        <pt x="-246" y="1070" on="1"/>
        <pt x="-134" y="1125" on="1"/>
        <pt x="-61" y="932" on="1"/>
        <pt x="-134" y="894" on="1"/>
      </contour>
      <contour>
        <pt x="86" y="940" on="1"/>
        <pt x="199" y="794" on="1"/>
        <pt x="128" y="731" on="1"/>
        <pt x="25" y="835" on="1"/>
        <pt x="-110" y="731" on="1"/>
        <pt x="-175" y="794" on="1"/>
        <pt x="-4" y="940" on="1"/>
      </contour>
    </TTGlyph>
    <TTGlyph name="circumflexhook" xMin="-168" yMin="569" xMax="322" yMax="952">
      <contour>
        <pt x="111" y="952" on="1"/>
        <pt x="246" y="952" on="1"/>
        <pt x="285" y="952" on="0"/>
        <pt x="322" y="919" on="0"/>
        <pt x="322" y="895" on="1"/>
        <pt x="322" y="863" on="0"/>
        <pt x="294" y="814" on="0"/>
        <pt x="272" y="787" on="1"/>
        <pt x="215" y="721" on="1"/>
        <pt x="147" y="755" on="1"/>
        <pt x="199" y="851" on="1"/>
        <pt x="91" y="851" on="1"/>
      </contour>
      <contour>
        <pt x="93" y="780" on="1"/>
        <pt x="206" y="632" on="1"/>
        <pt x="135" y="569" on="1"/>
        <pt x="37" y="674" on="1"/>
        <pt x="-105" y="569" on="1"/>
        <pt x="-168" y="632" on="1"/>
        <pt x="3" y="780" on="1"/>
      </contour>
    </TTGlyph>
    <TTGlyph name="circumflexhook.case" xMin="-175" yMin="731" xMax="315" yMax="1112">
      <contour>
        <pt x="104" y="1112" on="1"/>
        <pt x="239" y="1112" on="1"/>
        <pt x="278" y="1112" on="0"/>
        <pt x="315" y="1079" on="0"/>
        <pt x="315" y="1055" on="1"/>
        <pt x="315" y="1023" on="0"/>
        <pt x="287" y="974" on="0"/>
        <pt x="265" y="947" on="1"/>
        <pt x="208" y="881" on="1"/>
        <pt x="140" y="915" on="1"/>
        <pt x="192" y="1011" on="1"/>
        <pt x="84" y="1011" on="1"/>
      </contour>
      <contour>
        <pt x="86" y="940" on="1"/>
        <pt x="199" y="794" on="1"/>
        <pt x="128" y="731" on="1"/>
        <pt x="25" y="835" on="1"/>
        <pt x="-110" y="731" on="1"/>
        <pt x="-175" y="794" on="1"/>
        <pt x="-4" y="940" on="1"/>
      </contour>
    </TTGlyph>
    <TTGlyph name="circumflextilde" xMin="-171" yMin="571" xMax="230" yMax="941">
      <contour>
        <pt x="7" y="941" on="1"/>
        <pt x="26" y="941" on="0"/>
        <pt x="54" y="929" on="0"/>
        <pt x="71" y="921" on="1"/>
        <pt x="91" y="911" on="0"/>
        <pt x="121" y="899" on="0"/>
        <pt x="138" y="899" on="1"/>
        <pt x="152" y="899" on="0"/>
        <pt x="178" y="911" on="0"/>
        <pt x="195" y="924" on="1"/>
        <pt x="230" y="859" on="1"/>
        <pt x="207" y="833" on="0"/>
        <pt x="147" y="797" on="0"/>
        <pt x="111" y="797" on="1"/>
        <pt x="92" y="797" on="0"/>
        <pt x="64" y="809" on="0"/>
        <pt x="47" y="817" on="1"/>
        <pt x="27" y="827" on="0"/>
        <pt x="-3" y="839" on="0"/>
        <pt x="-20" y="839" on="1"/>
        <pt x="-34" y="839" on="0"/>
        <pt x="-60" y="827" on="0"/>
        <pt x="-77" y="814" on="1"/>
        <pt x="-112" y="879" on="1"/>
        <pt x="-89" y="905" on="0"/>
        <pt x="-29" y="941" on="0"/>
      </contour>
      <contour>
        <pt x="88" y="768" on="1"/>
        <pt x="203" y="634" on="1"/>
        <pt x="131" y="571" on="1"/>
        <pt x="28" y="675" on="1"/>
        <pt x="-107" y="571" on="1"/>
        <pt x="-171" y="634" on="1"/>
        <pt x="-3" y="768" on="1"/>
      </contour>
    </TTGlyph>
    <TTGlyph name="circumflextilde.case" xMin="-175" yMin="731" xMax="231" yMax="1101">
      <contour>
        <pt x="8" y="1101" on="1"/>
        <pt x="27" y="1101" on="0"/>
        <pt x="55" y="1089" on="0"/>
        <pt x="72" y="1081" on="1"/>
        <pt x="92" y="1071" on="0"/>
        <pt x="122" y="1059" on="0"/>
        <pt x="139" y="1059" on="1"/>
        <pt x="153" y="1059" on="0"/>
        <pt x="179" y="1071" on="0"/>
        <pt x="196" y="1084" on="1"/>
        <pt x="231" y="1019" on="1"/>
        <pt x="208" y="993" on="0"/>
        <pt x="148" y="957" on="0"/>
        <pt x="112" y="957" on="1"/>
        <pt x="93" y="957" on="0"/>
        <pt x="65" y="969" on="0"/>
        <pt x="48" y="977" on="1"/>
        <pt x="28" y="987" on="0"/>
        <pt x="-2" y="999" on="0"/>
        <pt x="-19" y="999" on="1"/>
        <pt x="-33" y="999" on="0"/>
        <pt x="-59" y="987" on="0"/>
        <pt x="-76" y="974" on="1"/>
        <pt x="-111" y="1039" on="1"/>
        <pt x="-88" y="1065" on="0"/>
        <pt x="-28" y="1101" on="0"/>
      </contour>
      <contour>
        <pt x="84" y="928" on="1"/>
        <pt x="199" y="794" on="1"/>
        <pt x="127" y="731" on="1"/>
        <pt x="24" y="835" on="1"/>
        <pt x="-111" y="731" on="1"/>
        <pt x="-175" y="794" on="1"/>
        <pt x="-7" y="928" on="1"/>
      </contour>
    </TTGlyph>
    <TTGlyph name="colon" xMin="36" yMin="-11" xMax="291" yMax="536">
      <component glyphName="period" x="10" y="0" flags="0x4"/>
      <component glyphName="period" x="85" y="367" flags="0x4"/>
    </TTGlyph>
    <TTGlyph name="comma" xMin="-43" yMin="-147" xMax="210" yMax="169">
      <contour>
        <pt x="133" y="169" on="1"/>
        <pt x="176" y="169" on="0"/>
        <pt x="210" y="129" on="0"/>
        <pt x="210" y="103" on="1"/>
        <pt x="210" y="95" on="0"/>
        <pt x="206" y="70" on="0"/>
        <pt x="204" y="59" on="1"/>
        <pt x="193" y="6" on="0"/>
        <pt x="120" y="-107" on="0"/>
        <pt x="63" y="-147" on="1"/>
        <pt x="-43" y="-147" on="1"/>
        <pt x="-1" y="-114" on="0"/>
        <pt x="62" y="-48" on="0"/>
        <pt x="82" y="-8" on="1"/>
        <pt x="54" y="-2" on="0"/>
        <pt x="31" y="31" on="0"/>
        <pt x="31" y="49" on="1"/>
        <pt x="31" y="57" on="0"/>
        <pt x="36" y="84" on="0"/>
        <pt x="38" y="95" on="1"/>
        <pt x="45" y="129" on="0"/>
        <pt x="92" y="169" on="0"/>
      </contour>
    </TTGlyph>
    <TTGlyph name="copyright" xMin="58" yMin="-12" xMax="743" yMax="710">
      <contour>
        <pt x="349" y="-12" on="1"/>
        <pt x="283" y="-12" on="0"/>
        <pt x="176" y="33" on="0"/>
        <pt x="100" y="113" on="0"/>
        <pt x="58" y="225" on="0"/>
        <pt x="58" y="293" on="1"/>
        <pt x="58" y="383" on="0"/>
        <pt x="118" y="535" on="0"/>
        <pt x="223" y="647" on="0"/>
        <pt x="368" y="710" on="0"/>
        <pt x="452" y="710" on="1"/>
        <pt x="518" y="710" on="0"/>
        <pt x="625" y="665" on="0"/>
        <pt x="701" y="585" on="0"/>
        <pt x="743" y="472" on="0"/>
        <pt x="743" y="405" on="1"/>
        <pt x="743" y="315" on="0"/>
        <pt x="683" y="163" on="0"/>
        <pt x="578" y="51" on="0"/>
        <pt x="433" y="-12" on="0"/>
      </contour>
      <contour>
        <pt x="353" y="51" on="1"/>
        <pt x="409" y="51" on="0"/>
        <pt x="510" y="90" on="0"/>
        <pt x="591" y="156" on="0"/>
        <pt x="646" y="246" on="0"/>
        <pt x="656" y="297" on="1"/>
        <pt x="663" y="329" on="0"/>
        <pt x="671" y="386" on="0"/>
        <pt x="671" y="405" on="1"/>
        <pt x="671" y="460" on="0"/>
        <pt x="638" y="550" on="0"/>
        <pt x="579" y="613" on="0"/>
        <pt x="497" y="647" on="0"/>
        <pt x="448" y="647" on="1"/>
        <pt x="392" y="647" on="0"/>
        <pt x="291" y="608" on="0"/>
        <pt x="210" y="542" on="0"/>
        <pt x="155" y="452" on="0"/>
        <pt x="145" y="401" on="1"/>
        <pt x="138" y="369" on="0"/>
        <pt x="130" y="312" on="0"/>
        <pt x="130" y="293" on="1"/>
        <pt x="130" y="237" on="0"/>
        <pt x="163" y="148" on="0"/>
        <pt x="222" y="85" on="0"/>
        <pt x="304" y="51" on="0"/>
      </contour>
      <contour>
        <pt x="382" y="134" on="1"/>
        <pt x="342" y="134" on="0"/>
        <pt x="276" y="160" on="0"/>
        <pt x="230" y="206" on="0"/>
        <pt x="204" y="272" on="0"/>
        <pt x="204" y="313" on="1"/>
        <pt x="204" y="362" on="0"/>
        <pt x="238" y="453" on="0"/>
        <pt x="299" y="522" on="0"/>
        <pt x="381" y="564" on="0"/>
        <pt x="429" y="564" on="1"/>
        <pt x="504" y="564" on="0"/>
        <pt x="579" y="500" on="0"/>
        <pt x="595" y="450" on="1"/>
        <pt x="496" y="406" on="1"/>
        <pt x="490" y="432" on="0"/>
        <pt x="459" y="463" on="0"/>
        <pt x="430" y="463" on="1"/>
        <pt x="396" y="463" on="0"/>
        <pt x="356" y="424" on="0"/>
        <pt x="350" y="394" on="1"/>
        <pt x="335" y="317" on="1"/>
        <pt x="333" y="309" on="0"/>
        <pt x="333" y="298" on="0"/>
        <pt x="333" y="292" on="1"/>
        <pt x="333" y="266" on="0"/>
        <pt x="366" y="234" on="0"/>
        <pt x="398" y="234" on="1"/>
        <pt x="426" y="234" on="0"/>
        <pt x="465" y="267" on="0"/>
        <pt x="480" y="290" on="1"/>
        <pt x="570" y="244" on="1"/>
        <pt x="557" y="222" on="0"/>
        <pt x="522" y="182" on="0"/>
        <pt x="476" y="152" on="0"/>
        <pt x="418" y="134" on="0"/>
      </contour>
    </TTGlyph>
    <TTGlyph name="currency" xMin="-16" yMin="43" xMax="671" yMax="655">
      <contour>
        <pt x="293" y="108" on="1"/>
        <pt x="216" y="108" on="0"/>
        <pt x="166" y="137" on="1"/>
        <pt x="53" y="43" on="1"/>
        <pt x="-16" y="130" on="1"/>
        <pt x="93" y="222" on="1"/>
        <pt x="81" y="255" on="0"/>
        <pt x="81" y="295" on="1"/>
        <pt x="81" y="312" on="0"/>
        <pt x="85" y="347" on="0"/>
        <pt x="88" y="362" on="1"/>
        <pt x="94" y="393" on="0"/>
        <pt x="119" y="459" on="0"/>
        <pt x="139" y="485" on="1"/>
        <pt x="62" y="580" on="1"/>
        <pt x="153" y="654" on="1"/>
        <pt x="228" y="561" on="1"/>
        <pt x="285" y="590" on="0"/>
        <pt x="362" y="590" on="1"/>
        <pt x="439" y="590" on="0"/>
        <pt x="489" y="561" on="1"/>
        <pt x="602" y="655" on="1"/>
        <pt x="671" y="568" on="1"/>
        <pt x="562" y="476" on="1"/>
        <pt x="574" y="443" on="0"/>
        <pt x="574" y="403" on="1"/>
        <pt x="574" y="386" on="0"/>
        <pt x="570" y="351" on="0"/>
        <pt x="567" y="336" on="1"/>
        <pt x="561" y="305" on="0"/>
        <pt x="536" y="239" on="0"/>
        <pt x="516" y="213" on="1"/>
        <pt x="593" y="118" on="1"/>
        <pt x="502" y="44" on="1"/>
        <pt x="427" y="137" on="1"/>
        <pt x="370" y="108" on="0"/>
      </contour>
      <contour>
        <pt x="300" y="213" on="1"/>
        <pt x="347" y="213" on="0"/>
        <pt x="409" y="271" on="0"/>
        <pt x="419" y="321" on="1"/>
        <pt x="430" y="377" on="1"/>
        <pt x="432" y="385" on="0"/>
        <pt x="434" y="404" on="0"/>
        <pt x="434" y="413" on="1"/>
        <pt x="434" y="445" on="0"/>
        <pt x="393" y="485" on="0"/>
        <pt x="355" y="485" on="1"/>
        <pt x="308" y="485" on="0"/>
        <pt x="246" y="427" on="0"/>
        <pt x="236" y="377" on="1"/>
        <pt x="225" y="321" on="1"/>
        <pt x="223" y="313" on="0"/>
        <pt x="221" y="294" on="0"/>
        <pt x="221" y="285" on="1"/>
        <pt x="221" y="253" on="0"/>
        <pt x="262" y="213" on="0"/>
      </contour>
    </TTGlyph>
    <TTGlyph name="d" xMin="31" yMin="-12" xMax="612" yMax="740">
      <contour>
        <pt x="430" y="0" on="1"/>
        <pt x="392" y="0" on="0"/>
        <pt x="342" y="40" on="0"/>
        <pt x="342" y="77" on="1"/>
        <pt x="342" y="85" on="0"/>
        <pt x="344" y="103" on="0"/>
        <pt x="345" y="107" on="1"/>
        <pt x="348" y="122" on="1"/>
        <pt x="342" y="122" on="1"/>
        <pt x="311" y="58" on="0"/>
        <pt x="233" y="-12" on="0"/>
        <pt x="171" y="-12" on="1"/>
        <pt x="134" y="-12" on="0"/>
        <pt x="81" y="15" on="0"/>
        <pt x="47" y="64" on="0"/>
        <pt x="31" y="131" on="0"/>
        <pt x="31" y="170" on="1"/>
        <pt x="31" y="254" on="0"/>
        <pt x="70" y="389" on="0"/>
        <pt x="136" y="485" on="0"/>
        <pt x="225" y="537" on="0"/>
        <pt x="275" y="537" on="1"/>
        <pt x="330" y="537" on="0"/>
        <pt x="401" y="477" on="0"/>
        <pt x="406" y="434" on="1"/>
        <pt x="411" y="434" on="1"/>
        <pt x="472" y="740" on="1"/>
        <pt x="612" y="740" on="1"/>
        <pt x="486" y="112" on="1"/>
        <pt x="545" y="112" on="1"/>
        <pt x="523" y="0" on="1"/>
      </contour>
      <contour>
        <pt x="240" y="103" on="1"/>
        <pt x="267" y="103" on="0"/>
        <pt x="311" y="131" on="0"/>
        <pt x="327" y="151" on="1"/>
        <pt x="344" y="171" on="0"/>
        <pt x="369" y="226" on="0"/>
        <pt x="375" y="255" on="1"/>
        <pt x="391" y="335" on="1"/>
        <pt x="399" y="375" on="0"/>
        <pt x="353" y="422" on="0"/>
        <pt x="309" y="422" on="1"/>
        <pt x="218" y="422" on="0"/>
        <pt x="194" y="305" on="1"/>
        <pt x="180" y="235" on="1"/>
        <pt x="178" y="224" on="0"/>
        <pt x="174" y="190" on="0"/>
        <pt x="174" y="178" on="1"/>
        <pt x="174" y="143" on="0"/>
        <pt x="209" y="103" on="0"/>
      </contour>
    </TTGlyph>
    <TTGlyph name="dagger" xMin="49" yMin="-200" xMax="535" yMax="740">
      <contour>
        <pt x="100" y="-200" on="1"/>
        <pt x="222" y="409" on="1"/>
        <pt x="49" y="409" on="1"/>
        <pt x="70" y="515" on="1"/>
        <pt x="243" y="515" on="1"/>
        <pt x="288" y="740" on="1"/>
        <pt x="411" y="740" on="1"/>
        <pt x="366" y="515" on="1"/>
        <pt x="535" y="515" on="1"/>
        <pt x="514" y="409" on="1"/>
        <pt x="345" y="409" on="1"/>
        <pt x="223" y="-200" on="1"/>
      </contour>
    </TTGlyph>
    <TTGlyph name="daggerdbl" xMin="-14" yMin="-200" xMax="546" yMax="740">
      <contour>
        <pt x="111" y="-200" on="1"/>
        <pt x="156" y="25" on="1"/>
        <pt x="-14" y="25" on="1"/>
        <pt x="7" y="131" on="1"/>
        <pt x="177" y="131" on="1"/>
        <pt x="233" y="409" on="1"/>
        <pt x="60" y="409" on="1"/>
        <pt x="81" y="515" on="1"/>
        <pt x="254" y="515" on="1"/>
        <pt x="299" y="740" on="1"/>
        <pt x="422" y="740" on="1"/>
        <pt x="377" y="515" on="1"/>
        <pt x="546" y="515" on="1"/>
        <pt x="525" y="409" on="1"/>
        <pt x="356" y="409" on="1"/>
        <pt x="300" y="131" on="1"/>
        <pt x="471" y="131" on="1"/>
        <pt x="450" y="25" on="1"/>
        <pt x="279" y="25" on="1"/>
        <pt x="234" y="-200" on="1"/>
      </contour>
    </TTGlyph>
    <TTGlyph name="dcaron" xMin="31" yMin="-12" xMax="832" yMax="740">
      <component glyphName="d" x="0" y="0" flags="0x4"/>
      <component glyphName="uni02BC" x="375" y="0" flags="0x4"/>
    </TTGlyph>
    <TTGlyph name="dcroat" xMin="31" yMin="-12" xMax="660" yMax="740">
      <contour>
        <pt x="430" y="0" on="1"/>
        <pt x="392" y="0" on="0"/>
        <pt x="342" y="40" on="0"/>
        <pt x="342" y="77" on="1"/>
        <pt x="342" y="85" on="0"/>
        <pt x="344" y="103" on="0"/>
        <pt x="345" y="107" on="1"/>
        <pt x="348" y="122" on="1"/>
        <pt x="342" y="122" on="1"/>
        <pt x="311" y="58" on="0"/>
        <pt x="233" y="-12" on="0"/>
        <pt x="171" y="-12" on="1"/>
        <pt x="134" y="-12" on="0"/>
        <pt x="81" y="15" on="0"/>
        <pt x="47" y="64" on="0"/>
        <pt x="31" y="131" on="0"/>
        <pt x="31" y="170" on="1"/>
        <pt x="31" y="254" on="0"/>
        <pt x="70" y="389" on="0"/>
        <pt x="136" y="485" on="0"/>
        <pt x="225" y="537" on="0"/>
        <pt x="275" y="537" on="1"/>
        <pt x="330" y="537" on="0"/>
        <pt x="401" y="477" on="0"/>
        <pt x="406" y="434" on="1"/>
        <pt x="411" y="434" on="1"/>
        <pt x="443" y="592" on="1"/>
        <pt x="292" y="592" on="1"/>
        <pt x="311" y="688" on="1"/>
        <pt x="462" y="688" on="1"/>
        <pt x="472" y="740" on="1"/>
        <pt x="612" y="740" on="1"/>
        <pt x="602" y="688" on="1"/>
        <pt x="660" y="688" on="1"/>
        <pt x="640" y="592" on="1"/>
        <pt x="583" y="592" on="1"/>
        <pt x="486" y="112" on="1"/>
        <pt x="545" y="112" on="1"/>
        <pt x="523" y="0" on="1"/>
      </contour>
      <contour>
        <pt x="240" y="103" on="1"/>
        <pt x="267" y="103" on="0"/>
        <pt x="311" y="131" on="0"/>
        <pt x="327" y="151" on="1"/>
        <pt x="344" y="171" on="0"/>
        <pt x="369" y="226" on="0"/>
        <pt x="375" y="255" on="1"/>
        <pt x="391" y="335" on="1"/>
        <pt x="399" y="375" on="0"/>
        <pt x="353" y="422" on="0"/>
        <pt x="309" y="422" on="1"/>
        <pt x="218" y="422" on="0"/>
        <pt x="194" y="305" on="1"/>
        <pt x="180" y="235" on="1"/>
        <pt x="178" y="224" on="0"/>
        <pt x="174" y="190" on="0"/>
        <pt x="174" y="178" on="1"/>
        <pt x="174" y="143" on="0"/>
        <pt x="209" y="103" on="0"/>
      </contour>
    </TTGlyph>
    <TTGlyph name="degree" xMin="96" yMin="334" xMax="468" yMax="710">
      <contour>
        <pt x="263" y="334" on="1"/>
        <pt x="226" y="334" on="0"/>
        <pt x="164" y="360" on="0"/>
        <pt x="120" y="406" on="0"/>
        <pt x="96" y="469" on="0"/>
        <pt x="96" y="505" on="1"/>
        <pt x="96" y="549" on="0"/>
        <pt x="128" y="624" on="0"/>
        <pt x="184" y="679" on="0"/>
        <pt x="259" y="710" on="0"/>
        <pt x="301" y="710" on="1"/>
        <pt x="338" y="710" on="0"/>
        <pt x="400" y="684" on="0"/>
        <pt x="444" y="638" on="0"/>
        <pt x="468" y="575" on="0"/>
        <pt x="468" y="539" on="1"/>
        <pt x="468" y="495" on="0"/>
        <pt x="436" y="420" on="0"/>
        <pt x="380" y="365" on="0"/>
        <pt x="305" y="334" on="0"/>
      </contour>
      <contour>
        <pt x="273" y="426" on="1"/>
        <pt x="315" y="426" on="0"/>
        <pt x="367" y="491" on="0"/>
        <pt x="367" y="538" on="1"/>
        <pt x="367" y="572" on="0"/>
        <pt x="326" y="618" on="0"/>
        <pt x="291" y="618" on="1"/>
        <pt x="249" y="618" on="0"/>
        <pt x="197" y="553" on="0"/>
        <pt x="197" y="506" on="1"/>
        <pt x="197" y="472" on="0"/>
        <pt x="238" y="426" on="0"/>
      </contour>
    </TTGlyph>
    <TTGlyph name="delta" xMin="31" yMin="-12" xMax="559" yMax="740">
      <contour>
        <pt x="382" y="628" on="1"/>
        <pt x="286" y="637" on="1"/>
        <pt x="285" y="633" on="1"/>
        <pt x="370" y="570" on="1"/>
        <pt x="411" y="540" on="0"/>
        <pt x="465" y="481" on="0"/>
        <pt x="498" y="421" on="0"/>
        <pt x="511" y="355" on="0"/>
        <pt x="511" y="318" on="1"/>
        <pt x="511" y="247" on="0"/>
        <pt x="470" y="126" on="0"/>
        <pt x="398" y="38" on="0"/>
        <pt x="298" y="-12" on="0"/>
        <pt x="240" y="-12" on="1"/>
        <pt x="143" y="-12" on="0"/>
        <pt x="31" y="103" on="0"/>
        <pt x="31" y="207" on="1"/>
        <pt x="31" y="279" on="0"/>
        <pt x="76" y="386" on="0"/>
        <pt x="145" y="457" on="0"/>
        <pt x="226" y="492" on="0"/>
        <pt x="262" y="492" on="1"/>
        <pt x="263" y="497" on="1"/>
        <pt x="153" y="595" on="1"/>
        <pt x="182" y="740" on="1"/>
        <pt x="559" y="740" on="1"/>
        <pt x="537" y="628" on="1"/>
      </contour>
      <contour>
        <pt x="368" y="339" on="1"/>
        <pt x="368" y="368" on="0"/>
        <pt x="350" y="413" on="0"/>
        <pt x="324" y="441" on="1"/>
        <pt x="267" y="435" on="0"/>
        <pt x="203" y="361" on="0"/>
        <pt x="191" y="303" on="1"/>
        <pt x="180" y="254" on="0"/>
        <pt x="170" y="198" on="0"/>
        <pt x="170" y="184" on="1"/>
        <pt x="170" y="146" on="0"/>
        <pt x="208" y="101" on="0"/>
        <pt x="245" y="101" on="1"/>
        <pt x="326" y="101" on="0"/>
        <pt x="350" y="215" on="1"/>
        <pt x="361" y="266" on="0"/>
        <pt x="368" y="320" on="0"/>
      </contour>
    </TTGlyph>
    <TTGlyph name="dieresis" xMin="142" yMin="600" xMax="498" yMax="751">
      <contour>
        <pt x="207" y="600" on="1"/>
        <pt x="172" y="600" on="0"/>
        <pt x="142" y="628" on="0"/>
        <pt x="142" y="648" on="1"/>
        <pt x="142" y="653" on="0"/>
        <pt x="145" y="671" on="0"/>
        <pt x="148" y="688" on="1"/>
        <pt x="153" y="714" on="0"/>
        <pt x="191" y="751" on="0"/>
        <pt x="233" y="751" on="1"/>
        <pt x="268" y="751" on="0"/>
        <pt x="298" y="723" on="0"/>
        <pt x="298" y="703" on="1"/>
        <pt x="298" y="698" on="0"/>
        <pt x="295" y="680" on="0"/>
        <pt x="292" y="663" on="1"/>
        <pt x="287" y="637" on="0"/>
        <pt x="249" y="600" on="0"/>
      </contour>
      <contour>
        <pt x="407" y="600" on="1"/>
        <pt x="372" y="600" on="0"/>
        <pt x="342" y="628" on="0"/>
        <pt x="342" y="648" on="1"/>
        <pt x="342" y="653" on="0"/>
        <pt x="345" y="671" on="0"/>
        <pt x="348" y="688" on="1"/>
        <pt x="353" y="714" on="0"/>
        <pt x="391" y="751" on="0"/>
        <pt x="433" y="751" on="1"/>
        <pt x="468" y="751" on="0"/>
        <pt x="498" y="723" on="0"/>
        <pt x="498" y="703" on="1"/>
        <pt x="498" y="698" on="0"/>
        <pt x="495" y="680" on="0"/>
        <pt x="492" y="663" on="1"/>
        <pt x="487" y="637" on="0"/>
        <pt x="449" y="600" on="0"/>
      </contour>
    </TTGlyph>
    <TTGlyph name="dieresis.case" xMin="142" yMin="760" xMax="498" yMax="911">
      <contour>
        <pt x="207" y="760" on="1"/>
        <pt x="172" y="760" on="0"/>
        <pt x="142" y="789" on="0"/>
        <pt x="142" y="809" on="1"/>
        <pt x="142" y="814" on="0"/>
        <pt x="145" y="830" on="0"/>
        <pt x="148" y="848" on="1"/>
        <pt x="153" y="874" on="0"/>
        <pt x="191" y="911" on="0"/>
        <pt x="233" y="911" on="1"/>
        <pt x="268" y="911" on="0"/>
        <pt x="298" y="882" on="0"/>
        <pt x="298" y="862" on="1"/>
        <pt x="298" y="857" on="0"/>
        <pt x="295" y="841" on="0"/>
        <pt x="292" y="823" on="1"/>
        <pt x="287" y="797" on="0"/>
        <pt x="249" y="760" on="0"/>
      </contour>
      <contour>
        <pt x="407" y="760" on="1"/>
        <pt x="372" y="760" on="0"/>
        <pt x="342" y="789" on="0"/>
        <pt x="342" y="809" on="1"/>
        <pt x="342" y="814" on="0"/>
        <pt x="345" y="830" on="0"/>
        <pt x="348" y="848" on="1"/>
        <pt x="353" y="874" on="0"/>
        <pt x="391" y="911" on="0"/>
        <pt x="433" y="911" on="1"/>
        <pt x="468" y="911" on="0"/>
        <pt x="498" y="882" on="0"/>
        <pt x="498" y="862" on="1"/>
        <pt x="498" y="857" on="0"/>
        <pt x="495" y="841" on="0"/>
        <pt x="492" y="823" on="1"/>
        <pt x="487" y="797" on="0"/>
        <pt x="449" y="760" on="0"/>
      </contour>
    </TTGlyph>
    <TTGlyph name="dieresisacute" xMin="-161" yMin="588" xMax="211" yMax="966">
      <contour>
        <pt x="51" y="732" on="1"/>
        <pt x="-24" y="772" on="1"/>
        <pt x="83" y="966" on="1"/>
        <pt x="188" y="908" on="1"/>
      </contour>
      <contour>
        <pt x="-96" y="588" on="1"/>
        <pt x="-134" y="588" on="0"/>
        <pt x="-161" y="616" on="0"/>
        <pt x="-161" y="636" on="1"/>
        <pt x="-161" y="641" on="0"/>
        <pt x="-158" y="658" on="0"/>
        <pt x="-155" y="676" on="1"/>
        <pt x="-150" y="702" on="0"/>
        <pt x="-112" y="737" on="0"/>
        <pt x="-67" y="737" on="1"/>
        <pt x="-29" y="737" on="0"/>
        <pt x="-2" y="709" on="0"/>
        <pt x="-2" y="689" on="1"/>
        <pt x="-2" y="684" on="0"/>
        <pt x="-5" y="667" on="0"/>
        <pt x="-8" y="649" on="1"/>
        <pt x="-13" y="623" on="0"/>
        <pt x="-52" y="588" on="0"/>
      </contour>
      <contour>
        <pt x="117" y="588" on="1"/>
        <pt x="79" y="588" on="0"/>
        <pt x="52" y="616" on="0"/>
        <pt x="52" y="636" on="1"/>
        <pt x="52" y="641" on="0"/>
        <pt x="55" y="658" on="0"/>
        <pt x="58" y="676" on="1"/>
        <pt x="63" y="702" on="0"/>
        <pt x="100" y="737" on="0"/>
        <pt x="145" y="737" on="1"/>
        <pt x="183" y="737" on="0"/>
        <pt x="211" y="709" on="0"/>
        <pt x="211" y="689" on="1"/>
        <pt x="211" y="684" on="0"/>
        <pt x="208" y="667" on="0"/>
        <pt x="205" y="649" on="1"/>
        <pt x="200" y="623" on="0"/>
        <pt x="162" y="588" on="0"/>
      </contour>
    </TTGlyph>
    <TTGlyph name="dieresisacute.case" xMin="-163" yMin="748" xMax="209" yMax="1126">
      <contour>
        <pt x="49" y="892" on="1"/>
        <pt x="-26" y="932" on="1"/>
        <pt x="81" y="1126" on="1"/>
        <pt x="186" y="1068" on="1"/>
      </contour>
      <contour>
        <pt x="-98" y="748" on="1"/>
        <pt x="-136" y="748" on="0"/>
        <pt x="-163" y="776" on="0"/>
        <pt x="-163" y="796" on="1"/>
        <pt x="-163" y="801" on="0"/>
        <pt x="-160" y="818" on="0"/>
        <pt x="-157" y="836" on="1"/>
        <pt x="-152" y="862" on="0"/>
        <pt x="-114" y="897" on="0"/>
        <pt x="-69" y="897" on="1"/>
        <pt x="-31" y="897" on="0"/>
        <pt x="-4" y="869" on="0"/>
        <pt x="-4" y="849" on="1"/>
        <pt x="-4" y="844" on="0"/>
        <pt x="-7" y="827" on="0"/>
        <pt x="-10" y="809" on="1"/>
        <pt x="-15" y="783" on="0"/>
        <pt x="-54" y="748" on="0"/>
      </contour>
      <contour>
        <pt x="115" y="748" on="1"/>
        <pt x="77" y="748" on="0"/>
        <pt x="50" y="776" on="0"/>
        <pt x="50" y="796" on="1"/>
        <pt x="50" y="801" on="0"/>
        <pt x="53" y="818" on="0"/>
        <pt x="56" y="836" on="1"/>
        <pt x="61" y="862" on="0"/>
        <pt x="98" y="897" on="0"/>
        <pt x="143" y="897" on="1"/>
        <pt x="181" y="897" on="0"/>
        <pt x="209" y="869" on="0"/>
        <pt x="209" y="849" on="1"/>
        <pt x="209" y="844" on="0"/>
        <pt x="206" y="827" on="0"/>
        <pt x="203" y="809" on="1"/>
        <pt x="198" y="783" on="0"/>
        <pt x="160" y="748" on="0"/>
      </contour>
    </TTGlyph>
    <TTGlyph name="dieresiscaron" xMin="-161" yMin="588" xMax="260" yMax="968">
      <contour>
        <pt x="-1" y="757" on="1"/>
        <pt x="-114" y="905" on="1"/>
        <pt x="-43" y="968" on="1"/>
        <pt x="55" y="863" on="1"/>
        <pt x="197" y="968" on="1"/>
        <pt x="260" y="905" on="1"/>
        <pt x="89" y="757" on="1"/>
      </contour>
      <contour>
        <pt x="-96" y="588" on="1"/>
        <pt x="-134" y="588" on="0"/>
        <pt x="-161" y="616" on="0"/>
        <pt x="-161" y="636" on="1"/>
        <pt x="-161" y="641" on="0"/>
        <pt x="-158" y="658" on="0"/>
        <pt x="-155" y="676" on="1"/>
        <pt x="-150" y="702" on="0"/>
        <pt x="-112" y="737" on="0"/>
        <pt x="-67" y="737" on="1"/>
        <pt x="-29" y="737" on="0"/>
        <pt x="-2" y="709" on="0"/>
        <pt x="-2" y="689" on="1"/>
        <pt x="-2" y="684" on="0"/>
        <pt x="-5" y="667" on="0"/>
        <pt x="-8" y="649" on="1"/>
        <pt x="-13" y="623" on="0"/>
        <pt x="-52" y="588" on="0"/>
      </contour>
      <contour>
        <pt x="117" y="588" on="1"/>
        <pt x="79" y="588" on="0"/>
        <pt x="52" y="616" on="0"/>
        <pt x="52" y="636" on="1"/>
        <pt x="52" y="641" on="0"/>
        <pt x="55" y="658" on="0"/>
        <pt x="58" y="676" on="1"/>
        <pt x="63" y="702" on="0"/>
        <pt x="100" y="737" on="0"/>
        <pt x="145" y="737" on="1"/>
        <pt x="183" y="737" on="0"/>
        <pt x="211" y="709" on="0"/>
        <pt x="211" y="689" on="1"/>
        <pt x="211" y="684" on="0"/>
        <pt x="208" y="667" on="0"/>
        <pt x="205" y="649" on="1"/>
        <pt x="200" y="623" on="0"/>
        <pt x="162" y="588" on="0"/>
      </contour>
    </TTGlyph>
    <TTGlyph name="dieresiscaron.case" xMin="-163" yMin="748" xMax="258" yMax="1128">
      <contour>
        <pt x="-3" y="917" on="1"/>
        <pt x="-116" y="1065" on="1"/>
        <pt x="-45" y="1128" on="1"/>
        <pt x="53" y="1023" on="1"/>
        <pt x="195" y="1128" on="1"/>
        <pt x="258" y="1065" on="1"/>
        <pt x="87" y="917" on="1"/>
      </contour>
      <contour>
        <pt x="-98" y="748" on="1"/>
        <pt x="-136" y="748" on="0"/>
        <pt x="-163" y="776" on="0"/>
        <pt x="-163" y="796" on="1"/>
        <pt x="-163" y="801" on="0"/>
        <pt x="-160" y="818" on="0"/>
        <pt x="-157" y="836" on="1"/>
        <pt x="-152" y="862" on="0"/>
        <pt x="-114" y="897" on="0"/>
        <pt x="-69" y="897" on="1"/>
        <pt x="-31" y="897" on="0"/>
        <pt x="-4" y="869" on="0"/>
        <pt x="-4" y="849" on="1"/>
        <pt x="-4" y="844" on="0"/>
        <pt x="-7" y="827" on="0"/>
        <pt x="-10" y="809" on="1"/>
        <pt x="-15" y="783" on="0"/>
        <pt x="-54" y="748" on="0"/>
      </contour>
      <contour>
        <pt x="115" y="748" on="1"/>
        <pt x="77" y="748" on="0"/>
        <pt x="50" y="776" on="0"/>
        <pt x="50" y="796" on="1"/>
        <pt x="50" y="801" on="0"/>
        <pt x="53" y="818" on="0"/>
        <pt x="56" y="836" on="1"/>
        <pt x="61" y="862" on="0"/>
        <pt x="98" y="897" on="0"/>
        <pt x="143" y="897" on="1"/>
        <pt x="181" y="897" on="0"/>
        <pt x="209" y="869" on="0"/>
        <pt x="209" y="849" on="1"/>
        <pt x="209" y="844" on="0"/>
        <pt x="206" y="827" on="0"/>
        <pt x="203" y="809" on="1"/>
        <pt x="198" y="783" on="0"/>
        <pt x="160" y="748" on="0"/>
      </contour>
    </TTGlyph>
    <TTGlyph name="dieresisgrave" xMin="-161" yMin="588" xMax="211" yMax="965">
      <contour>
        <pt x="-71" y="909" on="1"/>
        <pt x="49" y="965" on="1"/>
        <pt x="108" y="772" on="1"/>
        <pt x="27" y="734" on="1"/>
      </contour>
      <contour>
        <pt x="-96" y="588" on="1"/>
        <pt x="-134" y="588" on="0"/>
        <pt x="-161" y="616" on="0"/>
        <pt x="-161" y="636" on="1"/>
        <pt x="-161" y="641" on="0"/>
        <pt x="-158" y="658" on="0"/>
        <pt x="-155" y="676" on="1"/>
        <pt x="-150" y="702" on="0"/>
        <pt x="-112" y="737" on="0"/>
        <pt x="-67" y="737" on="1"/>
        <pt x="-29" y="737" on="0"/>
        <pt x="-2" y="709" on="0"/>
        <pt x="-2" y="689" on="1"/>
        <pt x="-2" y="684" on="0"/>
        <pt x="-5" y="667" on="0"/>
        <pt x="-8" y="649" on="1"/>
        <pt x="-13" y="623" on="0"/>
        <pt x="-52" y="588" on="0"/>
      </contour>
      <contour>
        <pt x="117" y="588" on="1"/>
        <pt x="79" y="588" on="0"/>
        <pt x="52" y="616" on="0"/>
        <pt x="52" y="636" on="1"/>
        <pt x="52" y="641" on="0"/>
        <pt x="55" y="658" on="0"/>
        <pt x="58" y="676" on="1"/>
        <pt x="63" y="702" on="0"/>
        <pt x="100" y="737" on="0"/>
        <pt x="145" y="737" on="1"/>
        <pt x="183" y="737" on="0"/>
        <pt x="211" y="709" on="0"/>
        <pt x="211" y="689" on="1"/>
        <pt x="211" y="684" on="0"/>
        <pt x="208" y="667" on="0"/>
        <pt x="205" y="649" on="1"/>
        <pt x="200" y="623" on="0"/>
        <pt x="162" y="588" on="0"/>
      </contour>
    </TTGlyph>
    <TTGlyph name="dieresisgrave.case" xMin="-163" yMin="748" xMax="209" yMax="1125">
      <contour>
        <pt x="-73" y="1069" on="1"/>
        <pt x="47" y="1125" on="1"/>
        <pt x="106" y="932" on="1"/>
        <pt x="25" y="894" on="1"/>
      </contour>
      <contour>
        <pt x="-98" y="748" on="1"/>
        <pt x="-136" y="748" on="0"/>
        <pt x="-163" y="776" on="0"/>
        <pt x="-163" y="796" on="1"/>
        <pt x="-163" y="801" on="0"/>
        <pt x="-160" y="818" on="0"/>
        <pt x="-157" y="836" on="1"/>
        <pt x="-152" y="862" on="0"/>
        <pt x="-114" y="897" on="0"/>
        <pt x="-69" y="897" on="1"/>
        <pt x="-31" y="897" on="0"/>
        <pt x="-4" y="869" on="0"/>
        <pt x="-4" y="849" on="1"/>
        <pt x="-4" y="844" on="0"/>
        <pt x="-7" y="827" on="0"/>
        <pt x="-10" y="809" on="1"/>
        <pt x="-15" y="783" on="0"/>
        <pt x="-54" y="748" on="0"/>
      </contour>
      <contour>
        <pt x="115" y="748" on="1"/>
        <pt x="77" y="748" on="0"/>
        <pt x="50" y="776" on="0"/>
        <pt x="50" y="796" on="1"/>
        <pt x="50" y="801" on="0"/>
        <pt x="53" y="818" on="0"/>
        <pt x="56" y="836" on="1"/>
        <pt x="61" y="862" on="0"/>
        <pt x="98" y="897" on="0"/>
        <pt x="143" y="897" on="1"/>
        <pt x="181" y="897" on="0"/>
        <pt x="209" y="869" on="0"/>
        <pt x="209" y="849" on="1"/>
        <pt x="209" y="844" on="0"/>
        <pt x="206" y="827" on="0"/>
        <pt x="203" y="809" on="1"/>
        <pt x="198" y="783" on="0"/>
        <pt x="160" y="748" on="0"/>
      </contour>
    </TTGlyph>
    <TTGlyph name="dieresismacron" xMin="-161" yMin="588" xMax="211" yMax="889">
      <contour>
        <pt x="-68" y="889" on="1"/>
        <pt x="208" y="889" on="1"/>
        <pt x="188" y="787" on="1"/>
        <pt x="-88" y="787" on="1"/>
      </contour>
      <contour>
        <pt x="-96" y="588" on="1"/>
        <pt x="-134" y="588" on="0"/>
        <pt x="-161" y="616" on="0"/>
        <pt x="-161" y="636" on="1"/>
        <pt x="-161" y="641" on="0"/>
        <pt x="-158" y="658" on="0"/>
        <pt x="-155" y="676" on="1"/>
        <pt x="-150" y="702" on="0"/>
        <pt x="-112" y="737" on="0"/>
        <pt x="-67" y="737" on="1"/>
        <pt x="-30" y="737" on="0"/>
        <pt x="-2" y="709" on="0"/>
        <pt x="-2" y="689" on="1"/>
        <pt x="-2" y="684" on="0"/>
        <pt x="-5" y="667" on="0"/>
        <pt x="-8" y="649" on="1"/>
        <pt x="-13" y="623" on="0"/>
        <pt x="-52" y="588" on="0"/>
      </contour>
      <contour>
        <pt x="117" y="588" on="1"/>
        <pt x="79" y="588" on="0"/>
        <pt x="52" y="616" on="0"/>
        <pt x="52" y="636" on="1"/>
        <pt x="52" y="641" on="0"/>
        <pt x="55" y="658" on="0"/>
        <pt x="58" y="676" on="1"/>
        <pt x="63" y="702" on="0"/>
        <pt x="100" y="737" on="0"/>
        <pt x="145" y="737" on="1"/>
        <pt x="183" y="737" on="0"/>
        <pt x="211" y="709" on="0"/>
        <pt x="211" y="689" on="1"/>
        <pt x="211" y="684" on="0"/>
        <pt x="208" y="667" on="0"/>
        <pt x="205" y="649" on="1"/>
        <pt x="200" y="623" on="0"/>
        <pt x="162" y="588" on="0"/>
      </contour>
    </TTGlyph>
    <TTGlyph name="dieresismacron.case" xMin="-163" yMin="748" xMax="209" yMax="1049">
      <contour>
        <pt x="-70" y="1049" on="1"/>
        <pt x="206" y="1049" on="1"/>
        <pt x="186" y="947" on="1"/>
        <pt x="-90" y="947" on="1"/>
      </contour>
      <contour>
        <pt x="-98" y="748" on="1"/>
        <pt x="-136" y="748" on="0"/>
        <pt x="-163" y="776" on="0"/>
        <pt x="-163" y="796" on="1"/>
        <pt x="-163" y="801" on="0"/>
        <pt x="-160" y="818" on="0"/>
        <pt x="-157" y="836" on="1"/>
        <pt x="-152" y="862" on="0"/>
        <pt x="-114" y="897" on="0"/>
        <pt x="-69" y="897" on="1"/>
        <pt x="-32" y="897" on="0"/>
        <pt x="-4" y="869" on="0"/>
        <pt x="-4" y="849" on="1"/>
        <pt x="-4" y="844" on="0"/>
        <pt x="-7" y="827" on="0"/>
        <pt x="-10" y="809" on="1"/>
        <pt x="-15" y="783" on="0"/>
        <pt x="-54" y="748" on="0"/>
      </contour>
      <contour>
        <pt x="115" y="748" on="1"/>
        <pt x="77" y="748" on="0"/>
        <pt x="50" y="776" on="0"/>
        <pt x="50" y="796" on="1"/>
        <pt x="50" y="801" on="0"/>
        <pt x="53" y="818" on="0"/>
        <pt x="56" y="836" on="1"/>
        <pt x="61" y="862" on="0"/>
        <pt x="98" y="897" on="0"/>
        <pt x="143" y="897" on="1"/>
        <pt x="181" y="897" on="0"/>
        <pt x="209" y="869" on="0"/>
        <pt x="209" y="849" on="1"/>
        <pt x="209" y="844" on="0"/>
        <pt x="206" y="827" on="0"/>
        <pt x="203" y="809" on="1"/>
        <pt x="198" y="783" on="0"/>
        <pt x="160" y="748" on="0"/>
      </contour>
    </TTGlyph>
    <TTGlyph name="dieresistonos" xMin="206" yMin="579" xMax="620" yMax="816">
      <contour>
        <pt x="403" y="579" on="1"/>
        <pt x="343" y="600" on="1"/>
        <pt x="412" y="816" on="1"/>
        <pt x="507" y="789" on="1"/>
      </contour>
      <contour>
        <pt x="260" y="605" on="1"/>
        <pt x="231" y="605" on="0"/>
        <pt x="206" y="631" on="0"/>
        <pt x="206" y="650" on="1"/>
        <pt x="206" y="655" on="0"/>
        <pt x="209" y="672" on="0"/>
        <pt x="211" y="686" on="1"/>
        <pt x="216" y="711" on="0"/>
        <pt x="249" y="746" on="0"/>
        <pt x="283" y="746" on="1"/>
        <pt x="312" y="746" on="0"/>
        <pt x="337" y="720" on="0"/>
        <pt x="337" y="701" on="1"/>
        <pt x="337" y="693" on="0"/>
        <pt x="331" y="665" on="1"/>
        <pt x="327" y="640" on="0"/>
        <pt x="294" y="605" on="0"/>
      </contour>
      <contour>
        <pt x="543" y="605" on="1"/>
        <pt x="514" y="605" on="0"/>
        <pt x="489" y="631" on="0"/>
        <pt x="489" y="650" on="1"/>
        <pt x="489" y="655" on="0"/>
        <pt x="492" y="672" on="0"/>
        <pt x="494" y="686" on="1"/>
        <pt x="499" y="711" on="0"/>
        <pt x="532" y="746" on="0"/>
        <pt x="566" y="746" on="1"/>
        <pt x="595" y="746" on="0"/>
        <pt x="620" y="720" on="0"/>
        <pt x="620" y="701" on="1"/>
        <pt x="620" y="693" on="0"/>
        <pt x="614" y="665" on="1"/>
        <pt x="610" y="640" on="0"/>
        <pt x="577" y="605" on="0"/>
      </contour>
    </TTGlyph>
    <TTGlyph name="divide" xMin="66" yMin="30" xMax="552" yMax="582">
      <contour>
        <pt x="66" y="248" on="1"/>
        <pt x="89" y="364" on="1"/>
        <pt x="552" y="364" on="1"/>
        <pt x="529" y="248" on="1"/>
      </contour>
      <contour>
        <pt x="258" y="30" on="1"/>
        <pt x="216" y="30" on="0"/>
        <pt x="182" y="60" on="0"/>
        <pt x="182" y="80" on="1"/>
        <pt x="182" y="88" on="0"/>
        <pt x="186" y="115" on="0"/>
        <pt x="188" y="124" on="1"/>
        <pt x="195" y="153" on="0"/>
        <pt x="238" y="190" on="0"/>
        <pt x="283" y="190" on="1"/>
        <pt x="325" y="190" on="0"/>
        <pt x="359" y="160" on="0"/>
        <pt x="359" y="140" on="1"/>
        <pt x="359" y="132" on="0"/>
        <pt x="355" y="105" on="0"/>
        <pt x="353" y="96" on="1"/>
        <pt x="346" y="67" on="0"/>
        <pt x="303" y="30" on="0"/>
      </contour>
      <contour>
        <pt x="335" y="422" on="1"/>
        <pt x="293" y="422" on="0"/>
        <pt x="259" y="452" on="0"/>
        <pt x="259" y="472" on="1"/>
        <pt x="259" y="480" on="0"/>
        <pt x="263" y="507" on="0"/>
        <pt x="265" y="516" on="1"/>
        <pt x="272" y="545" on="0"/>
        <pt x="315" y="582" on="0"/>
        <pt x="360" y="582" on="1"/>
        <pt x="402" y="582" on="0"/>
        <pt x="436" y="552" on="0"/>
        <pt x="436" y="532" on="1"/>
        <pt x="436" y="524" on="0"/>
        <pt x="432" y="497" on="0"/>
        <pt x="430" y="488" on="1"/>
        <pt x="423" y="459" on="0"/>
        <pt x="380" y="422" on="0"/>
      </contour>
    </TTGlyph>
    <TTGlyph name="dollar" xMin="-5" yMin="-82" xMax="568" yMax="780">
      <contour>
        <pt x="173" y="13" on="1"/>
        <pt x="113" y="24" on="0"/>
        <pt x="19" y="74" on="0"/>
        <pt x="-5" y="111" on="1"/>
        <pt x="88" y="196" on="1"/>
        <pt x="106" y="167" on="0"/>
        <pt x="170" y="129" on="0"/>
        <pt x="207" y="121" on="1"/>
        <pt x="244" y="304" on="1"/>
        <pt x="156" y="324" on="0"/>
        <pt x="74" y="410" on="0"/>
        <pt x="74" y="479" on="1"/>
        <pt x="74" y="523" on="0"/>
        <pt x="106" y="597" on="0"/>
        <pt x="167" y="653" on="0"/>
        <pt x="254" y="687" on="0"/>
        <pt x="309" y="690" on="1"/>
        <pt x="327" y="780" on="1"/>
        <pt x="437" y="780" on="1"/>
        <pt x="417" y="684" on="1"/>
        <pt x="468" y="674" on="0"/>
        <pt x="546" y="630" on="0"/>
        <pt x="568" y="596" on="1"/>
        <pt x="475" y="514" on="1"/>
        <pt x="461" y="535" on="0"/>
        <pt x="415" y="568" on="0"/>
        <pt x="383" y="576" on="1"/>
        <pt x="349" y="408" on="1"/>
        <pt x="430" y="388" on="0"/>
        <pt x="516" y="306" on="0"/>
        <pt x="516" y="236" on="1"/>
        <pt x="516" y="196" on="0"/>
        <pt x="487" y="120" on="0"/>
        <pt x="428" y="58" on="0"/>
        <pt x="340" y="15" on="0"/>
        <pt x="282" y="9" on="1"/>
        <pt x="265" y="-82" on="1"/>
        <pt x="155" y="-82" on="1"/>
      </contour>
      <contour>
        <pt x="380" y="213" on="1"/>
        <pt x="380" y="236" on="0"/>
        <pt x="357" y="274" on="0"/>
        <pt x="325" y="285" on="1"/>
        <pt x="294" y="120" on="1"/>
        <pt x="344" y="130" on="0"/>
        <pt x="380" y="183" on="0"/>
      </contour>
      <contour>
        <pt x="210" y="496" on="1"/>
        <pt x="210" y="447" on="0"/>
        <pt x="268" y="428" on="1"/>
        <pt x="297" y="579" on="1"/>
        <pt x="249" y="572" on="0"/>
        <pt x="210" y="524" on="0"/>
      </contour>
    </TTGlyph>
    <TTGlyph name="dotaccent" xMin="231" yMin="591" xMax="408" yMax="759">
      <contour>
        <pt x="307" y="591" on="1"/>
        <pt x="264" y="591" on="0"/>
        <pt x="231" y="624" on="0"/>
        <pt x="231" y="650" on="1"/>
        <pt x="231" y="656" on="0"/>
        <pt x="234" y="671" on="0"/>
        <pt x="238" y="692" on="1"/>
        <pt x="243" y="721" on="0"/>
        <pt x="284" y="759" on="0"/>
        <pt x="332" y="759" on="1"/>
        <pt x="375" y="759" on="0"/>
        <pt x="408" y="726" on="0"/>
        <pt x="408" y="700" on="1"/>
        <pt x="408" y="694" on="0"/>
        <pt x="405" y="679" on="0"/>
        <pt x="401" y="658" on="1"/>
        <pt x="396" y="629" on="0"/>
        <pt x="355" y="591" on="0"/>
      </contour>
    </TTGlyph>
    <TTGlyph name="dotaccent.case" xMin="232" yMin="751" xMax="409" yMax="919">
      <contour>
        <pt x="308" y="751" on="1"/>
        <pt x="265" y="751" on="0"/>
        <pt x="232" y="784" on="0"/>
        <pt x="232" y="810" on="1"/>
        <pt x="232" y="816" on="0"/>
        <pt x="235" y="831" on="0"/>
        <pt x="239" y="852" on="1"/>
        <pt x="244" y="881" on="0"/>
        <pt x="285" y="919" on="0"/>
        <pt x="333" y="919" on="1"/>
        <pt x="376" y="919" on="0"/>
        <pt x="409" y="886" on="0"/>
        <pt x="409" y="860" on="1"/>
        <pt x="409" y="854" on="0"/>
        <pt x="406" y="839" on="0"/>
        <pt x="402" y="818" on="1"/>
        <pt x="397" y="789" on="0"/>
        <pt x="356" y="751" on="0"/>
      </contour>
    </TTGlyph>
    <TTGlyph name="dotlessi" xMin="32" yMin="0" xMax="259" yMax="525">
      <contour>
        <pt x="122" y="0" on="1"/>
        <pt x="81" y="0" on="0"/>
        <pt x="32" y="44" on="0"/>
        <pt x="32" y="80" on="1"/>
        <pt x="32" y="90" on="0"/>
        <pt x="35" y="105" on="1"/>
        <pt x="119" y="525" on="1"/>
        <pt x="259" y="525" on="1"/>
        <pt x="176" y="112" on="1"/>
        <pt x="235" y="112" on="1"/>
        <pt x="213" y="0" on="1"/>
      </contour>
    </TTGlyph>
    <TTGlyph name="e" xMin="31" yMin="-12" xMax="504" yMax="537">
      <contour>
        <pt x="253" y="-12" on="1"/>
        <pt x="141" y="-12" on="0"/>
        <pt x="31" y="109" on="0"/>
        <pt x="31" y="214" on="1"/>
        <pt x="31" y="277" on="0"/>
        <pt x="71" y="394" on="0"/>
        <pt x="145" y="483" on="0"/>
        <pt x="251" y="537" on="0"/>
        <pt x="316" y="537" on="1"/>
        <pt x="346" y="537" on="0"/>
        <pt x="412" y="523" on="0"/>
        <pt x="467" y="490" on="0"/>
        <pt x="504" y="434" on="0"/>
        <pt x="504" y="391" on="1"/>
        <pt x="504" y="350" on="0"/>
        <pt x="466" y="285" on="0"/>
        <pt x="386" y="238" on="0"/>
        <pt x="260" y="211" on="0"/>
        <pt x="172" y="208" on="1"/>
        <pt x="170" y="199" on="0"/>
        <pt x="170" y="189" on="0"/>
        <pt x="170" y="185" on="1"/>
        <pt x="170" y="147" on="0"/>
        <pt x="211" y="101" on="0"/>
        <pt x="263" y="101" on="1"/>
        <pt x="297" y="101" on="0"/>
        <pt x="356" y="130" on="0"/>
        <pt x="391" y="174" on="1"/>
        <pt x="477" y="106" on="1"/>
        <pt x="428" y="41" on="0"/>
        <pt x="321" y="-12" on="0"/>
      </contour>
      <contour>
        <pt x="308" y="430" on="1"/>
        <pt x="263" y="430" on="0"/>
        <pt x="200" y="371" on="0"/>
        <pt x="191" y="320" on="1"/>
        <pt x="187" y="297" on="1"/>
        <pt x="243" y="300" on="0"/>
        <pt x="314" y="314" on="0"/>
        <pt x="354" y="335" on="0"/>
        <pt x="368" y="361" on="0"/>
        <pt x="368" y="377" on="1"/>
        <pt x="368" y="394" on="0"/>
        <pt x="356" y="415" on="0"/>
        <pt x="338" y="426" on="0"/>
        <pt x="317" y="430" on="0"/>
      </contour>
    </TTGlyph>
    <TTGlyph name="eacute" xMin="31" yMin="-12" xMax="504" yMax="815">
      <component glyphName="e" x="0" y="0" flags="0x204"/>
      <component glyphName="acute" x="30" y="0" flags="0x4"/>
    </TTGlyph>
    <TTGlyph name="ebreve" xMin="31" yMin="-12" xMax="552" yMax="791">
      <component glyphName="e" x="0" y="0" flags="0x204"/>
      <component glyphName="breve" x="30" y="0" flags="0x4"/>
    </TTGlyph>
    <TTGlyph name="ecaron" xMin="31" yMin="-12" xMax="549" yMax="803">
      <component glyphName="e" x="0" y="0" flags="0x204"/>
      <component glyphName="caron" x="30" y="0" flags="0x4"/>
    </TTGlyph>
    <TTGlyph name="ecircumflex" xMin="31" yMin="-12" xMax="526" yMax="794">
      <component glyphName="e" x="0" y="0" flags="0x204"/>
      <component glyphName="circumflex" x="30" y="0" flags="0x4"/>
    </TTGlyph>
    <TTGlyph name="edieresis" xMin="31" yMin="-12" xMax="528" yMax="751">
      <component glyphName="e" x="0" y="0" flags="0x204"/>
      <component glyphName="dieresis" x="30" y="0" flags="0x4"/>
    </TTGlyph>
</ttFont>
